<?xml version="1.0" encoding="UTF-8"?>
<svg id="Layer_2" data-name="Layer 2" xmlns="http://www.w3.org/2000/svg" xmlns:xlink="http://www.w3.org/1999/xlink" viewBox="0 0 1947.87 952.69">
  <defs>
    <style>
      .cls-1 {
        fill: #511715;
      }

      .cls-1, .cls-2, .cls-3, .cls-4, .cls-5, .cls-6, .cls-7, .cls-8, .cls-9, .cls-10, .cls-11, .cls-12, .cls-13, .cls-14, .cls-15, .cls-16, .cls-17, .cls-18, .cls-19, .cls-20, .cls-21, .cls-22, .cls-23, .cls-24, .cls-25, .cls-26, .cls-27, .cls-28, .cls-29, .cls-30, .cls-31, .cls-32, .cls-33, .cls-34, .cls-35, .cls-36, .cls-37, .cls-38, .cls-39, .cls-40, .cls-41, .cls-42, .cls-43, .cls-44, .cls-45, .cls-46, .cls-47, .cls-48, .cls-49, .cls-50, .cls-51, .cls-52, .cls-53, .cls-54, .cls-55, .cls-56, .cls-57, .cls-58, .cls-59, .cls-60, .cls-61, .cls-62, .cls-63, .cls-64, .cls-65, .cls-66, .cls-67, .cls-68, .cls-69, .cls-70, .cls-71, .cls-72, .cls-73, .cls-74, .cls-75, .cls-76, .cls-77, .cls-78, .cls-79, .cls-80, .cls-81, .cls-82, .cls-83, .cls-84, .cls-85, .cls-86, .cls-87, .cls-88, .cls-89, .cls-90, .cls-91, .cls-92, .cls-93, .cls-94, .cls-95, .cls-96, .cls-97, .cls-98, .cls-99, .cls-100, .cls-101, .cls-102, .cls-103, .cls-104, .cls-105, .cls-106, .cls-107, .cls-108, .cls-109, .cls-110, .cls-111, .cls-112, .cls-113, .cls-114, .cls-115, .cls-116, .cls-117, .cls-118, .cls-119, .cls-120, .cls-121, .cls-122, .cls-123, .cls-124, .cls-125, .cls-126, .cls-127, .cls-128, .cls-129, .cls-130, .cls-131, .cls-132, .cls-133, .cls-134, .cls-135, .cls-136, .cls-137, .cls-138, .cls-139, .cls-140, .cls-141, .cls-142, .cls-143, .cls-144, .cls-145, .cls-146, .cls-147, .cls-148, .cls-149, .cls-150, .cls-151, .cls-152, .cls-153, .cls-154, .cls-155, .cls-156, .cls-157, .cls-158, .cls-159, .cls-160, .cls-161, .cls-162, .cls-163, .cls-164, .cls-165, .cls-166, .cls-167, .cls-168 {
        stroke-width: 0px;
      }

      .cls-2 {
        fill: #f7aa1f;
      }

      .cls-3 {
        fill: #b32f26;
      }

      .cls-4 {
        fill: #f79526;
      }

      .cls-5 {
        fill: #c32f27;
      }

      .cls-6 {
        fill: #601112;
      }

      .cls-7 {
        fill: #7f151b;
      }

      .cls-8 {
        fill: #f5a620;
      }

      .cls-9 {
        fill: #ad2526;
      }

      .cls-10 {
        fill: #ef692f;
      }

      .cls-11 {
        fill: #651314;
      }

      .cls-12 {
        fill: #411313;
      }

      .cls-13 {
        fill: #721512;
      }

      .cls-14 {
        fill: #f17f21;
      }

      .cls-15 {
        fill: #f0592c;
      }

      .cls-16 {
        fill: #f26b2e;
      }

      .cls-17 {
        fill: #ec472d;
      }

      .cls-18 {
        fill: #f5ad1c;
      }

      .cls-19 {
        fill: #ec482a;
      }

      .cls-20 {
        fill: #bd3227;
      }

      .cls-21 {
        fill: #e13c2d;
      }

      .cls-22 {
        fill: #f37528;
      }

      .cls-169 {
        font-family: Montserrat-ExtraBoldItalic, Montserrat;
        font-size: 143.51px;
        font-style: italic;
        font-weight: 700;
      }

      .cls-169, .cls-138 {
        fill: #fff;
      }

      .cls-23 {
        fill: #f26f2e;
      }

      .cls-24 {
        fill: #ee4131;
      }

      .cls-25 {
        fill: #b22f26;
      }

      .cls-26 {
        fill: #ec642f;
      }

      .cls-27 {
        fill: #f07828;
      }

      .cls-28 {
        fill: #cc3728;
      }

      .cls-29 {
        fill: #711211;
      }

      .cls-170 {
        opacity: .6;
      }

      .cls-30 {
        fill: #d23b27;
      }

      .cls-31 {
        fill: #81181a;
      }

      .cls-32 {
        fill: #421514;
      }

      .cls-33 {
        fill: #561412;
      }

      .cls-34 {
        fill: #f6a420;
      }

      .cls-171 {
        clip-path: url(#clippath-2);
      }

      .cls-35 {
        fill: #f05d2d;
      }

      .cls-36 {
        fill: #411312;
      }

      .cls-37 {
        fill: #ec492c;
      }

      .cls-38 {
        fill: #c73228;
      }

      .cls-39 {
        fill: #ec482d;
      }

      .cls-40 {
        fill: #4c1817;
      }

      .cls-41 {
        fill: #621112;
      }

      .cls-42 {
        fill: #c73028;
      }

      .cls-43 {
        fill: #f06a2f;
      }

      .cls-44 {
        fill: #ee512a;
      }

      .cls-45 {
        fill: #5a1211;
      }

      .cls-46 {
        fill: #ef4f2a;
      }

      .cls-47 {
        fill: #451616;
      }

      .cls-48 {
        fill: #ec572a;
      }

      .cls-49 {
        fill: #6e1210;
      }

      .cls-50 {
        fill: #8b1d1d;
      }

      .cls-51 {
        fill: #af2925;
      }

      .cls-52 {
        fill: #ef7428;
      }

      .cls-53 {
        fill: #4a1816;
      }

      .cls-54 {
        fill: #9c2322;
      }

      .cls-55 {
        fill: #431515;
      }

      .cls-56 {
        fill: #691413;
      }

      .cls-57 {
        fill: #f59825;
      }

      .cls-58 {
        fill: #bb3327;
      }

      .cls-59 {
        fill: #9f2422;
      }

      .cls-60 {
        fill: #f58421;
      }

      .cls-61 {
        fill: #831a1b;
      }

      .cls-62 {
        fill: #8e1e1e;
      }

      .cls-63 {
        fill: #f89c26;
      }

      .cls-64 {
        fill: none;
      }

      .cls-65 {
        fill: #af2a25;
      }

      .cls-66 {
        fill: #ee4031;
      }

      .cls-67 {
        fill: #91201f;
      }

      .cls-68 {
        fill: #992421;
      }

      .cls-69 {
        fill: #b83427;
      }

      .cls-172 {
        letter-spacing: -.02em;
      }

      .cls-70 {
        fill: #841c1b;
      }

      .cls-71 {
        fill: #f1612d;
      }

      .cls-173 {
        clip-path: url(#clippath-1);
      }

      .cls-72 {
        fill: #f58a26;
      }

      .cls-73 {
        fill: #f0592d;
      }

      .cls-74 {
        fill: #671613;
      }

      .cls-75 {
        fill: #f37628;
      }

      .cls-76 {
        fill: #ec542c;
      }

      .cls-77 {
        fill: #551615;
      }

      .cls-78 {
        fill: #4e1817;
      }

      .cls-79 {
        fill: #5a0e11;
      }

      .cls-80 {
        fill: #811a1b;
      }

      .cls-81 {
        fill: #328087;
      }

      .cls-82 {
        fill: #721413;
      }

      .cls-83 {
        fill: #db3829;
      }

      .cls-84 {
        fill: #641313;
      }

      .cls-85 {
        fill: #a22222;
      }

      .cls-86 {
        fill: #f07e21;
      }

      .cls-87 {
        fill: #ee432e;
      }

      .cls-88 {
        fill: #ef492b;
      }

      .cls-89 {
        fill: #b53027;
      }

      .cls-90 {
        fill: #f89f24;
      }

      .cls-91 {
        fill: #f05c2d;
      }

      .cls-92 {
        fill: #600f11;
      }

      .cls-93 {
        fill: #e53e2e;
      }

      .cls-94 {
        fill: #4b1817;
      }

      .cls-95 {
        fill: #ef672f;
      }

      .cls-96 {
        fill: #681513;
      }

      .cls-97 {
        fill: #932321;
      }

      .cls-98 {
        fill: #f07228;
      }

      .cls-99 {
        fill: #d33a27;
      }

      .cls-100 {
        fill: #741513;
      }

      .cls-101 {
        fill: #a82224;
      }

      .cls-102 {
        fill: #861a1c;
      }

      .cls-103 {
        fill: #8e1f1d;
      }

      .cls-104 {
        fill: #ee5f2d;
      }

      .cls-105 {
        fill: #ec552a;
      }

      .cls-106 {
        fill: #461716;
      }

      .cls-107 {
        fill: #f05a2d;
      }

      .cls-108 {
        fill: #f69027;
      }

      .cls-109 {
        fill: #501816;
      }

      .cls-110 {
        fill: #881c1c;
      }

      .cls-111 {
        fill: #f07a26;
      }

      .cls-174 {
        clip-path: url(#clippath);
      }

      .cls-112 {
        fill: #ab2426;
      }

      .cls-113 {
        fill: #7a1718;
      }

      .cls-114 {
        fill: #e63f30;
      }

      .cls-115 {
        fill: #f58722;
      }

      .cls-116 {
        fill: #eb462d;
      }

      .cls-117 {
        fill: #972421;
      }

      .cls-118 {
        fill: #5c0e10;
      }

      .cls-119 {
        fill: #541715;
      }

      .cls-120 {
        fill: #f48321;
      }

      .cls-121 {
        fill: #cb3628;
      }

      .cls-122 {
        fill: #4f1716;
      }

      .cls-123 {
        fill: #c22e28;
      }

      .cls-124 {
        fill: #932120;
      }

      .cls-125 {
        fill: #f69227;
      }

      .cls-126 {
        fill: #5a0f10;
      }

      .cls-127 {
        fill: #f26f2c;
      }

      .cls-128 {
        fill: #751614;
      }

      .cls-129 {
        fill: #f08021;
      }

      .cls-130 {
        fill: #441515;
      }

      .cls-131 {
        fill: #ef4b29;
      }

      .cls-132 {
        fill: #491816;
      }

      .cls-133 {
        fill: #761716;
      }

      .cls-134 {
        fill: #f26c2e;
      }

      .cls-135 {
        fill: #a52323;
      }

      .cls-136 {
        fill: #571311;
      }

      .cls-137 {
        fill: #9a2621;
      }

      .cls-139 {
        fill: #80181a;
      }

      .cls-140 {
        fill: #791617;
      }

      .cls-141 {
        fill: #5e0f11;
      }

      .cls-142 {
        fill: #cd3729;
      }

      .cls-143 {
        fill: #df3c2b;
      }

      .cls-144 {
        fill: #6c1311;
      }

      .cls-145 {
        fill: #6a1512;
      }

      .cls-146 {
        fill: #8d1d1d;
      }

      .cls-147 {
        fill: #f9a320;
      }

      .cls-148 {
        fill: #eb4630;
      }

      .cls-149 {
        fill: #6b1411;
      }

      .cls-150 {
        fill: #ef7c25;
      }

      .cls-151 {
        fill: #481816;
      }

      .cls-152 {
        fill: #ed602e;
      }

      .cls-153 {
        fill: #701311;
      }

      .cls-154 {
        fill: #e83f31;
      }

      .cls-155 {
        fill: #db6b27;
      }

      .cls-156 {
        fill: #7f7f7f;
      }

      .cls-157 {
        fill: #f79725;
      }

      .cls-158 {
        fill: #d83a28;
      }

      .cls-159 {
        fill: #f0592b;
      }

      .cls-160 {
        fill: #f9a123;
      }

      .cls-161 {
        fill: #f05b2d;
      }

      .cls-162 {
        fill: #ee522a;
      }

      .cls-163 {
        fill: #7b1518;
      }

      .cls-175 {
        letter-spacing: -.01em;
      }

      .cls-164 {
        fill: #a32323;
      }

      .cls-165 {
        fill: #a92225;
      }

      .cls-166 {
        fill: #ef4a2b;
      }

      .cls-167 {
        fill: #7d1819;
      }

      .cls-168 {
        fill: #ee3f31;
      }
    </style>
    <clipPath id="clippath">
      <path class="cls-64" d="M1947.42,156.54c-24.1-163.36-409.06-193.88-1009.25-114.74C562.25,91.39,173.6,172.72,0,237.24c156.15-38.54,379.73-72.9,695.57-100.71,610.3-53.75,1096.08,13.74,1060.31,155.78-3.43,13.65-11.35,27.44-23.48,41.21,135.99-51.1,222.5-126.23,215.01-176.97Z"/>
    </clipPath>
    <clipPath id="clippath-1">
      <path class="cls-64" d="M1938.27,164.49c-17.96-121.75-520.42-193.06-1114.48-114.73C447.88,99.34,173.6,172.72,0,237.24c156.15-38.54,379.73-72.9,695.57-100.71,610.3-53.75,1096.08,13.74,1060.31,155.78-3.43,13.65-11.35,27.44-23.48,41.21,135.99-51.1,213.35-118.27,205.86-169.03Z"/>
    </clipPath>
    <clipPath id="clippath-2">
      <path class="cls-64" d="M1846.23,238.46c0-89.55-117.51-178.31-968.14-115.82-565.45,41.53-399.14,124.85-391.75,219.62,7.42,94.75,321.55,135.57,700.43,115.64,378.9-19.92,659.46-141.03,659.46-219.44Z"/>
    </clipPath>
  </defs>
  <g id="Layer_1-2" data-name="Layer 1">
    <g>
      <g>
        <g>
          <g class="cls-174">
            <rect class="cls-18" x="0" y="-37.34" width="1954.9" height="370.86"/>
            <path class="cls-18" d="M1959.23,337.85H-4.34V22.26h-.53C20.71,8.17,47.74-5.35,76.12-18.25c28.38-12.9,58.12-25.19,89.1-36.82v13.39h1596.27v-13.39c30.98,11.63,60.72,23.91,89.1,36.82,28.38,12.9,55.41,26.42,80.98,40.51,12.79,7.04,25.21,14.23,37.25,21.55h-9.6v294.05Z"/>
            <path class="cls-2" d="M1959.23,337.85H-4.34V46.83h-28.88c11.94-7.26,24.25-14.38,36.92-21.36C29.05,11.51,55.84-1.89,83.97-14.68c28.13-12.79,57.61-24.97,88.32-36.49v9.5h1582.15v-9.5c30.71,11.52,60.18,23.7,88.32,36.49,28.13,12.79,54.92,26.19,80.27,40.15,12.67,6.98,24.98,14.1,36.92,21.36h-.7v291.03Z"/>
            <path class="cls-8" d="M1959.23,337.85H-4.34V49.85h-19.98C-12.49,42.66-.29,35.6,12.27,28.68,37.39,14.84,63.94,1.56,91.82-11.11c27.88-12.68,57.09-24.75,87.53-36.17v5.6h1568.02v-5.6c30.44,11.42,59.65,23.49,87.53,36.17,55.76,25.35,106.2,53.12,150.5,82.93h-26.17v266.04Z"/>
            <path class="cls-34" d="M1959.23,337.85H-4.34V52.87h-11.08c11.72-7.13,23.81-14.12,36.26-20.98C45.73,18.18,72.04,5.02,99.67-7.54c27.63-12.56,56.58-24.52,86.74-35.84v1.71h1553.89v-1.71c30.16,11.32,59.11,23.28,86.74,35.84,55.26,25.12,105.25,52.64,149.15,82.18h-16.96v263.21Z"/>
            <path class="cls-147" d="M1959.23,337.85H-4.34V55.89h-2.19c11.62-7.06,23.6-13.99,35.93-20.79C54.07,21.51,80.15,8.47,107.53-3.97c54.76-24.89,114.74-47.41,179.13-67.19v29.49h1353.42v-29.49c64.39,19.78,124.37,42.3,179.13,67.19,54.76,24.89,104.29,52.16,147.79,81.44h-7.75v260.39Z"/>
            <path class="cls-160" d="M1959.23,337.85H-4.34V80.29h-26.72C12.04,51.28,61.12,24.26,115.38-.4c54.25-24.67,113.68-46.98,177.48-66.57v25.3h1341v-25.3c63.8,19.6,123.23,41.91,177.48,66.57,54.25,24.67,103.33,51.68,146.44,80.69,10.78,7.25,21.18,14.63,31.19,22.12h-29.74v235.45Z"/>
            <path class="cls-90" d="M1959.23,337.85H-4.34V83.11h-17.52C20.85,54.37,69.48,27.6,123.23,3.17c53.75-24.44,112.63-46.54,175.84-65.96v21.12h1328.58v-21.12c63.21,19.41,122.09,41.52,175.84,65.96,53.75,24.44,102.38,51.2,145.08,79.94,10.68,7.18,20.98,14.49,30.9,21.92h-20.24v232.83Z"/>
            <path class="cls-63" d="M1959.23,337.85H-4.34V85.93h-8.31C29.66,57.46,77.83,30.94,131.08,6.74c53.25-24.21,111.58-46.11,174.2-65.34v16.93h1316.17v-16.93c62.62,19.23,120.95,41.13,174.2,65.34,53.25,24.21,101.42,50.73,143.72,79.19,10.58,7.12,20.79,14.36,30.62,21.71h-10.74v230.21Z"/>
            <path class="cls-57" d="M1959.23,337.85H-4.34V110.26h-29.43c9.74-7.29,19.85-14.46,30.33-21.51C38.47,60.55,86.18,34.29,138.93,10.31c52.75-23.98,110.53-45.67,172.55-64.72v12.74h1303.75v-12.74c62.03,19.05,119.81,40.74,172.55,64.72,52.75,23.98,100.46,50.25,142.37,78.45,20.95,14.1,40.45,28.68,58.4,43.7h-29.32v205.4Z"/>
            <path class="cls-157" d="M1959.23,337.85H-4.34V112.88h-19.93c9.64-7.22,19.66-14.32,30.04-21.3C47.28,63.64,94.54,37.63,146.78,13.88c52.24-23.75,109.47-45.24,170.91-64.11v8.56h1291.33v-8.56c61.44,18.87,118.66,40.36,170.91,64.11,52.24,23.75,99.51,49.77,141.01,77.7,20.75,13.97,40.07,28.41,57.84,43.29h-19.56v202.99Z"/>
            <path class="cls-4" d="M1959.23,337.85H-4.34V115.49h-10.43c9.55-7.15,19.47-14.18,29.75-21.1,41.11-27.66,87.91-53.43,139.66-76.95,51.74-23.52,108.42-44.8,169.27-63.49v4.37h1278.92v-4.37c60.85,18.69,117.52,39.97,169.27,63.49,51.74,23.52,98.55,49.29,139.66,76.95,20.55,13.83,39.68,28.14,57.29,42.87h-9.79v200.59Z"/>
            <path class="cls-125" d="M1959.23,337.85H-4.34v-198.18h-28.21c17.44-14.59,36.38-28.76,56.73-42.45,40.71-27.39,87.06-52.91,138.3-76.21,51.24-23.3,107.37-44.37,167.62-62.88v.19h1266.5v-.19c60.25,18.51,116.38,39.58,167.62,62.88,51.24,23.3,97.59,48.81,138.3,76.21,20.35,13.7,39.3,27.86,56.73,42.45h-.03v198.18Z"/>
            <path class="cls-108" d="M1959.23,337.85H-4.34v-195.77h-18.45c17.26-14.45,36.02-28.48,56.18-42.04,40.31-27.13,86.21-52.39,136.95-75.46,50.74-23.07,106.31-43.93,165.98-62.26,29.83-9.16,60.69-17.69,92.47-25.54v21.54h1069.15v-21.54c31.78,7.85,62.64,16.38,92.47,25.54,59.66,18.33,115.24,39.19,165.98,62.26,50.74,23.07,96.64,48.33,136.95,75.46,20.15,13.56,38.91,27.59,56.18,42.04,8.63,7.22,16.89,14.55,24.77,21.98h-15.03v173.79Z"/>
            <path class="cls-72" d="M1959.23,337.85H-4.34v-193.37h-8.68c17.09-14.31,35.66-28.19,55.62-41.62,39.91-26.86,85.35-51.87,135.59-74.71,50.24-22.84,105.26-43.5,164.34-61.64,29.54-9.07,60.09-17.51,91.55-25.29v17.1h1058.56v-17.1c31.47,7.77,62.02,16.21,91.55,25.29,59.07,18.14,114.1,38.8,164.34,61.64,100.47,45.68,181.78,100.07,237.97,160.46h-27.26v149.24Z"/>
            <path class="cls-115" d="M1959.23,337.85H-4.34v-169.41h-23.19c7.72-7.28,15.81-14.47,24.28-21.55,16.92-14.16,35.31-27.91,55.06-41.21,39.51-26.59,84.5-51.35,134.23-73.96,49.73-22.61,104.21-43.06,162.69-61.03,29.24-8.98,59.48-17.34,90.64-25.03v12.66h1047.98v-12.66c31.15,7.69,61.4,16.05,90.64,25.03,58.48,17.96,112.96,38.42,162.69,61.03,99.47,45.22,179.96,99.07,235.59,158.86h-17.03v147.27Z"/>
            <path class="cls-60" d="M1959.23,337.85H-4.34v-167.22h-13.19c7.64-7.21,15.66-14.32,24.03-21.33,16.75-14.02,34.95-27.63,54.51-40.79,39.11-26.32,83.65-50.84,132.88-73.22,98.46-44.76,215.7-80.99,345.89-106.02v29.06h847.14v-29.06c130.19,25.03,247.43,61.26,345.89,106.02,98.46,44.76,178.14,98.07,233.21,157.25h-6.8v145.31Z"/>
            <path class="cls-120" d="M1959.23,337.85H-4.34v-143.34h-24.75C25.42,135.93,104.29,83.17,201.75,38.86c97.46-44.31,213.5-80.16,342.36-104.94v24.4h838.5v-24.4c128.86,24.78,244.91,60.63,342.36,104.94,97.46,44.31,176.32,97.06,230.83,155.65,6.81,7.32,13.25,14.74,19.29,22.24h-15.85v121.11Z"/>
            <path class="cls-129" d="M1959.23,337.85H-4.34v-141.38h-14.52C35.09,138.5,113.14,86.28,209.6,42.43,306.05-1.42,420.9-36.9,548.43-61.43v19.75h829.86v-19.75c127.53,24.52,242.38,60.01,338.83,103.86,96.45,43.85,174.51,96.06,228.45,154.04,13.49,14.49,25.46,29.35,35.85,44.53h-22.18v96.85Z"/>
            <path class="cls-14" d="M1959.23,337.85H-4.34v-139.41h-4.28C44.76,141.06,122,89.39,217.45,46,312.9,2.61,426.55-32.51,552.75-56.78v15.1h821.21v-15.1c126.2,24.27,239.86,59.38,335.3,102.78,95.45,43.39,172.69,95.06,226.07,152.44,13.34,14.34,25.2,29.04,35.47,44.06h-11.58v95.35Z"/>
            <path class="cls-14" d="M1959.23,337.85H-4.34v-93.85h-29.15c10.17-14.86,21.89-29.4,35.1-43.6,52.82-56.77,129.25-107.9,223.69-150.83C319.74,6.63,432.2-28.11,557.08-52.12v10.45h812.57v-10.45c124.88,24.01,237.33,58.76,331.78,101.7,94.44,42.94,170.87,94.06,223.69,150.83,26.41,28.39,46.92,58.18,60.82,89.07h-26.69v48.37Z"/>
            <path class="cls-86" d="M1959.23,337.85H-4.34v-92.35h-18.55c10.06-14.7,21.66-29.09,34.73-43.13,52.26-56.17,127.87-106.75,221.31-149.23C326.59,10.66,437.85-23.72,561.4-47.47v5.8h803.92v-5.8c123.55,23.76,234.81,58.13,328.25,100.61,93.44,42.48,169.05,93.06,221.31,149.23,26.13,28.08,46.42,57.56,60.17,88.13h-15.81v47.36Z"/>
            <path class="cls-150" d="M1959.23,337.85H-4.34v-90.85h-7.94c9.95-14.54,21.43-28.78,34.35-42.67,51.69-55.56,126.5-105.6,218.93-147.63C333.44,14.69,443.5-19.32,565.72-42.82v1.15h795.28v-1.15c122.22,23.5,232.28,57.51,324.72,99.53,92.43,42.02,167.24,92.06,218.93,147.63,25.85,27.78,45.92,56.95,59.53,87.18h-4.94v46.34Z"/>
            <path class="cls-111" d="M1959.23,337.85H-4.34v-45.32h-22.24c13.46-29.9,33.31-58.75,58.88-86.23,51.13-54.96,125.12-104.45,216.55-146.02C340.28,18.71,449.15-14.92,570.04-38.17c60.44-11.62,123.9-20.65,189.67-26.77v23.26h407.29v-23.26c65.78,6.12,129.23,15.14,189.67,26.77,120.89,23.25,229.76,56.88,321.19,98.45,91.43,41.57,165.42,91.06,216.55,146.02,25.57,27.48,45.42,56.33,58.88,86.23,6.73,14.95,11.86,30.17,15.31,45.61l-9.37-.29Z"/>
            <path class="cls-27" d="M1959.23,337.85H-4.34v-44.31h-11.36c13.31-29.58,32.95-58.11,58.23-85.28,50.57-54.36,123.75-103.31,214.17-144.42C437.56-18.37,687.39-69.22,963.36-69.22S1489.16-18.37,1670.01,63.85c90.42,41.11,163.6,90.06,214.17,144.42,25.29,27.18,44.92,55.71,58.23,85.28,6.66,14.79,11.73,29.84,15.14,45.11v-.81h1.68Z"/>
            <path class="cls-75" d="M1951.61,337.85H-4.34v-43.29h-.48c13.16-29.25,32.58-57.46,57.58-84.34,50.01-53.75,122.37-102.16,211.79-142.81C443.4-13.89,690.46-64.17,963.36-64.17S1483.32-13.89,1662.16,67.42c89.42,40.65,161.78,89.06,211.79,142.81,25,26.88,44.42,55.09,57.58,84.34,6.58,14.62,11.6,29.51,14.98,44.61v-1.32h5.1Z"/>
            <path class="cls-22" d="M1940.51,337.85H-4.34l-4.41,1.84c3.34-14.93,8.3-29.65,14.81-44.11,13.02-28.92,32.21-56.81,56.94-83.39,49.45-53.15,121-101.01,209.41-141.21C449.24-9.4,693.53-59.13,963.36-59.13S1477.48-9.4,1654.31,70.99c88.41,40.2,159.96,88.06,209.41,141.21,24.72,26.57,43.92,54.47,56.94,83.39,6.51,14.46,11.47,29.17,14.81,44.11v-1.84h5.04Z"/>
            <path class="cls-52" d="M1929.4,337.85H2.3v2.35c3.3-14.76,8.2-29.31,14.64-43.61,12.87-28.59,31.85-56.17,56.29-82.44,48.88-52.54,119.62-99.86,207.03-139.6C455.08-4.92,696.59-54.08,963.36-54.08S1471.64-4.92,1646.46,74.56c87.41,39.74,158.15,87.06,207.03,139.6,24.44,26.27,43.42,53.85,56.29,82.44,6.43,14.3,11.34,28.84,14.64,43.61v-2.35h4.99Z"/>
            <path class="cls-98" d="M1918.3,337.85H13.35v2.87c3.26-14.59,8.11-28.98,14.47-43.11,12.72-28.26,31.48-55.52,55.64-81.49,48.32-51.94,118.25-98.72,204.65-138C460.92-.44,699.66-49.03,963.36-49.03S1465.79-.44,1638.61,78.13c86.41,39.28,156.33,86.06,204.65,138,24.16,25.97,42.92,53.23,55.64,81.49,6.36,14.13,11.21,28.51,14.47,43.11v-2.87h4.93Z"/>
            <path class="cls-127" d="M1907.2,337.85H24.4v3.39c3.22-14.42,8.02-28.64,14.3-42.61,12.57-27.93,31.12-54.88,55-80.55,47.76-51.34,116.87-97.57,202.27-136.39C466.77,4.05,702.73-43.98,963.36-43.98s496.59,48.03,667.39,125.68c85.4,38.83,154.51,85.06,202.27,136.39,23.88,25.67,42.42,52.61,55,80.55,6.29,13.97,11.08,28.18,14.3,42.61v-3.39h4.87Z"/>
            <path class="cls-23" d="M1896.09,337.85H35.44v3.9c3.18-14.26,7.92-28.3,14.13-42.1,12.42-27.6,30.75-54.23,54.35-79.6,47.2-50.73,115.5-96.42,199.89-134.79C472.61,8.53,705.79-38.93,963.36-38.93s490.75,47.46,659.54,124.2c84.4,38.37,152.69,84.06,199.89,134.79,23.6,25.37,41.92,51.99,54.35,79.6,6.21,13.8,10.95,27.85,14.13,42.1v-3.9h4.82Z"/>
            <path class="cls-134" d="M1884.99,337.85H46.49v4.42c3.15-14.09,7.83-27.96,13.97-41.6,12.28-27.28,30.38-53.59,53.7-78.65,46.64-50.13,114.12-95.27,197.51-133.18C478.45,13.01,708.86-33.89,963.36-33.89s484.91,46.9,651.69,122.72c83.39,37.91,150.88,83.06,197.51,133.18,23.32,25.06,41.43,51.37,53.7,78.65,6.14,13.64,10.82,27.52,13.97,41.6v-4.42h4.76Z"/>
            <path class="cls-16" d="M1873.88,337.85H57.54v4.94c3.11-13.92,7.73-27.63,13.8-41.1,12.13-26.95,30.02-52.94,53.05-77.7,46.08-49.52,112.75-94.12,195.13-131.58C484.29,17.5,711.92-28.84,963.36-28.84s479.07,46.33,643.84,121.24c82.39,37.46,149.06,82.05,195.13,131.58,23.04,24.76,40.93,50.76,53.05,77.7,6.06,13.47,10.69,27.19,13.8,41.1v-4.94h4.7Z"/>
            <path class="cls-16" d="M1862.78,337.85H68.58v5.45c3.07-13.75,7.64-27.29,13.63-40.6,11.98-26.62,29.65-52.29,52.41-76.76,45.51-48.92,111.37-92.98,192.75-129.97C490.14,21.98,714.99-23.79,963.36-23.79s473.22,45.77,635.99,119.76c81.38,37,147.24,81.05,192.75,129.97,22.76,24.46,40.43,50.14,52.41,76.76,5.99,13.31,10.56,26.85,13.63,40.6v-5.45h4.64Z"/>
            <path class="cls-43" d="M1851.68,337.85H79.63v5.97c3.03-13.58,7.54-26.95,13.46-40.1,11.83-26.29,29.29-51.65,51.76-75.81,44.95-48.32,110-91.83,190.37-128.37C495.98,26.46,718.06-18.74,963.36-18.74s467.38,45.2,628.14,118.29c80.38,36.54,145.42,80.05,190.37,128.37,22.48,24.16,39.93,49.52,51.76,75.81,5.92,13.14,10.43,26.52,13.46,40.1v-5.97h4.59Z"/>
            <path class="cls-10" d="M1840.57,337.85H90.67v6.48c2.99-13.41,7.45-26.62,13.29-39.6,11.69-25.96,28.92-51,51.11-74.86,44.39-47.71,108.62-90.68,187.99-126.76C501.82,30.95,721.12-13.69,963.36-13.69s461.54,44.64,620.28,116.81c79.37,36.08,143.6,79.05,187.99,126.76,22.19,23.86,39.43,48.9,51.11,74.86,5.84,12.98,10.3,26.19,13.29,39.6v-6.48h4.53Z"/>
            <path class="cls-95" d="M1829.47,337.85H101.72v7c2.96-13.24,7.36-26.28,13.12-39.1,11.54-25.63,28.55-50.36,50.47-73.91,43.83-47.11,107.25-89.53,185.61-125.16C507.66,35.43,724.19-8.64,963.36-8.64s455.7,44.07,612.43,115.33c78.37,35.63,141.79,78.05,185.61,125.16,21.91,23.55,38.93,48.28,50.47,73.91,5.77,12.82,10.17,25.86,13.12,39.1v-7h4.47Z"/>
            <path class="cls-26" d="M1818.37,337.85H112.77v7.52c2.92-13.07,7.26-25.94,12.96-38.6,11.39-25.3,28.19-49.71,49.82-72.96,43.27-46.5,105.87-88.38,183.23-123.56C513.5,39.91,727.26-3.6,963.36-3.6s449.85,43.51,604.58,113.85c77.36,35.17,139.97,77.05,183.23,123.56,21.63,23.25,38.43,47.66,49.82,72.96,5.69,12.65,10.04,25.53,12.96,38.6v-7.52h4.41Z"/>
            <path class="cls-71" d="M1807.26,337.85H123.81v8.03c2.88-12.9,7.17-25.61,12.79-38.09,11.24-24.98,27.82-49.07,49.17-72.02,42.7-45.9,104.5-87.24,180.86-121.95C519.35,44.39,730.32,1.45,963.36,1.45s444.01,42.94,596.73,112.37c76.36,34.71,138.15,76.05,180.86,121.95,21.35,22.95,37.93,47.04,49.17,72.02,5.62,12.49,9.91,25.2,12.79,38.09v-8.03h4.36Z"/>
            <path class="cls-152" d="M1796.16,337.85H134.86v8.55c2.84-12.73,7.07-25.27,12.62-37.59,11.09-24.65,27.45-48.42,48.53-71.07,42.14-45.3,103.12-86.09,178.48-120.35C525.19,48.88,733.39,6.5,963.36,6.5s438.17,42.38,588.88,110.89c75.35,34.26,136.33,75.05,178.48,120.35,21.07,22.65,37.43,46.42,48.53,71.07,5.55,12.32,9.78,24.86,12.62,37.59v-8.55h4.3Z"/>
            <path class="cls-104" d="M1785.05,337.85H145.91v9.06c2.81-12.56,6.98-24.93,12.45-37.09,10.95-24.32,27.09-47.78,47.88-70.12,41.58-44.69,101.75-84.94,176.1-118.74C531.03,53.36,736.46,11.55,963.36,11.55s432.33,41.81,581.03,109.41c74.35,33.8,134.52,74.05,176.1,118.74,20.79,22.35,36.93,45.8,47.88,70.12,5.47,12.16,9.65,24.53,12.45,37.09v-9.06h4.24Z"/>
            <path class="cls-35" d="M1773.95,337.85H156.95v9.58c2.77-12.39,6.88-24.6,12.28-36.59,10.8-23.99,26.72-47.13,47.23-69.17,41.02-44.09,100.37-83.79,173.72-117.14C536.87,57.84,739.52,16.6,963.36,16.6s426.49,41.25,573.17,107.94c73.34,33.34,132.7,73.05,173.72,117.14,20.51,22.04,36.43,45.18,47.23,69.17,5.4,11.99,9.52,24.2,12.28,36.59v-9.58h4.18Z"/>
            <path class="cls-91" d="M1762.85,337.85H168v10.1c2.73-12.22,6.79-24.26,12.12-36.09,10.65-23.66,26.36-46.48,46.58-68.23,40.46-43.48,99-82.65,171.34-115.53C542.72,62.33,742.59,21.64,963.36,21.64s420.64,40.68,565.32,106.46c72.34,32.89,130.88,72.05,171.34,115.53,20.23,21.74,35.93,44.57,46.58,68.23,5.32,11.83,9.39,23.87,12.12,36.09v-10.1h4.13Z"/>
            <path class="cls-161" d="M1751.74,337.85H179.05v10.61c2.69-12.05,6.7-23.92,11.95-35.59,10.5-23.33,25.99-45.84,45.94-67.28,39.89-42.88,97.62-81.5,168.96-113.93C548.56,66.81,745.65,26.69,963.36,26.69s414.8,40.12,557.47,104.98c71.33,32.43,129.06,71.05,168.96,113.93,19.95,21.44,35.44,43.95,45.94,67.28,5.25,11.67,9.26,23.54,11.95,35.59v-10.61h4.07Z"/>
            <path class="cls-107" d="M1740.64,337.85H190.09v11.13c2.65-11.88,6.6-23.58,11.78-35.09,10.35-23,25.62-45.19,45.29-66.33,39.33-42.28,96.25-80.35,166.58-112.32,140.66-63.95,334.98-103.5,549.62-103.5s408.96,39.55,549.62,103.5c70.33,31.97,127.24,70.05,166.58,112.32,19.67,21.14,34.94,43.33,45.29,66.33,5.18,11.5,9.12,23.21,11.78,35.09v-11.13h4.01Z"/>
            <path class="cls-107" d="M1729.53,337.85H201.14v11.65c2.62-11.71,6.51-23.25,11.61-34.59,10.21-22.68,25.26-44.55,44.64-65.38,38.77-41.67,94.87-79.2,164.2-110.72,138.65-63.03,330.19-102.02,541.77-102.02s403.12,38.99,541.77,102.02c69.33,31.52,125.43,69.05,164.2,110.72,19.39,20.84,34.44,42.71,44.64,65.38,5.1,11.34,8.99,22.88,11.61,34.59v-11.65h3.96Z"/>
            <path class="cls-73" d="M1718.43,337.85H212.19v12.16c2.58-11.54,6.41-22.91,11.44-34.08,10.06-22.35,24.89-43.9,44-64.44,38.21-41.07,93.5-78.05,161.82-109.11,136.64-62.12,325.41-100.54,533.92-100.54s397.27,38.42,533.92,100.54c68.32,31.06,123.61,68.05,161.82,109.11,19.1,20.53,33.94,42.09,44,64.44,5.03,11.17,8.86,22.54,11.44,34.08v-12.16h3.9Z"/>
            <path class="cls-73" d="M1707.33,337.85H223.23v12.68c2.54-11.37,6.32-22.57,11.27-33.58,9.91-22.02,24.53-43.26,43.35-63.49,37.65-40.46,92.12-76.91,159.44-107.51,134.63-61.21,320.62-99.06,526.06-99.06s391.43,37.86,526.06,99.06c67.32,30.6,121.79,67.04,159.44,107.51,18.82,20.23,33.44,41.47,43.35,63.49,4.96,11.01,8.73,22.21,11.27,33.58v-12.68h3.84Z"/>
            <path class="cls-15" d="M1696.22,337.85H234.28v13.19c2.5-11.2,6.22-22.24,11.11-33.08,9.76-21.69,24.16-42.61,42.7-62.54,37.08-39.86,90.75-75.76,157.06-105.9,132.62-60.29,315.84-97.59,518.21-97.59s385.59,37.29,518.21,97.59c66.31,30.15,119.97,66.04,157.06,105.9,18.54,19.93,32.94,40.85,42.7,62.54,4.88,10.84,8.6,21.88,11.11,33.08v-13.19h3.78Z"/>
            <path class="cls-15" d="M1685.12,337.85H245.33v13.71c2.46-11.03,6.13-21.9,10.94-32.58,9.61-21.36,23.79-41.97,42.06-61.59,36.52-39.26,89.37-74.61,154.68-104.3,130.61-59.38,311.05-96.11,510.36-96.11s379.75,36.73,510.36,96.11c65.31,29.69,118.16,65.04,154.68,104.3,18.26,19.63,32.44,40.23,42.06,61.59,4.81,10.68,8.47,21.55,10.94,32.58v-13.71h3.73Z"/>
            <path class="cls-15" d="M1674.01,337.85H256.37v14.23c2.43-10.86,6.04-21.56,10.77-32.08,9.47-21.03,23.43-41.32,41.41-60.65,35.96-38.65,88-73.46,152.3-102.7,128.6-58.47,306.27-94.63,502.51-94.63s373.91,36.16,502.51,94.63c64.3,29.23,116.34,64.04,152.3,102.7,17.98,19.33,31.94,39.61,41.41,60.65,4.73,10.52,8.34,21.22,10.77,32.08v-14.23h3.67Z"/>
            <path class="cls-159" d="M1662.91,337.85H267.42v14.74c2.39-10.69,5.94-21.23,10.6-31.58,9.32-20.7,23.06-40.67,40.76-59.7,35.4-38.05,86.62-72.31,149.92-101.09,126.59-57.55,301.48-93.15,494.66-93.15s368.06,35.6,494.66,93.15c63.3,28.78,114.52,63.04,149.92,101.09,17.7,19.02,31.44,39,40.76,59.7,4.66,10.35,8.21,20.89,10.6,31.58v-14.74h3.61Z"/>
            <path class="cls-48" d="M1651.81,337.85H278.47v15.26c2.35-10.52,5.85-20.89,10.43-31.08,9.17-20.37,22.7-40.03,40.11-58.75,34.84-37.45,85.25-71.17,147.54-99.49,124.58-56.64,296.7-91.67,486.8-91.67s362.22,35.03,486.8,91.67c62.29,28.32,112.7,62.04,147.54,99.49,17.42,18.72,30.94,38.38,40.11,58.75,4.59,10.19,8.08,20.55,10.43,31.08v-15.26h3.55Z"/>
            <path class="cls-105" d="M1640.7,337.85H289.51v15.77c2.31-10.35,5.75-20.55,10.26-30.58,9.02-20.05,22.33-39.38,39.47-57.8,34.28-36.84,83.87-70.02,145.16-97.88,122.57-55.73,291.91-90.19,478.95-90.19s356.38,34.47,478.95,90.19c61.29,27.86,110.88,61.04,145.16,97.88,17.14,18.42,30.44,37.76,39.47,57.8,4.51,10.02,7.95,20.22,10.26,30.58v-15.77h3.5Z"/>
            <path class="cls-76" d="M1629.6,337.85H300.56v16.29c2.27-10.18,5.66-20.22,10.1-30.07,8.87-19.72,21.96-38.74,38.82-56.86,33.71-36.24,82.5-68.87,142.78-96.28,120.57-54.81,287.12-88.71,471.1-88.71s350.54,33.9,471.1,88.71c60.28,27.41,109.07,60.04,142.78,96.28,16.86,18.12,29.95,37.14,38.82,56.86,4.44,9.86,7.82,19.89,10.1,30.07v-16.29h3.44Z"/>
            <path class="cls-162" d="M1618.49,337.85H311.61v16.81c2.24-10.01,5.56-19.88,9.93-29.57,8.73-19.39,21.6-38.09,38.17-55.91,33.15-35.63,81.12-67.72,140.4-94.67,118.56-53.9,282.34-87.24,463.25-87.24s344.69,33.34,463.25,87.24c59.28,26.95,107.25,59.04,140.4,94.67,16.58,17.82,29.45,36.52,38.17,55.91,4.36,9.69,7.69,19.56,9.93,29.57v-16.81h3.38Z"/>
            <path class="cls-44" d="M1607.39,337.85H322.65v17.32c2.2-9.84,5.47-19.54,9.76-29.07,8.58-19.06,21.23-37.45,37.53-54.96,32.59-35.03,79.75-66.58,138.02-93.07,116.55-52.99,277.55-85.76,455.4-85.76s338.85,32.77,455.4,85.76c58.27,26.49,105.43,58.04,138.02,93.07,16.29,17.51,28.95,35.9,37.53,54.96,4.29,9.53,7.56,19.23,9.76,29.07v-17.32h3.33Z"/>
            <path class="cls-46" d="M1596.29,337.85H333.7v17.84c2.16-9.67,5.38-19.2,9.59-28.57,8.43-18.73,20.87-36.8,36.88-54.01,32.03-34.43,78.37-65.43,135.64-91.46,114.54-52.07,272.77-84.28,447.55-84.28s333.01,32.21,447.55,84.28c57.27,26.04,103.61,57.04,135.64,91.46,16.01,17.21,28.45,35.28,36.88,54.01,4.22,9.37,7.43,18.9,9.59,28.57v-17.84h3.27Z"/>
            <path class="cls-46" d="M1585.18,337.85H344.75v18.35c2.12-9.5,5.28-18.87,9.42-28.07,8.28-18.4,20.5-36.15,36.23-53.07,31.47-33.82,77-64.28,133.26-89.86,112.53-51.16,267.98-82.8,439.69-82.8s327.17,31.64,439.69,82.8c56.26,25.58,101.8,56.04,133.26,89.86,15.73,16.91,27.95,34.66,36.23,53.07,4.14,9.2,7.3,18.57,9.42,28.07v-18.35h3.21Z"/>
            <path class="cls-46" d="M1574.08,337.85H355.79v18.87c2.08-9.33,5.19-18.53,9.25-27.57,8.14-18.07,20.13-35.51,35.59-52.12,30.9-33.22,75.62-63.13,130.88-88.25,110.52-50.24,263.2-81.32,431.84-81.32s321.32,31.08,431.84,81.32c55.26,25.12,99.98,55.04,130.88,88.25,15.45,16.61,27.45,34.04,35.59,52.12,4.07,9.04,7.17,18.23,9.25,27.57v-18.87h3.15Z"/>
            <path class="cls-131" d="M1562.97,337.85H366.84v19.39c2.05-9.16,5.09-18.19,9.09-27.07,7.99-17.75,19.77-34.86,34.94-51.17,30.34-32.61,74.25-61.98,128.5-86.65,108.51-49.33,258.41-79.84,423.99-79.84s315.48,30.51,423.99,79.84c54.25,24.67,98.16,54.04,128.5,86.65,15.17,16.31,26.95,33.42,34.94,51.17,3.99,8.87,7.04,17.9,9.09,27.07v-19.39h3.1Z"/>
            <path class="cls-131" d="M1551.87,337.85H377.89v19.9c2.01-8.99,5-17.86,8.92-26.57,7.84-17.42,19.4-34.22,34.29-50.22,29.78-32.01,72.87-60.84,126.12-85.04,106.5-48.42,253.63-78.36,416.14-78.36s309.64,29.95,416.14,78.36c53.25,24.21,96.34,53.04,126.12,85.04,14.89,16,26.45,32.81,34.29,50.22,3.92,8.71,6.91,17.57,8.92,26.57v-19.9h3.04Z"/>
            <path class="cls-166" d="M1540.77,337.85H388.93v20.42c1.97-8.82,4.9-17.52,8.75-26.06,7.69-17.09,19.04-33.57,33.64-49.27,29.22-31.41,71.5-59.69,123.74-83.44,104.49-47.5,248.84-76.89,408.29-76.89s303.8,29.38,408.29,76.89c52.24,23.75,94.52,52.03,123.74,83.44,14.61,15.7,25.95,32.19,33.64,49.27,3.85,8.54,6.78,17.24,8.75,26.06v-20.42h2.98Z"/>
            <path class="cls-88" d="M1529.66,337.85H399.98v20.94c1.93-8.65,4.81-17.18,8.58-25.56,7.54-16.76,18.67-32.93,33-48.33,28.66-30.8,70.12-58.54,121.36-81.84,102.48-46.59,244.06-75.41,400.44-75.41s297.96,28.82,400.44,75.41c51.24,23.3,92.71,51.03,121.36,81.84,14.33,15.4,25.45,31.57,33,48.33,3.77,8.38,6.65,16.91,8.58,25.56v-20.94h2.92Z"/>
            <path class="cls-88" d="M1518.56,337.85H411.03v21.45c1.9-8.49,4.72-16.85,8.41-25.06,7.4-16.43,18.3-32.28,32.35-47.38,28.09-30.2,68.75-57.39,118.98-80.23,100.47-45.68,239.27-73.93,392.58-73.93s292.11,28.25,392.58,73.93c50.24,22.84,90.89,50.03,118.98,80.23,14.05,15.1,24.95,30.95,32.35,47.38,3.7,8.22,6.52,16.58,8.41,25.06v-21.45h2.87Z"/>
            <path class="cls-88" d="M1507.45,337.85H422.07v21.97c1.86-8.32,4.62-16.51,8.24-24.56,7.25-16.1,17.94-31.64,31.7-46.43,27.53-29.59,67.37-56.24,116.6-78.63,98.46-44.76,234.49-72.45,384.73-72.45s286.27,27.69,384.73,72.45c49.23,22.38,89.07,49.03,116.6,78.63,13.77,14.8,24.46,30.33,31.7,46.43,3.62,8.05,6.39,16.25,8.24,24.56v-21.97h2.81Z"/>
            <path class="cls-88" d="M1496.35,337.85H433.12v22.48c1.82-8.15,4.53-16.17,8.08-24.06,7.1-15.77,17.57-30.99,31.06-45.48,26.97-28.99,66-55.1,114.22-77.02,96.45-43.85,229.7-70.97,376.88-70.97s280.43,27.12,376.88,70.97c48.23,21.92,87.25,48.03,114.22,77.02,13.49,14.49,23.96,29.71,31.06,45.48,3.55,7.89,6.26,15.91,8.08,24.06v-22.48h2.75Z"/>
            <path class="cls-37" d="M1485.25,337.85H444.17v23c1.78-7.98,4.43-15.84,7.91-23.56,6.95-15.45,17.21-30.34,30.41-44.54,26.41-28.39,64.62-53.95,111.84-75.42,94.44-42.94,224.91-69.49,369.03-69.49s274.59,26.56,369.03,69.49c47.22,21.47,85.44,47.03,111.84,75.42,13.2,14.19,23.46,29.09,30.41,44.54,3.48,7.72,6.13,15.58,7.91,23.56v-23h2.69Z"/>
            <path class="cls-37" d="M1474.14,337.85H462.95v.46c6.8-15.12,16.84-29.7,29.76-43.59,25.85-27.78,63.25-52.8,109.46-73.81,92.43-42.02,220.13-68.01,361.18-68.01s268.74,25.99,361.18,68.01c46.22,21.01,83.62,46.03,109.46,73.81,12.92,13.89,22.96,28.47,29.76,43.59v-.46h10.38Z"/>
            <path class="cls-19" d="M1463.04,337.85H473.83v1.48c6.66-14.79,16.47-29.05,29.12-42.64,25.29-27.18,61.87-51.65,107.09-72.21,90.42-41.11,215.34-66.54,353.33-66.54s262.9,25.43,353.33,66.54c45.21,20.55,81.8,45.03,107.09,72.21,12.64,13.59,22.46,27.85,29.12,42.64v-1.48h10.15Z"/>
            <path class="cls-19" d="M1451.93,337.85H484.71v2.49c6.51-14.46,16.11-28.41,28.47-41.69,24.72-26.57,60.5-50.51,104.71-70.6,88.41-40.2,210.56-65.06,345.47-65.06s257.06,24.86,345.47,65.06c44.21,20.1,79.98,44.03,104.71,70.6,12.36,13.29,21.96,27.23,28.47,41.69v-2.49h9.93Z"/>
            <path class="cls-39" d="M1440.83,337.85H495.59v3.51c6.36-14.13,15.74-27.76,27.82-40.75,24.16-25.97,59.12-49.36,102.33-69,86.41-39.28,205.77-63.58,337.62-63.58s251.22,24.3,337.62,63.58c43.2,19.64,78.16,43.03,102.33,69,12.08,12.99,21.46,26.62,27.82,40.75v-3.51h9.7Z"/>
            <path class="cls-39" d="M1429.73,337.85H506.47v4.53c6.21-13.8,15.37-27.12,27.17-39.8,23.6-25.37,57.75-48.21,99.95-67.39,84.4-38.37,200.99-62.1,329.77-62.1s245.38,23.73,329.77,62.1c42.2,19.18,76.35,42.03,99.95,67.39,11.8,12.68,20.96,26,27.17,39.8v-4.53h9.47Z"/>
            <path class="cls-17" d="M1418.62,337.85h-901.28v5.55c6.06-13.47,15.01-26.47,26.53-38.85,23.04-24.76,56.37-47.06,97.57-65.79,82.39-37.46,196.2-60.62,321.92-60.62s239.53,23.17,321.92,60.62c41.19,18.73,74.53,41.03,97.57,65.79,11.52,12.38,20.46,25.38,26.53,38.85v-5.55h9.25Z"/>
            <path class="cls-17" d="M1407.52,337.85h-879.29v6.56c5.92-13.14,14.64-25.82,25.88-37.9,22.48-24.16,55-45.91,95.19-64.18,80.38-36.54,191.42-59.14,314.07-59.14s233.69,22.6,314.07,59.14c40.19,18.27,72.71,40.03,95.19,64.18,11.24,12.08,19.96,24.76,25.88,37.9v-6.56h9.02Z"/>
            <path class="cls-17" d="M1396.41,337.85h-857.31v7.58c5.77-12.82,14.28-25.18,25.23-36.96,21.91-23.55,53.62-44.77,92.81-62.58,78.37-35.63,186.63-57.66,306.22-57.66s227.85,22.04,306.22,57.66c39.18,17.81,70.89,39.03,92.81,62.58,10.96,11.78,19.46,24.14,25.23,36.96v-7.58h8.8Z"/>
            <path class="cls-116" d="M1385.31,337.85h-835.33v8.6c5.62-12.49,13.91-24.53,24.59-36.01,21.35-22.95,52.25-43.62,90.43-60.98,76.36-34.71,181.85-56.19,298.36-56.19s222.01,21.47,298.36,56.19c38.18,17.36,69.08,38.03,90.43,60.98,10.68,11.48,18.97,23.52,24.59,36.01v-8.6h8.57Z"/>
            <path class="cls-116" d="M1374.21,337.85h-813.35v9.62c5.47-12.16,13.54-23.89,23.94-35.06,20.79-22.35,50.87-42.47,88.05-59.37,74.35-33.8,177.06-54.71,290.51-54.71s216.16,20.91,290.51,54.71c37.17,16.9,67.26,37.02,88.05,59.37,10.39,11.17,18.47,22.9,23.94,35.06v-9.62h8.35Z"/>
            <path class="cls-148" d="M1363.1,337.85h-791.36v10.63c5.32-11.83,13.18-23.24,23.29-34.11,20.23-21.74,49.5-41.32,85.67-57.77,72.34-32.89,172.27-53.23,282.66-53.23s210.32,20.34,282.66,53.23c36.17,16.44,65.44,36.02,85.67,57.77,10.11,10.87,17.97,22.28,23.29,34.11v-10.63h8.12Z"/>
            <path class="cls-87" d="M1352,337.85h-769.38v11.65c5.18-11.5,12.81-22.6,22.65-33.17,19.67-21.14,48.12-40.17,83.29-56.16,70.33-31.97,167.49-51.75,274.81-51.75s204.48,19.78,274.81,51.75c35.16,15.99,63.62,35.02,83.29,56.16,9.83,10.57,17.47,21.66,22.65,33.17v-11.65h7.9Z"/>
            <path class="cls-87" d="M1340.89,337.85h-747.4v12.67c5.03-11.17,12.45-21.95,22-32.22,19.1-20.53,46.75-39.03,80.91-54.56,68.32-31.06,162.7-50.27,266.96-50.27s198.64,19.21,266.96,50.27c34.16,15.53,61.8,34.02,80.91,54.56,9.55,10.27,16.97,21.04,22,32.22v-12.67h7.67Z"/>
            <path class="cls-87" d="M1329.79,337.85h-725.42v13.69c4.88-10.84,12.08-21.31,21.35-31.27,18.54-19.93,45.37-37.88,78.53-52.95,66.31-30.15,157.92-48.79,259.11-48.79s192.79,18.65,259.11,48.79c33.16,15.07,59.99,33.02,78.53,52.95,9.27,9.97,16.47,20.43,21.35,31.27v-13.69h7.44Z"/>
            <path class="cls-87" d="M1318.69,337.85h-703.44v14.7c4.73-10.52,11.71-20.66,20.7-30.32,17.98-19.33,44-36.73,76.15-51.35,64.3-29.23,153.13-47.31,251.25-47.31s186.95,18.08,251.25,47.31c32.15,14.62,58.17,32.02,76.15,51.35,8.99,9.66,15.97,19.81,20.7,30.32v-14.7h7.22Z"/>
            <path class="cls-24" d="M1307.58,337.85h-681.45v15.72c4.59-10.19,11.35-20.01,20.06-29.38,17.42-18.72,42.62-35.58,73.77-49.74,62.29-28.32,148.35-45.84,243.4-45.84s181.11,17.52,243.4,45.84c31.15,14.16,56.35,31.02,73.77,49.74,8.71,9.36,15.47,19.19,20.06,29.38v-15.72h6.99Z"/>
            <path class="cls-24" d="M1296.48,337.85h-659.47v16.74c4.44-9.86,10.98-19.37,19.41-28.43,16.86-18.12,41.25-34.44,71.39-48.14,60.28-27.41,143.56-44.36,235.55-44.36s175.27,16.95,235.55,44.36c30.14,13.7,54.53,30.02,71.39,48.14,8.43,9.06,14.97,18.57,19.41,28.43v-16.74h6.77Z"/>
            <path class="cls-24" d="M1285.37,337.85h-637.49v17.76c4.29-9.53,10.62-18.72,18.76-27.48,16.29-17.51,39.87-33.29,69.01-46.53,58.27-26.49,138.78-42.88,227.7-42.88s169.43,16.39,227.7,42.88c29.14,13.25,52.72,29.02,69.01,46.53,8.15,8.76,14.47,17.95,18.76,27.48v-17.76h6.54Z"/>
            <path class="cls-24" d="M1274.27,337.85h-615.51v18.77c4.14-9.2,10.25-18.08,18.12-26.53,15.73-16.91,38.5-32.14,66.63-44.93,56.26-25.58,133.99-41.4,219.85-41.4s163.58,15.82,219.85,41.4c28.13,12.79,50.9,28.02,66.63,44.93,7.87,8.46,13.97,17.33,18.12,26.53v-18.77h6.32Z"/>
            <path class="cls-66" d="M1263.17,337.85h-593.52v19.79c3.99-8.87,9.88-17.43,17.47-25.59,15.17-16.31,37.12-30.99,64.25-43.32,54.25-24.67,129.21-39.92,212-39.92s157.74,15.26,212,39.92c27.13,12.33,49.08,27.02,64.25,43.32,7.59,8.15,13.48,16.71,17.47,25.59v-19.79h6.09Z"/>
            <path class="cls-66" d="M1252.06,337.85h-571.54v20.81c3.85-8.54,9.52-16.79,16.82-24.64,14.61-15.7,35.75-29.84,61.87-41.72,52.24-23.75,124.42-38.44,204.14-38.44s151.9,14.69,204.14,38.44c26.12,11.88,47.26,26.02,61.87,41.72,7.3,7.85,12.98,16.09,16.82,24.64v-20.81h5.87Z"/>
            <path class="cls-66" d="M1240.96,337.85h-549.56v21.82c3.7-8.22,9.15-16.14,16.18-23.69,14.05-15.1,34.37-28.7,59.49-40.12,50.24-22.84,119.64-36.96,196.29-36.96s146.06,14.13,196.29,36.96c25.12,11.42,45.44,25.02,59.49,40.12,7.02,7.55,12.48,15.47,16.18,23.69v-21.82h5.64Z"/>
            <path class="cls-66" d="M1229.85,337.85h-512.05v.1c13.49-14.49,33-27.55,57.11-38.51,48.23-21.92,114.85-35.49,188.44-35.49s140.21,13.56,188.44,35.49c24.11,10.96,43.63,24.02,57.11,38.51v-.1h20.94Z"/>
            <path class="cls-66" d="M1218.75,337.85h-490.71v2.06c12.92-13.89,31.62-26.4,54.73-36.91,46.22-21.01,110.06-34.01,180.59-34.01s134.37,13,180.59,34.01c23.11,10.51,41.81,23.02,54.73,36.91v-2.06h20.07Z"/>
            <path class="cls-66" d="M1207.65,337.85h-469.38v4.03c12.36-13.29,30.25-25.25,52.35-35.3,44.21-20.1,105.28-32.53,172.74-32.53s128.53,12.43,172.74,32.53c22.1,10.05,39.99,22.01,52.35,35.3v-4.03h19.2Z"/>
            <path class="cls-66" d="M1196.54,337.85h-448.04v5.99c11.8-12.68,28.87-24.1,49.97-33.7,42.2-19.18,100.49-31.05,164.89-31.05s122.69,11.87,164.89,31.05c21.1,9.59,38.17,21.01,49.97,33.7v-5.99h18.32Z"/>
            <path class="cls-66" d="M1185.44,337.85h-426.71v7.96c11.24-12.08,27.5-22.96,47.59-32.09,40.19-18.27,95.71-29.57,157.03-29.57s116.85,11.3,157.03,29.57c20.09,9.14,36.36,20.01,47.59,32.09v-7.96h17.45Z"/>
            <path class="cls-168" d="M1174.33,337.85h-405.37v9.92c10.68-11.48,26.12-21.81,45.21-30.49,38.18-17.36,90.92-28.09,149.18-28.09s111,10.74,149.18,28.09c19.09,8.68,34.54,19.01,45.21,30.49v-9.92h16.58Z"/>
            <path class="cls-168" d="M1163.23,337.85h-384.04v11.89c10.11-10.87,24.75-20.66,42.83-28.88,36.17-16.44,86.14-26.61,141.33-26.61s105.16,10.17,141.33,26.61c18.08,8.22,32.72,18.01,42.83,28.88v-11.89h15.71Z"/>
            <path class="cls-168" d="M1152.13,337.85h-362.7v13.85c9.55-10.27,23.37-19.51,40.45-27.28,34.16-15.53,81.35-25.14,133.48-25.14s99.32,9.61,133.48,25.14c17.08,7.77,30.9,17.01,40.45,27.28v-13.85h14.83Z"/>
            <path class="cls-168" d="M1141.02,337.85h-341.37v15.82c8.99-9.66,22-18.37,38.07-25.67,32.15-14.62,76.57-23.66,125.63-23.66s93.48,9.04,125.63,23.66c16.08,7.31,29.08,16.01,38.07,25.67v-15.82h13.96Z"/>
            <path class="cls-168" d="M1129.92,337.85h-320.03v17.78c8.43-9.06,20.62-17.22,35.7-24.07,30.14-13.7,71.78-22.18,117.78-22.18s87.63,8.48,117.78,22.18c15.07,6.85,27.27,15.01,35.7,24.07v-17.78h13.09Z"/>
            <path class="cls-168" d="M1118.82,337.85h-298.69v19.75c7.87-8.46,19.25-16.07,33.32-22.46,28.13-12.79,67-20.7,109.92-20.7s81.79,7.91,109.92,20.7c14.07,6.39,25.45,14.01,33.32,22.46v-19.75h12.22Z"/>
            <path class="cls-168" d="M1107.71,337.85h-246.42v.85c26.12-11.88,62.21-19.22,102.07-19.22s75.95,7.35,102.07,19.22v-.85h42.28Z"/>
            <path class="cls-168" d="M1096.61,337.85h-227.47v4.42c24.11-10.96,57.42-17.74,94.22-17.74s70.11,6.78,94.22,17.74v-4.42h39.03Z"/>
            <path class="cls-168" d="M1085.5,337.85h-208.51v7.99c22.1-10.05,52.64-16.26,86.37-16.26s64.26,6.22,86.37,16.26v-7.99h35.78Z"/>
            <path class="cls-168" d="M1074.4,337.85h-189.56v11.56c20.09-9.14,47.85-14.79,78.52-14.79s58.42,5.65,78.52,14.79v-11.56h32.52Z"/>
          </g>
          <g class="cls-173">
            <g class="cls-170">
              <g class="cls-171">
                <rect class="cls-168" x="312.65" y="60.15" width="1533.58" height="417.67"/>
                <path class="cls-168" d="M1845.84,238.55c3.68,77.38-74.17,151.29-203.02,208.24-32.21,14.24-67.61,27.41-105.72,39.32v-3.95h-920.03v13.41c-133.67-44.46-218.18-110.65-221.86-188.03-3.68-77.38,74.17-151.29,203.02-208.24,64.42-28.47,141.59-52.71,227.69-71.01v27.53h798.06v-5.29c133.67,44.46,218.18,110.65,221.86,188.03Z"/>
                <path class="cls-154" d="M1841.46,238.76c3.66,76.91-73.73,150.37-201.79,206.98-32.02,14.15-67.2,27.25-105.08,39.08v-2.67h-914.48v12.07c-132.86-44.2-216.87-109.99-220.52-186.9-3.66-76.91,73.73-150.37,201.79-206.98,64.03-28.3,140.74-52.39,226.32-70.58v26.05h793.24v-3.95c132.86,44.2,216.87,109.99,220.52,186.9Z"/>
                <path class="cls-114" d="M1837.09,238.97c3.64,76.44-73.28,149.46-200.57,205.72-31.82,14.07-66.79,27.08-104.44,38.85v-1.38h-908.93v10.72c-132.05-43.93-215.55-109.32-219.19-185.76-3.64-76.44,73.28-149.46,200.57-205.72,63.65-28.13,139.88-52.07,224.95-70.16v24.58h788.43v-2.61c132.05,43.93,215.55,109.32,219.19,185.76Z"/>
                <path class="cls-93" d="M1832.71,239.18c3.61,75.98-72.83,148.55-199.34,204.47-31.63,13.98-66.39,26.92-103.8,38.61v-.09h-903.38v9.38c-131.25-43.66-214.23-108.65-217.85-184.63-3.61-75.98,72.83-148.55,199.34-204.47,63.26-27.96,139.03-51.75,223.57-69.73v23.1h783.61v-1.27c131.25,43.66,214.23,108.65,217.85,184.63Z"/>
                <path class="cls-21" d="M1828.34,239.38c3.59,75.51-72.38,147.64-198.12,203.21-62.87,27.79-138.18,51.44-222.2,69.3v-29.74h-778.8v8.04c-130.44-43.39-212.92-107.98-216.51-183.49-3.59-75.51,72.38-147.64,198.12-203.21,62.87-27.79,138.18-51.44,222.2-69.3v21.62h672.46v-28.33c38.12,8.04,73.73,17.56,106.34,28.41,130.44,43.39,212.92,107.98,216.51,183.49Z"/>
                <path class="cls-143" d="M1823.96,239.59c3.57,75.04-71.94,146.72-196.89,201.95-62.48,27.62-137.32,51.12-220.83,68.87v-28.26h-773.99v6.7c-129.64-43.12-211.6-107.32-215.17-182.36-3.57-75.04,71.94-146.72,196.89-201.95,62.48-27.62,137.32-51.12,220.83-68.87v20.15h668.3v-26.81c37.89,7.99,73.28,17.45,105.68,28.23,129.64,43.12,211.6,107.32,215.17,182.36Z"/>
                <path class="cls-83" d="M1819.58,239.8c3.55,74.58-71.49,145.81-195.67,200.7-62.09,27.44-136.47,50.8-219.45,68.44v-26.79h-769.17v5.36c-128.83-42.86-210.29-106.65-213.83-181.23-3.55-74.58,71.49-145.81,195.67-200.7,62.09-27.44,136.47-50.8,219.45-68.44v18.67h664.14v-25.3c37.65,7.94,72.82,17.34,105.03,28.06,128.83,42.86,210.29,106.65,213.83,181.23Z"/>
                <path class="cls-158" d="M1815.21,240.01c3.52,74.11-71.04,144.9-194.45,199.44-61.7,27.27-135.61,50.48-218.08,68.01v-25.31h-764.36v4.01c-128.02-42.59-208.97-105.98-212.49-180.09-3.52-74.11,71.04-144.9,194.45-199.44,61.7-27.27,135.61-50.48,218.08-68.01v17.19h659.99v-23.78c37.42,7.89,72.36,17.23,104.37,27.88,128.02,42.59,208.97,105.98,212.49,180.09Z"/>
                <path class="cls-99" d="M1810.83,240.22c3.5,73.64-70.59,143.99-193.22,198.19-61.31,27.1-134.76,50.16-216.71,67.59v-23.83h-759.54v2.67c-127.22-42.32-207.65-105.31-211.16-178.96-3.5-73.64,70.59-143.99,193.22-198.19,61.31-27.1,134.76-50.16,216.71-67.59v15.72h655.83v-22.26c37.18,7.84,71.91,17.13,103.71,27.71,127.22,42.32,207.65,105.31,211.16,178.96Z"/>
                <path class="cls-30" d="M1806.46,240.42c3.48,73.18-70.15,143.07-192,196.93-60.92,26.93-133.91,49.85-215.33,67.16v-22.36h-754.73v1.33c-126.41-42.05-206.34-104.65-209.82-177.82-3.48-73.18,70.15-143.07,192-196.93,60.92-26.93,133.91-49.85,215.33-67.16v14.24h651.67v-20.74c36.95,7.79,71.45,17.02,103.06,27.53,126.41,42.05,206.34,104.65,209.82,177.82Z"/>
                <path class="cls-142" d="M1802.08,240.63c3.46,72.71-69.7,142.16-190.77,195.67-60.54,26.76-133.05,49.53-213.96,66.73v-20.88h-647.52v27.34c-36.71-7.74-71-16.91-102.4-27.35-125.6-41.78-205.02-103.98-208.48-176.69-3.46-72.71,69.7-142.16,190.77-195.67,60.54-26.76,133.05-49.53,213.96-66.73v12.76h647.52v-19.23c36.71,7.74,71,16.91,102.4,27.35,125.6,41.78,205.02,103.98,208.48,176.69Z"/>
                <path class="cls-28" d="M1797.71,240.84c3.44,72.24-69.25,141.25-189.55,194.42-60.15,26.58-132.2,49.21-212.59,66.3v-19.4h-643.36v25.82c-36.47-7.69-70.54-16.8-101.74-27.18-124.8-41.51-203.71-103.31-207.14-175.55-3.44-72.24,69.25-141.25,189.55-194.42,60.15-26.58,132.2-49.21,212.59-66.3v11.29h643.36v-17.71c36.47,7.69,70.54,16.8,101.74,27.18,124.8,41.51,203.71,103.31,207.14,175.55Z"/>
                <path class="cls-121" d="M1793.33,241.05c3.41,71.77-68.8,140.34-188.32,193.16-59.76,26.41-131.34,48.89-211.21,65.87v-17.93h-639.2v24.31c-36.24-7.64-70.09-16.69-101.08-27-123.99-41.25-202.39-102.65-205.8-174.42-3.41-71.77,68.8-140.34,188.32-193.16,59.76-26.41,131.34-48.89,211.21-65.87v9.81h639.2v-16.19c36.24,7.64,70.09,16.69,101.08,27,123.99,41.25,202.39,102.65,205.8,174.42Z"/>
                <path class="cls-38" d="M1788.96,241.26c3.39,71.31-68.36,139.42-187.1,191.91-59.37,26.24-130.49,48.57-209.84,65.44v-16.45h-635.05v22.79c-36-7.59-69.63-16.58-100.43-26.83-123.19-40.98-201.07-101.98-204.46-173.29-3.39-71.31,68.36-139.42,187.1-191.91,59.37-26.24,130.49-48.57,209.84-65.44v8.34h635.05v-14.67c36,7.59,69.63,16.58,100.43,26.83,123.19,40.98,201.07,101.98,204.46,173.29Z"/>
                <path class="cls-42" d="M1784.58,241.46c3.37,70.84-67.91,138.51-185.87,190.65-58.98,26.07-129.64,48.26-208.47,65.02v-14.97h-630.89v21.27c-35.77-7.54-69.17-16.47-99.77-26.65-122.38-40.71-199.76-101.31-203.13-172.15-3.37-70.84,67.91-138.51,185.87-190.65,58.98-26.07,129.64-48.26,208.47-65.02v6.86h630.89v-13.15c35.77,7.54,69.17,16.47,99.77,26.65,122.38,40.71,199.76,101.31,203.13,172.15Z"/>
                <path class="cls-5" d="M1780.21,241.67c3.35,70.37-67.46,137.6-184.65,189.39-58.59,25.9-128.78,47.94-207.09,64.59v-13.5h-626.73v19.75c-35.53-7.49-68.72-16.37-99.11-26.48-121.57-40.44-198.44-100.64-201.79-171.02-3.35-70.37,67.46-137.6,184.65-189.39,58.59-25.9,128.78-47.94,207.09-64.59v5.38h513.56v-29.8c79.54,9.14,151.5,24.42,212.29,44.64,121.57,40.44,198.44,100.64,201.79,171.02Z"/>
                <path class="cls-123" d="M1775.83,241.88c3.32,69.91-67.01,136.69-183.42,188.14-58.2,25.73-127.93,47.62-205.72,64.16v-12.02h-622.58v18.23c-35.3-7.44-68.26-16.26-98.45-26.3-120.77-40.17-197.12-99.98-200.45-169.88-3.32-69.91,67.01-136.69,183.42-188.14,58.2-25.73,127.93-47.62,205.72-64.16v3.91h510.15v-28.17c79.01,9.08,150.5,24.26,210.88,44.35,120.77,40.17,197.12,99.98,200.45,169.88Z"/>
                <path class="cls-20" d="M1771.46,242.09c3.3,69.44-66.57,135.77-182.2,186.88-57.82,25.55-127.07,47.3-204.35,63.73v-10.55h-618.42v16.72c-35.06-7.39-67.81-16.15-97.8-26.13-119.96-39.91-195.81-99.31-199.11-168.75-3.3-69.44,66.57-135.77,182.2-186.88,57.82-25.55,127.07-47.3,204.35-63.73v2.43h506.75v-26.53c78.48,9.02,149.49,24.1,209.47,44.05,119.96,39.91,195.81,99.31,199.11,168.75Z"/>
                <path class="cls-58" d="M1767.08,242.3c3.28,68.97-66.12,134.86-180.97,185.63-57.43,25.38-126.22,46.98-202.97,63.3v-9.07h-614.27v15.2c-34.82-7.34-67.35-16.04-97.14-25.95-119.15-39.64-194.49-98.64-197.77-167.61-3.28-68.97,66.12-134.86,180.97-185.63,57.43-25.38,126.22-46.98,202.97-63.3v.95h503.34v-24.89c77.95,8.96,148.49,23.94,208.06,43.76,119.15,39.64,194.49,98.64,197.77,167.61Z"/>
                <path class="cls-69" d="M1762.71,242.5c3.26,68.51-65.67,133.95-179.75,184.37-57.04,25.21-125.37,46.67-201.6,62.87v-7.59h-610.11v13.68c-34.59-7.29-66.9-15.93-96.48-25.77-118.35-39.37-193.18-97.97-196.43-166.48-3.26-68.51,65.67-133.95,179.75-184.37,57.04-25.21,125.37-46.67,201.6-62.87,38.12-8.1,78.21-14.9,119.86-20.19v19.67h380.08v-23.25c77.43,8.9,147.48,23.78,206.65,43.46,118.35,39.37,193.18,97.97,196.43,166.48Z"/>
                <path class="cls-89" d="M1758.33,242.71c3.24,68.04-65.22,133.04-178.53,183.11-56.65,25.04-124.51,46.35-200.22,62.45v-6.12h-496.53v29.73c-76.9-8.84-146.48-23.61-205.25-43.16-117.54-39.1-191.86-97.31-195.1-165.35-6.47-136.08,273.84-259.98,626.09-276.73v29.17h249.19v-21.61c76.9,8.84,146.48,23.61,205.25,43.16,117.54,39.1,191.86,97.31,195.1,165.35Z"/>
                <path class="cls-3" d="M1753.96,242.92c3.21,67.57-64.78,132.12-177.3,181.86-56.26,24.87-123.66,46.03-198.85,62.02v-4.64h-493.12v28.09c-76.37-8.78-145.47-23.45-203.84-42.87-116.74-38.83-190.54-96.64-193.76-164.21-6.43-135.15,271.96-258.19,621.8-274.83v27.48h247.48v-19.97c76.37,8.78,145.47,23.45,203.84,42.87,116.74,38.83,190.54,96.64,193.76,164.21Z"/>
                <path class="cls-25" d="M1749.58,243.13c3.19,67.11-64.33,131.21-176.08,180.6-55.87,24.7-122.8,45.71-197.48,61.59v-3.16h-489.72v26.45c-75.84-8.72-144.47-23.29-202.43-42.57-115.93-38.56-189.23-95.97-192.42-163.08-6.38-134.22,270.08-256.41,617.5-272.93v25.79h245.77v-18.34c75.84,8.72,144.47,23.29,202.43,42.57,115.93,38.56,189.23,95.97,192.42,163.08Z"/>
                <path class="cls-65" d="M1745.21,243.34c3.17,66.64-63.88,130.3-174.85,179.35-55.48,24.52-121.95,45.4-196.1,61.16v-1.69h-486.31v24.81c-75.32-8.66-143.46-23.13-201.02-42.28-115.12-38.3-187.91-95.3-191.08-161.94-6.34-133.28,268.21-254.63,613.21-271.03v24.1h244.06v-16.7c75.32,8.66,143.46,23.13,201.02,42.28,115.12,38.3,187.91,95.3,191.08,161.94Z"/>
                <path class="cls-51" d="M1740.83,243.54c3.15,66.17-63.43,129.39-173.63,178.09-55.1,24.35-121.09,45.08-194.73,60.73v-.21h-482.91v23.17c-74.79-8.6-142.46-22.97-199.62-41.98-114.32-38.03-186.6-94.64-189.74-160.81-6.29-132.35,266.33-252.84,608.92-269.14v22.41h242.35v-15.06c74.79,8.6,142.46,22.97,199.62,41.98,114.32,38.03,186.6,94.64,189.74,160.81Z"/>
                <path class="cls-9" d="M1736.46,243.75c6.25,131.41-264.45,251.06-604.62,267.24v-28.83h-240.64v21.54c-74.26-8.54-141.45-22.8-198.21-41.68-113.51-37.76-185.28-93.97-188.4-159.68-6.25-131.41,264.45-251.06,604.62-267.24,170.09-8.09,325.34,11.22,438.85,48.98,113.51,37.76,185.28,93.97,188.4,159.68Z"/>
                <path class="cls-112" d="M1732.08,243.96c6.2,130.48-262.57,249.28-600.33,265.34v-27.14h-238.93v19.9c-73.73-8.48-140.45-22.64-196.8-41.39-112.7-37.49-183.96-93.3-187.07-158.54-6.2-130.48,262.57-249.28,600.33-265.34,168.88-8.03,323.03,11.14,435.73,48.63,112.7,37.49,183.96,93.3,187.07,158.54Z"/>
                <path class="cls-165" d="M1727.71,244.17c6.16,129.55-260.69,247.49-596.03,263.44v-25.45h-237.22v18.26c-73.21-8.42-139.44-22.48-195.39-41.09-111.9-37.22-182.65-92.63-185.73-157.41-6.16-129.55,260.69-247.49,596.03-263.44,167.67-7.97,320.71,11.06,432.61,48.29,111.9,37.22,182.65,92.63,185.73,157.41Z"/>
                <path class="cls-101" d="M1723.33,244.38c6.12,128.61-258.81,245.71-591.74,261.54v-23.76h-235.51v16.62c-72.68-8.35-138.44-22.32-193.98-40.8-111.09-36.95-181.33-91.97-184.39-156.27-6.12-128.61,258.81-245.71,591.74-261.54,166.46-7.92,318.4,10.98,429.49,47.94,111.09,36.95,181.33,91.97,184.39,156.27Z"/>
                <path class="cls-135" d="M1718.96,244.58c6.07,127.68-256.93,243.93-587.44,259.64-165.25,7.86-316.09-10.9-426.38-47.59-110.28-36.69-180.02-91.3-183.05-155.14-6.07-127.68,256.93-243.93,587.44-259.64,330.51-15.72,603.36,75.05,609.43,202.73Z"/>
                <path class="cls-164" d="M1714.58,244.79c6.03,126.75-255.06,242.14-583.15,257.75-164.05,7.8-313.78-10.82-423.26-47.24-109.48-36.42-178.7-90.63-181.71-154-6.03-126.75,255.06-242.14,583.15-257.75,328.09-15.6,598.95,74.5,604.97,201.25Z"/>
                <path class="cls-85" d="M1710.21,245c5.98,125.81-253.18,240.36-578.85,255.85-162.84,7.74-311.47-10.74-420.14-46.89-108.67-36.15-177.38-89.96-180.37-152.87-5.98-125.81,253.18-240.36,578.85-255.85,325.67-15.49,594.54,73.95,600.52,199.76Z"/>
                <path class="cls-59" d="M1705.83,245.21c5.94,124.88-251.3,238.58-574.56,253.95-161.63,7.69-309.16-10.66-417.03-46.55-107.87-35.88-176.07-89.3-179.04-151.74-5.94-124.88,251.3-238.58,574.56-253.95,323.26-15.37,590.12,73.4,596.06,198.28Z"/>
                <path class="cls-54" d="M1701.46,245.42c5.89,123.95-249.42,236.79-570.26,252.05-160.42,7.63-306.85-10.58-413.91-46.2-107.06-35.61-174.75-88.63-177.7-150.6-5.89-123.95,249.42-236.79,570.26-252.05,320.84-15.26,585.71,72.85,591.61,196.8Z"/>
                <ellipse class="cls-137" cx="1120.52" cy="273.04" rx="577.21" ry="222.99" transform="translate(-11.7 53.53) rotate(-2.72)"/>
                <ellipse class="cls-68" cx="1120.52" cy="273.04" rx="572.83" ry="221.3" transform="translate(-11.7 53.53) rotate(-2.72)"/>
                <ellipse class="cls-117" cx="1120.52" cy="273.04" rx="568.45" ry="219.6" transform="translate(-11.7 53.53) rotate(-2.72)"/>
                <ellipse class="cls-97" cx="1120.52" cy="273.04" rx="564.07" ry="217.91" transform="translate(-11.7 53.53) rotate(-2.72)"/>
                <ellipse class="cls-124" cx="1120.52" cy="273.04" rx="559.69" ry="216.22" transform="translate(-11.7 53.53) rotate(-2.72)"/>
                <ellipse class="cls-67" cx="1120.52" cy="273.04" rx="555.31" ry="214.53" transform="translate(-11.7 53.53) rotate(-2.72)"/>
                <ellipse class="cls-62" cx="1120.52" cy="273.04" rx="550.93" ry="212.83" transform="translate(-11.7 53.53) rotate(-2.72)"/>
                <ellipse class="cls-103" cx="1120.52" cy="273.04" rx="546.55" ry="211.14" transform="translate(-11.7 53.53) rotate(-2.72)"/>
                <ellipse class="cls-146" cx="1120.52" cy="273.04" rx="542.17" ry="209.45" transform="translate(-11.7 53.53) rotate(-2.72)"/>
                <ellipse class="cls-50" cx="1120.52" cy="273.04" rx="537.79" ry="207.76" transform="translate(-11.7 53.53) rotate(-2.72)"/>
                <ellipse class="cls-110" cx="1120.52" cy="273.04" rx="533.41" ry="206.07" transform="translate(-11.7 53.53) rotate(-2.72)"/>
                <ellipse class="cls-102" cx="1120.52" cy="273.04" rx="529.03" ry="204.37" transform="translate(-11.7 53.53) rotate(-2.72)"/>
                <ellipse class="cls-70" cx="1120.52" cy="273.04" rx="524.65" ry="202.68" transform="translate(-11.7 53.53) rotate(-2.72)"/>
                <ellipse class="cls-61" cx="1120.52" cy="273.04" rx="520.27" ry="200.99" transform="translate(-11.7 53.53) rotate(-2.72)"/>
                <ellipse class="cls-80" cx="1120.52" cy="273.04" rx="515.89" ry="199.3" transform="translate(-11.7 53.53) rotate(-2.72)"/>
                <ellipse class="cls-31" cx="1120.52" cy="273.04" rx="511.51" ry="197.61" transform="translate(-11.7 53.53) rotate(-2.72)"/>
                <ellipse class="cls-139" cx="1120.52" cy="273.04" rx="507.13" ry="195.91" transform="translate(-11.7 53.53) rotate(-2.72)"/>
                <ellipse class="cls-139" cx="1120.52" cy="273.04" rx="502.75" ry="194.22" transform="translate(-11.7 53.53) rotate(-2.72)"/>
                <ellipse class="cls-7" cx="1120.52" cy="273.04" rx="498.37" ry="192.53" transform="translate(-11.7 53.53) rotate(-2.72)"/>
                <ellipse class="cls-167" cx="1120.52" cy="273.04" rx="493.99" ry="190.84" transform="translate(-11.7 53.53) rotate(-2.72)"/>
                <ellipse class="cls-163" cx="1120.52" cy="273.04" rx="489.61" ry="189.15" transform="translate(-11.7 53.53) rotate(-2.72)"/>
                <ellipse class="cls-113" cx="1120.52" cy="273.04" rx="485.23" ry="187.45" transform="translate(-11.7 53.53) rotate(-2.72)"/>
                <ellipse class="cls-140" cx="1120.52" cy="273.04" rx="480.85" ry="185.76" transform="translate(-11.7 53.53) rotate(-2.72)"/>
                <ellipse class="cls-133" cx="1120.52" cy="273.04" rx="476.47" ry="184.07" transform="translate(-11.7 53.53) rotate(-2.72)"/>
                <ellipse class="cls-128" cx="1120.52" cy="273.04" rx="472.09" ry="182.38" transform="translate(-11.7 53.53) rotate(-2.72)"/>
                <ellipse class="cls-100" cx="1120.52" cy="273.04" rx="467.71" ry="180.68" transform="translate(-11.7 53.53) rotate(-2.72)"/>
                <ellipse class="cls-82" cx="1120.52" cy="273.04" rx="463.33" ry="178.99" transform="translate(-11.7 53.53) rotate(-2.72)"/>
                <ellipse class="cls-13" cx="1120.52" cy="273.04" rx="458.95" ry="177.3" transform="translate(-11.7 53.53) rotate(-2.72)"/>
                <ellipse class="cls-29" cx="1120.52" cy="273.04" rx="454.57" ry="175.61" transform="translate(-11.7 53.53) rotate(-2.72)"/>
                <ellipse class="cls-153" cx="1120.52" cy="273.04" rx="450.19" ry="173.92" transform="translate(-11.7 53.53) rotate(-2.72)"/>
                <ellipse class="cls-49" cx="1120.52" cy="273.04" rx="445.81" ry="172.22" transform="translate(-11.7 53.53) rotate(-2.72)"/>
                <ellipse class="cls-49" cx="1120.52" cy="273.04" rx="441.43" ry="170.53" transform="translate(-11.7 53.53) rotate(-2.72)"/>
                <ellipse class="cls-144" cx="1120.52" cy="273.04" rx="437.05" ry="168.84" transform="translate(-11.7 53.53) rotate(-2.72)"/>
                <ellipse class="cls-149" cx="1120.52" cy="273.04" rx="432.67" ry="167.15" transform="translate(-11.7 53.53) rotate(-2.72)"/>
                <ellipse class="cls-145" cx="1120.52" cy="273.04" rx="428.29" ry="165.46" transform="translate(-11.7 53.53) rotate(-2.72)"/>
                <ellipse class="cls-56" cx="1120.52" cy="273.04" rx="423.91" ry="163.76" transform="translate(-11.7 53.53) rotate(-2.72)"/>
                <ellipse class="cls-96" cx="1120.52" cy="273.04" rx="419.53" ry="162.07" transform="translate(-11.7 53.53) rotate(-2.72)"/>
                <ellipse class="cls-74" cx="1120.52" cy="273.04" rx="415.15" ry="160.38" transform="translate(-11.7 53.53) rotate(-2.72)"/>
                <ellipse class="cls-11" cx="1120.52" cy="273.04" rx="410.77" ry="158.69" transform="translate(-11.7 53.53) rotate(-2.72)"/>
                <ellipse class="cls-11" cx="1120.52" cy="273.04" rx="406.39" ry="157" transform="translate(-11.7 53.53) rotate(-2.72)"/>
                <ellipse class="cls-84" cx="1120.52" cy="273.04" rx="402.01" ry="155.3" transform="translate(-11.7 53.53) rotate(-2.72)"/>
                <ellipse class="cls-41" cx="1120.52" cy="273.04" rx="397.63" ry="153.61" transform="translate(-11.7 53.53) rotate(-2.72)"/>
                <ellipse class="cls-41" cx="1120.52" cy="273.04" rx="393.25" ry="151.92" transform="translate(-11.7 53.53) rotate(-2.72)"/>
                <ellipse class="cls-6" cx="1120.52" cy="273.04" rx="388.87" ry="150.23" transform="translate(-11.7 53.53) rotate(-2.72)"/>
                <ellipse class="cls-92" cx="1120.52" cy="273.04" rx="384.49" ry="148.53" transform="translate(-11.7 53.53) rotate(-2.72)"/>
                <ellipse class="cls-141" cx="1120.52" cy="273.04" rx="380.11" ry="146.84" transform="translate(-11.7 53.53) rotate(-2.72)"/>
                <ellipse class="cls-141" cx="1120.52" cy="273.04" rx="375.73" ry="145.15" transform="translate(-11.7 53.53) rotate(-2.72)"/>
                <ellipse class="cls-141" cx="1120.52" cy="273.04" rx="371.35" ry="143.46" transform="translate(-11.7 53.53) rotate(-2.72)"/>
                <ellipse class="cls-118" cx="1120.52" cy="273.04" rx="366.97" ry="141.77" transform="translate(-11.7 53.53) rotate(-2.72)"/>
                <ellipse class="cls-126" cx="1120.52" cy="273.04" rx="362.59" ry="140.07" transform="translate(-11.7 53.53) rotate(-2.72)"/>
                <ellipse class="cls-79" cx="1120.52" cy="273.04" rx="358.21" ry="138.38" transform="translate(-11.7 53.53) rotate(-2.72)"/>
                <ellipse class="cls-45" cx="1120.52" cy="273.04" rx="353.83" ry="136.69" transform="translate(-11.7 53.53) rotate(-2.72)"/>
                <ellipse class="cls-136" cx="1120.52" cy="273.04" rx="349.45" ry="135" transform="translate(-11.7 53.53) rotate(-2.72)"/>
                <ellipse class="cls-136" cx="1120.52" cy="273.04" rx="345.07" ry="133.31" transform="translate(-11.7 53.53) rotate(-2.72)"/>
                <ellipse class="cls-33" cx="1120.52" cy="273.04" rx="340.69" ry="131.61" transform="translate(-11.7 53.53) rotate(-2.72)"/>
                <ellipse class="cls-77" cx="1120.52" cy="273.04" rx="336.31" ry="129.92" transform="translate(-11.7 53.53) rotate(-2.72)"/>
                <ellipse class="cls-77" cx="1120.52" cy="273.04" rx="331.93" ry="128.23" transform="translate(-11.7 53.53) rotate(-2.72)"/>
                <ellipse class="cls-119" cx="1120.52" cy="273.04" rx="327.55" ry="126.54" transform="translate(-11.7 53.53) rotate(-2.72)"/>
                <ellipse class="cls-1" cx="1120.52" cy="273.04" rx="323.17" ry="124.85" transform="translate(-11.7 53.53) rotate(-2.72)"/>
                <ellipse class="cls-1" cx="1120.52" cy="273.04" rx="318.79" ry="123.15" transform="translate(-11.7 53.53) rotate(-2.72)"/>
                <ellipse class="cls-109" cx="1120.52" cy="273.04" rx="314.41" ry="121.46" transform="translate(-11.7 53.53) rotate(-2.72)"/>
                <ellipse class="cls-109" cx="1120.52" cy="273.04" rx="310.03" ry="119.77" transform="translate(-11.7 53.53) rotate(-2.72)"/>
                <ellipse class="cls-122" cx="1120.52" cy="273.04" rx="305.65" ry="118.08" transform="translate(-11.7 53.53) rotate(-2.72)"/>
                <ellipse class="cls-122" cx="1120.52" cy="273.04" rx="301.27" ry="116.38" transform="translate(-11.7 53.53) rotate(-2.72)"/>
                <ellipse class="cls-78" cx="1120.52" cy="273.04" rx="296.89" ry="114.69" transform="translate(-11.7 53.53) rotate(-2.72)"/>
                <ellipse class="cls-78" cx="1120.52" cy="273.04" rx="292.51" ry="113" transform="translate(-11.7 53.53) rotate(-2.72)"/>
                <ellipse class="cls-40" cx="1120.52" cy="273.04" rx="288.13" ry="111.31" transform="translate(-11.7 53.53) rotate(-2.72)"/>
                <ellipse class="cls-40" cx="1120.52" cy="273.04" rx="283.75" ry="109.62" transform="translate(-11.7 53.53) rotate(-2.72)"/>
                <ellipse class="cls-94" cx="1120.52" cy="273.04" rx="279.37" ry="107.92" transform="translate(-11.7 53.53) rotate(-2.72)"/>
                <ellipse class="cls-53" cx="1120.52" cy="273.04" rx="274.99" ry="106.23" transform="translate(-11.7 53.53) rotate(-2.72)"/>
                <ellipse class="cls-132" cx="1120.52" cy="273.04" rx="270.61" ry="104.54" transform="translate(-11.7 53.53) rotate(-2.72)"/>
                <ellipse class="cls-132" cx="1120.52" cy="273.04" rx="266.23" ry="102.85" transform="translate(-11.7 53.53) rotate(-2.72)"/>
                <ellipse class="cls-132" cx="1120.52" cy="273.04" rx="261.85" ry="101.16" transform="translate(-11.7 53.53) rotate(-2.72)"/>
                <ellipse class="cls-151" cx="1120.52" cy="273.04" rx="257.47" ry="99.46" transform="translate(-11.7 53.53) rotate(-2.72)"/>
                <ellipse class="cls-151" cx="1120.52" cy="273.04" rx="253.09" ry="97.77" transform="translate(-11.7 53.53) rotate(-2.72)"/>
                <ellipse class="cls-106" cx="1120.52" cy="273.04" rx="248.71" ry="96.08" transform="translate(-11.7 53.53) rotate(-2.72)"/>
                <ellipse class="cls-106" cx="1120.52" cy="273.04" rx="244.33" ry="94.39" transform="translate(-11.7 53.53) rotate(-2.72)"/>
                <ellipse class="cls-106" cx="1120.52" cy="273.04" rx="239.95" ry="92.7" transform="translate(-11.7 53.53) rotate(-2.72)"/>
                <ellipse class="cls-106" cx="1120.52" cy="273.04" rx="235.57" ry="91" transform="translate(-11.7 53.53) rotate(-2.72)"/>
                <ellipse class="cls-106" cx="1120.52" cy="273.04" rx="231.19" ry="89.31" transform="translate(-11.7 53.53) rotate(-2.72)"/>
                <ellipse class="cls-106" cx="1120.52" cy="273.04" rx="226.81" ry="87.62" transform="translate(-11.7 53.53) rotate(-2.72)"/>
                <ellipse class="cls-106" cx="1120.52" cy="273.04" rx="222.43" ry="85.93" transform="translate(-11.7 53.53) rotate(-2.72)"/>
                <ellipse class="cls-47" cx="1120.52" cy="273.04" rx="218.05" ry="84.23" transform="translate(-11.7 53.53) rotate(-2.72)"/>
                <ellipse class="cls-47" cx="1120.52" cy="273.04" rx="213.67" ry="82.54" transform="translate(-11.7 53.53) rotate(-2.72)"/>
                <ellipse class="cls-47" cx="1120.52" cy="273.04" rx="209.29" ry="80.85" transform="translate(-11.7 53.53) rotate(-2.72)"/>
                <ellipse class="cls-47" cx="1120.52" cy="273.04" rx="204.9" ry="79.16" transform="translate(-11.7 53.53) rotate(-2.72)"/>
                <ellipse class="cls-130" cx="1120.52" cy="273.04" rx="200.52" ry="77.47" transform="translate(-11.7 53.53) rotate(-2.72)"/>
                <ellipse class="cls-130" cx="1120.52" cy="273.04" rx="196.14" ry="75.77" transform="translate(-11.7 53.53) rotate(-2.72)"/>
                <ellipse class="cls-130" cx="1120.52" cy="273.04" rx="191.76" ry="74.08" transform="translate(-11.7 53.53) rotate(-2.72)"/>
                <ellipse class="cls-130" cx="1120.52" cy="273.04" rx="187.38" ry="72.39" transform="translate(-11.7 53.53) rotate(-2.72)"/>
                <ellipse class="cls-130" cx="1120.52" cy="273.04" rx="183" ry="70.7" transform="translate(-11.7 53.53) rotate(-2.72)"/>
                <ellipse class="cls-55" cx="1120.52" cy="273.04" rx="178.62" ry="69.01" transform="translate(-11.7 53.53) rotate(-2.72)"/>
                <ellipse class="cls-55" cx="1120.52" cy="273.04" rx="174.24" ry="67.31" transform="translate(-11.7 53.53) rotate(-2.72)"/>
                <ellipse class="cls-55" cx="1120.52" cy="273.04" rx="169.86" ry="65.62" transform="translate(-11.7 53.53) rotate(-2.72)"/>
                <ellipse class="cls-55" cx="1120.52" cy="273.04" rx="165.48" ry="63.93" transform="translate(-11.7 53.53) rotate(-2.72)"/>
                <ellipse class="cls-55" cx="1120.52" cy="273.04" rx="161.1" ry="62.24" transform="translate(-11.7 53.53) rotate(-2.72)"/>
                <ellipse class="cls-55" cx="1120.52" cy="273.04" rx="156.72" ry="60.55" transform="translate(-11.7 53.53) rotate(-2.72)"/>
                <ellipse class="cls-32" cx="1120.52" cy="273.04" rx="152.34" ry="58.85" transform="translate(-11.7 53.53) rotate(-2.72)"/>
                <ellipse class="cls-12" cx="1120.52" cy="273.04" rx="147.96" ry="57.16" transform="translate(-11.7 53.53) rotate(-2.72)"/>
                <ellipse class="cls-12" cx="1120.52" cy="273.04" rx="143.58" ry="55.47" transform="translate(-11.7 53.53) rotate(-2.72)"/>
                <ellipse class="cls-12" cx="1120.52" cy="273.04" rx="139.2" ry="53.78" transform="translate(-11.7 53.53) rotate(-2.72)"/>
                <ellipse class="cls-12" cx="1120.52" cy="273.04" rx="134.82" ry="52.08" transform="translate(-11.7 53.53) rotate(-2.72)"/>
                <ellipse class="cls-12" cx="1120.52" cy="273.04" rx="130.44" ry="50.39" transform="translate(-11.7 53.53) rotate(-2.72)"/>
                <ellipse class="cls-12" cx="1120.52" cy="273.04" rx="126.06" ry="48.7" transform="translate(-11.7 53.53) rotate(-2.72)"/>
                <ellipse class="cls-12" cx="1120.52" cy="273.04" rx="121.68" ry="47.01" transform="translate(-11.7 53.53) rotate(-2.72)"/>
                <ellipse class="cls-12" cx="1120.52" cy="273.04" rx="117.3" ry="45.32" transform="translate(-11.7 53.53) rotate(-2.72)"/>
                <ellipse class="cls-12" cx="1120.52" cy="273.04" rx="112.92" ry="43.62" transform="translate(-11.7 53.53) rotate(-2.72)"/>
                <ellipse class="cls-36" cx="1120.52" cy="273.04" rx="108.54" ry="41.93" transform="translate(-11.7 53.53) rotate(-2.72)"/>
                <ellipse class="cls-36" cx="1120.52" cy="273.04" rx="104.16" ry="40.24" transform="translate(-11.7 53.53) rotate(-2.72)"/>
                <ellipse class="cls-36" cx="1120.52" cy="273.04" rx="99.78" ry="38.55" transform="translate(-11.7 53.53) rotate(-2.72)"/>
                <ellipse class="cls-36" cx="1120.52" cy="273.04" rx="95.4" ry="36.86" transform="translate(-11.7 53.53) rotate(-2.72)"/>
                <ellipse class="cls-36" cx="1120.52" cy="273.04" rx="91.02" ry="35.16" transform="translate(-11.7 53.53) rotate(-2.72)"/>
                <ellipse class="cls-36" cx="1120.52" cy="273.04" rx="86.64" ry="33.47" transform="translate(-11.7 53.53) rotate(-2.72)"/>
                <ellipse class="cls-36" cx="1120.52" cy="273.04" rx="82.26" ry="31.78" transform="translate(-11.7 53.53) rotate(-2.72)"/>
                <ellipse class="cls-36" cx="1120.52" cy="273.04" rx="77.88" ry="30.09" transform="translate(-11.7 53.53) rotate(-2.72)"/>
                <ellipse class="cls-36" cx="1120.52" cy="273.04" rx="73.5" ry="28.4" transform="translate(-11.7 53.53) rotate(-2.72)"/>
                <ellipse class="cls-36" cx="1120.52" cy="273.04" rx="69.12" ry="26.7" transform="translate(-11.7 53.53) rotate(-2.72)"/>
                <ellipse class="cls-36" cx="1120.52" cy="273.04" rx="64.74" ry="25.01" transform="translate(-11.7 53.53) rotate(-2.72)"/>
                <ellipse class="cls-36" cx="1120.52" cy="273.04" rx="60.36" ry="23.32" transform="translate(-11.7 53.53) rotate(-2.72)"/>
                <ellipse class="cls-36" cx="1120.52" cy="273.04" rx="55.98" ry="21.63" transform="translate(-11.7 53.53) rotate(-2.72)"/>
                <ellipse class="cls-36" cx="1120.52" cy="273.04" rx="51.6" ry="19.93" transform="translate(-11.7 53.53) rotate(-2.72)"/>
                <ellipse class="cls-36" cx="1120.52" cy="273.04" rx="47.22" ry="18.24" transform="translate(-11.7 53.53) rotate(-2.72)"/>
                <ellipse class="cls-36" cx="1120.52" cy="273.04" rx="42.84" ry="16.55" transform="translate(-11.7 53.53) rotate(-2.72)"/>
                <ellipse class="cls-36" cx="1120.52" cy="273.04" rx="38.46" ry="14.86" transform="translate(-11.7 53.53) rotate(-2.72)"/>
                <ellipse class="cls-36" cx="1120.52" cy="273.04" rx="34.08" ry="13.17" transform="translate(-11.7 53.53) rotate(-2.72)"/>
                <ellipse class="cls-36" cx="1120.52" cy="273.04" rx="29.7" ry="11.47" transform="translate(-11.7 53.53) rotate(-2.72)"/>
                <ellipse class="cls-36" cx="1120.52" cy="273.04" rx="25.32" ry="9.78" transform="translate(-11.7 53.53) rotate(-2.72)"/>
                <ellipse class="cls-36" cx="1120.52" cy="273.04" rx="20.94" ry="8.09" transform="translate(-11.7 53.53) rotate(-2.72)"/>
                <ellipse class="cls-36" cx="1120.52" cy="273.04" rx="16.56" ry="6.4" transform="translate(-11.7 53.53) rotate(-2.72)"/>
                <ellipse class="cls-36" cx="1120.52" cy="273.04" rx="12.18" ry="4.71" transform="translate(-11.7 53.53) rotate(-2.72)"/>
                <ellipse class="cls-36" cx="1120.52" cy="273.04" rx="7.8" ry="3.01" transform="translate(-11.7 53.53) rotate(-2.72)"/>
              </g>
            </g>
          </g>
        </g>
        <g>
          <path class="cls-81" d="M1440.86,474.39l-53.35,74.68h-52.93l190.77-262.19-8.23-15.62h125.43l45.98,277.81h-113.89l-11.83-74.68h-121.96ZM1556.07,428.39l-16.13-93.73-65.93,93.73h82.05Z"/>
          <polygon class="cls-81" points="613.55 503.07 580.24 503.07 488.22 503.07 506.83 428.39 582.36 428.39 601.84 428.39 613.4 382.39 593.83 382.39 518.31 382.39 534.55 317.28 620.91 317.28 660.24 317.28 671.8 271.26 441.07 271.26 371.27 549.07 601.99 549.07 613.55 503.07"/>
          <path class="cls-81" d="M890.21,503.07h-104.83c-13.9,0-19.77-4.38-16.4-17.82l37.46-150.19c3.32-13.43,11.36-17.78,25.25-17.78h105.2l11.56-46.02h-161.71c-45.16,0-75.74,21.7-90.67,81.58l-28.6,114.63c-14.91,59.89,4.83,81.6,49.99,81.6h161.17l11.56-46Z"/>
          <polygon class="cls-81" points="1237.82 271.26 1142.12 428.83 1141.25 428.83 1127.57 271.26 993.4 271.26 923.61 549.07 968.97 549.07 1023.42 330.27 1024.29 330.27 1044.42 549.07 1117.79 549.07 1249.15 330.27 1250.02 330.27 1195.3 549.07 1300.35 549.07 1370.16 271.26 1237.82 271.26"/>
          <polygon class="cls-81" points="397.46 271.26 129.27 271.26 117.71 317.28 194.22 317.28 136.41 549.07 241.87 549.07 300.18 317.01 385.9 317.26 397.46 271.26"/>
        </g>
      </g>
      <g>
        <rect class="cls-156" x="172.95" y="743.61" width="1385" height="162.37" rx="81.19" ry="81.19"/>
        <text class="cls-169" transform="translate(682.34 885.72)"><tspan x="0" y="0">M</tspan><tspan class="cls-172" x="136.91" y="0"></tspan><tspan class="cls-175" x="254.87" y="0">V</tspan><tspan x="362.65" y="0">IL</tspan></text>
        <circle class="cls-155" cx="299.33" cy="826.31" r="126.37"/>
        <path class="cls-138" d="M386.32,791.64c-2.28-5.39-7.09-9.32-14.3-11.68-6.24-2.05-14.14-2.86-23.48-2.43-18.61.87-41.3,6.62-63.9,16.18-8.07,3.42-15.8,7.18-23.03,11.19-2.52-10.06-4.05-19.62-4.45-28.22-.73-15.58,2.48-26.43,8.59-29.01,6.67-2.82,17.5,3.47,28.91,16.35l-15.17,7.46,32.8,11.18,11.18-32.8-20.39,10.02c-15.11-17.82-29.73-25.28-40.87-20.57-5.39,2.28-9.32,7.09-11.68,14.3-2.05,6.24-2.86,14.14-2.43,23.48.46,9.9,2.31,20.96,5.37,32.54-9.62,5.91-18.09,12.23-24.94,18.66-6.82,6.4-11.74,12.64-14.61,18.55-3.32,6.83-3.85,13.02-1.57,18.4,3.95,9.32,15.65,14.23,33.06,14.23,5.86,0,12.36-.56,19.43-1.68l-1.43-8.96c-22.59,3.61-39.35.81-42.71-7.13-2.58-6.1,2.67-16.12,14.04-26.8,5.92-5.56,13.15-11.03,21.35-16.22,2.29,7.35,5.03,14.83,8.2,22.31,9.56,22.6,21.85,42.53,34.6,56.11,6.4,6.82,12.64,11.74,18.55,14.61,4.05,1.97,7.88,2.96,11.45,2.96,2.44,0,4.76-.46,6.95-1.39,12.46-5.27,17.03-24.4,12.55-52.49l-8.96,1.43c3.61,22.59.81,39.35-7.12,42.71-1.03.43-2.16.65-3.39.65-6.1,0-14.53-5.22-23.41-14.69-12.03-12.82-23.7-31.79-32.86-53.43-3.36-7.93-6.22-15.85-8.54-23.58,7.47-4.25,15.57-8.24,24.08-11.84,21.64-9.16,43.23-14.65,60.79-15.47,15.58-.73,26.43,2.48,29.01,8.59,2.47,5.83-2.3,15.4-12.76,25.58-10.5,10.22-25.72,20.36-43.35,28.92l-8.89-18.08-11.18,32.8,32.8,11.18-8.73-17.76c18.48-8.99,34.52-19.69,45.68-30.56,6.35-6.18,10.9-12.2,13.53-17.87,3.04-6.56,3.46-12.53,1.26-17.74Z"/>
      </g>
    </g>
  </g>
</svg>