<?xml version="1.0" encoding="UTF-8"?>
<svg xmlns="http://www.w3.org/2000/svg" xmlns:xlink="http://www.w3.org/1999/xlink" viewBox="0 0 962.76 205.33">
  <defs>
    <style>
      .cls-1 {
        isolation: isolate;
      }

      .cls-2 {
        fill: none;
      }

      .cls-2, .cls-3, .cls-4, .cls-5 {
        stroke-width: 0px;
      }

      .cls-3 {
        fill: url(#Degradado_sin_nombre-2);
      }

      .cls-3, .cls-4 {
        mix-blend-mode: soft-light;
        opacity: .51;
      }

      .cls-6 {
        clip-path: url(#clippath);
      }

      .cls-4 {
        fill: url(#Degradado_sin_nombre);
      }

      .cls-5 {
        fill: url(#Degradado_sin_nombre_23);
      }

      .cls-7 {
        mix-blend-mode: hard-light;
        opacity: .22;
      }
    </style>
    <linearGradient id="Degradado_sin_nombre_23" data-name="Degradado sin nombre 23" x1="1.24" y1="-8060.83" x2="962.76" y2="-8060.83" gradientTransform="translate(0 -7958.16) scale(1 -1)" gradientUnits="userSpaceOnUse">
      <stop offset="0" stop-color="#fc9202"/>
      <stop offset=".47" stop-color="#ff6f00"/>
      <stop offset=".9" stop-color="#ec5335"/>
    </linearGradient>
    <clipPath id="clippath">
      <path class="cls-2" d="M102.67,0h756.19C915.52,0,961.52,46,961.52,102.67h0c0,56.66-46,102.67-102.67,102.67H0v-102.67C0,46,46,0,102.67,0Z"/>
    </clipPath>
    <linearGradient id="Degradado_sin_nombre" data-name="Degradado sin nombre" x1="1798.89" y1="914.87" x2="1675" y2="719.93" gradientTransform="translate(-795.46 -875.66) rotate(11.69)" gradientUnits="userSpaceOnUse">
      <stop offset="0" stop-color="#fff"/>
      <stop offset="1" stop-color="#000"/>
    </linearGradient>
    <linearGradient id="Degradado_sin_nombre-2" data-name="Degradado sin nombre" x1="617.56" y1="17.79" x2="786.97" y2="254.97" gradientTransform="matrix(1,0,0,1,0,0)" xlink:href="#Degradado_sin_nombre"/>
  </defs>
  <g class="cls-1">
    <g id="Layer_2" data-name="Layer 2">
      <g id="Layer_1-2" data-name="Layer 1">
        <g>
          <path class="cls-5" d="M103.91,0h756.19C916.76,0,962.76,46,962.76,102.67h0c0,56.66-46,102.67-102.67,102.67H1.24v-102.67C1.24,46,47.24,0,103.91,0Z"/>
          <g class="cls-7">
            <g class="cls-6">
              <g>
                <path class="cls-4" d="M460.9,200.73c10.82-14.57,28.09-24.16,46.18-25.62,14.24-1.15,28.37,2.48,42.47,4.77,20.2,3.29,40.85,3.85,61.2,1.66,15.29-1.64,30.63-4.9,44.28-12,13.2-6.87,13.67-11.27,35.96-29.98,18.15-15.23,28.65-24.04,43.7-31.41,17.94-8.79,36.49-17.89,54.61-12.51,30.38,9.01,29.17,49.71,54.61,53.47,16.48,2.44,35.44-11.91,43.23-27.3,12.88-25.45-7.04-49.31,6.42-61.79,8.69-8.06,25.37-5.6,36.17.03,8.73,4.55,13.53,14.1,17.07,23.29,21.25,55.21,15.93,119.99-14.05,170.99-14.64,24.92-35.05,46.72-60.08,61.18-25.03,14.45-54.77,21.26-83.36,17.06-48.52-7.12-90.47-44.4-139.5-43.47-9.77.18-19.43,1.92-29.12,3.17-30.88,4-62.61,2.81-92.92-4.51-15.13-3.65-29.91-8.85-43.87-15.74-9.55-4.71-28.97-12.61-34.36-22.16-7.47-13.24,3.49-38.5,11.37-49.12Z"/>
                <path class="cls-3" d="M452.2,184.8c11.7-15.77,30.4-26.14,49.97-27.72,15.41-1.24,30.69,2.68,45.95,5.16,21.86,3.55,44.2,4.16,66.22,1.8,16.55-1.78,33.14-5.3,47.91-12.99,14.28-7.43,14.79-12.2,38.91-32.43,19.64-16.48,31-26.01,47.28-33.99,19.4-9.51,39.48-19.35,59.08-13.54,32.87,9.75,31.56,53.78,59.08,57.85,17.83,2.63,38.34-12.89,46.77-29.54,13.94-27.54-7.61-53.35,6.94-66.85,9.4-8.72,27.45-6.06,39.13.03,9.45,4.93,14.64,15.26,18.47,25.2,22.99,59.74,17.23,129.82-15.2,185.01-15.84,26.96-37.92,50.55-65,66.19-27.08,15.64-59.26,23-90.2,18.46-52.49-7.7-97.88-48.04-150.93-47.04-10.57.2-21.02,2.07-31.51,3.43-33.41,4.32-67.74,3.05-100.53-4.87-16.37-3.95-32.36-9.58-47.47-17.03-10.33-5.1-31.34-13.64-37.17-23.97-8.09-14.32,3.77-41.65,12.3-53.15Z"/>
              </g>
            </g>
          </g>
        </g>
      </g>
    </g>
  </g>
</svg>