<?xml version="1.0" encoding="UTF-8"?>
<svg xmlns="http://www.w3.org/2000/svg" xmlns:xlink="http://www.w3.org/1999/xlink" viewBox="0 0 482.1 320.71">
  <defs>
    <style>
      .cls-1 {
        fill: url(#Degradado_sin_nombre_3);
      }

      .cls-1, .cls-2, .cls-3, .cls-4 {
        stroke-width: 0px;
      }

      .cls-5 {
        isolation: isolate;
      }

      .cls-2 {
        fill: none;
      }

      .cls-6 {
        filter: url(#drop-shadow-1);
      }

      .cls-7 {
        clip-path: url(#clippath-1);
      }

      .cls-3 {
        fill: url(#Degradado_sin_nombre_3-2);
      }

      .cls-8 {
        clip-path: url(#clippath);
      }

      .cls-4 {
        fill: url(#Degradado_sin_nombre_2);
      }

      .cls-9 {
        mix-blend-mode: hard-light;
        opacity: .5;
      }
    </style>
    <filter id="drop-shadow-1" filterUnits="userSpaceOnUse">
      <feOffset dx="11" dy="15"/>
      <feGaussianBlur result="blur" stdDeviation="6"/>
      <feFlood flood-color="#000" flood-opacity=".2"/>
      <feComposite in2="blur" operator="in"/>
      <feComposite in="SourceGraphic"/>
    </filter>
    <linearGradient id="Degradado_sin_nombre_2" data-name="Degradado sin nombre 2" x1="0" y1="102.41" x2="414.93" y2="102.41" gradientUnits="userSpaceOnUse">
      <stop offset="0" stop-color="#297067"/>
      <stop offset=".08" stop-color="#2d7c73"/>
      <stop offset=".2" stop-color="#338d82"/>
      <stop offset=".3" stop-color="#369388"/>
    </linearGradient>
    <clipPath id="clippath">
      <path class="cls-2" d="M368.54,3.14H83.43v198.75h285.12c25.62,0,46.38-16.88,46.38-37.69V40.84c0-20.82-20.77-37.69-46.38-37.69Z"/>
    </clipPath>
    <linearGradient id="Degradado_sin_nombre_3" data-name="Degradado sin nombre 3" x1="268.35" y1="100.52" x2="402.47" y2="258.63" gradientUnits="userSpaceOnUse">
      <stop offset=".15" stop-color="#297067"/>
      <stop offset=".64" stop-color="#369388"/>
    </linearGradient>
    <clipPath id="clippath-1">
      <path class="cls-2" d="M377.23,2.94h-231.7v198.75h231.7c20.82,0,37.69-16.88,37.69-37.69V40.63c0-20.82-16.88-37.69-37.69-37.69Z"/>
    </clipPath>
    <linearGradient id="Degradado_sin_nombre_3-2" data-name="Degradado sin nombre 3" x1="293.86" y1="142.52" x2="427.98" y2="300.63" xlink:href="#Degradado_sin_nombre_3"/>
  </defs>
  <g class="cls-5">
    <g id="Layer_2" data-name="Layer 2">
      <g id="Layer_1-2" data-name="Layer 1">
        <g class="cls-6">
          <path class="cls-4" d="M377.23,3.04H37.69C16.88,3.04,0,19.92,0,40.73v123.36c0,20.82,16.88,37.69,37.69,37.69h339.54c20.82,0,37.69-16.88,37.69-37.69V40.73c0-20.82-16.88-37.69-37.69-37.69Z"/>
          <g class="cls-9">
            <g class="cls-8">
              <path class="cls-1" d="M145.06,224.59c-8.25-17.85-4.97-44.43,8.94-58.35,20.18-20.19,49.17-.18,105.88-12.24,19.39-4.12,68.71-14.6,80-46.12,9.28-25.91-15.55-42.54-6.12-68.24,9.82-26.74,50.73-46.85,75.76-37.18,45.66,17.65,71.17,146.96,14.59,218.35-71.17,89.79-251.95,62.38-279.06,3.76Z"/>
            </g>
          </g>
          <g class="cls-9">
            <g class="cls-7">
              <path class="cls-3" d="M170.57,266.59c-8.25-17.85-4.97-44.43,8.94-58.35,20.18-20.19,49.17-.18,105.88-12.24,19.39-4.12,68.71-14.6,80-46.12,9.28-25.91-15.55-42.54-6.12-68.24,9.82-26.74,50.73-46.85,75.76-37.18,45.66,17.65,71.17,146.96,14.59,218.35-71.17,89.79-251.95,62.38-279.06,3.76Z"/>
            </g>
          </g>
        </g>
      </g>
    </g>
  </g>
</svg>