<?xml version="1.0" encoding="UTF-8"?>
<svg xmlns="http://www.w3.org/2000/svg" xmlns:xlink="http://www.w3.org/1999/xlink" viewBox="0 0 415.38 198.75">
  <defs>
    <style>
      .cls-1 {
        isolation: isolate;
      }

      .cls-2 {
        fill: #f15a29;
      }

      .cls-2, .cls-3, .cls-4, .cls-5 {
        stroke-width: 0px;
      }

      .cls-3 {
        fill: none;
      }

      .cls-6 {
        filter: url(#drop-shadow-1);
      }

      .cls-4 {
        fill: url(#Degradado_sin_nombre-2);
      }

      .cls-4, .cls-5 {
        mix-blend-mode: soft-light;
        opacity: .51;
      }

      .cls-7 {
        clip-path: url(#clippath);
      }

      .cls-5 {
        fill: url(#Degradado_sin_nombre);
      }

      .cls-8 {
        mix-blend-mode: hard-light;
        opacity: .22;
      }
    </style>
    <filter id="drop-shadow-1" filterUnits="userSpaceOnUse">
      <feOffset dx="11" dy="15"/>
      <feGaussianBlur result="blur" stdDeviation="6"/>
      <feFlood flood-color="#000" flood-opacity=".2"/>
      <feComposite in2="blur" operator="in"/>
      <feComposite in="SourceGraphic"/>
    </filter>
    <clipPath id="clippath">
      <rect class="cls-3" x=".46" width="414.93" height="198.75" rx="37.69" ry="37.69"/>
    </clipPath>
    <linearGradient id="Degradado_sin_nombre" data-name="Degradado sin nombre" x1="348.7" y1="256.35" x2="252.7" y2="105.29" gradientUnits="userSpaceOnUse">
      <stop offset="0" stop-color="#fff"/>
      <stop offset="1" stop-color="#000"/>
    </linearGradient>
    <linearGradient id="Degradado_sin_nombre-2" data-name="Degradado sin nombre" x1="-157.69" y1="-247.13" x2="-253.69" y2="-398.19" gradientTransform="translate(588.62 493.59) rotate(-8.02)" xlink:href="#Degradado_sin_nombre"/>
  </defs>
  <g class="cls-1">
    <g id="Layer_2" data-name="Layer 2">
      <g id="Layer_1-2" data-name="Layer 1">
        <g class="cls-6">
          <rect class="cls-2" width="414.93" height="198.75" rx="37.69" ry="37.69"/>
          <g class="cls-8">
            <g class="cls-7">
              <g>
                <path class="cls-5" d="M102.03,173.6c5.35-11.53,15.84-20.56,28.04-24.13,9.6-2.81,19.81-2.33,29.81-2.76,14.32-.61,28.56-3.16,42.21-7.55,10.26-3.3,20.31-7.71,28.66-14.52,8.52-6.94,14.95-16.12,20.41-25.66,8.22-14.38,14.46-29.81,20.04-45.41,3.97-11.1,8.09-22.99,17.45-30.17,8.82-6.76,20.72-8,31.79-7.12s22,3.59,33.11,3.72c8.58.1,17.18-1.38,25.25-4.33,8.08-2.96,16.53-7.46,24.81-5.11,6.64,1.88,11.28,7.75,15.01,13.55,22.41,34.85,27.95,80.03,14.63,119.27-6.51,19.17-17.41,37.02-32.52,50.48-15.11,13.46-34.55,22.35-54.75,23.53-34.29,2-68.35-17.61-101.85-10.02-6.67,1.51-13.05,4.07-19.52,6.31-20.61,7.12-42.54,10.82-64.37,10.1-10.9-.36-21.77-1.83-32.33-4.57-7.22-1.87-21.66-4.54-26.71-10.32-7-8.02-3.07-26.9.83-35.3Z"/>
                <path class="cls-4" d="M142.17,223.38c3.69-12.16,12.81-22.57,24.4-27.8,9.12-4.12,19.29-5.07,29.13-6.89,14.1-2.61,27.84-7.12,40.75-13.37,9.7-4.7,19.04-10.47,26.36-18.38,7.47-8.07,12.56-18.05,16.63-28.26,6.13-15.39,10.16-31.54,13.5-47.76,2.38-11.55,4.8-23.9,13.06-32.31,7.79-7.93,19.4-10.81,30.49-11.49s22.28.49,33.3-.94c8.51-1.1,16.82-3.76,24.39-7.81,7.59-4.06,15.33-9.7,23.85-8.53,6.83.94,12.25,6.1,16.76,11.33,27.05,31.38,38.85,75.35,31.14,116.06-3.77,19.89-12.07,39.09-25.16,54.53-13.09,15.44-31.09,26.96-50.93,30.95-33.67,6.77-70.14-7.9-102.25,4.3-6.4,2.43-12.36,5.85-18.45,8.97-19.42,9.93-40.61,16.65-62.33,18.98-10.84,1.17-21.81,1.23-32.65-.01-7.41-.85-22.08-1.47-27.89-6.49-8.05-6.96-6.8-26.21-4.11-35.07Z"/>
              </g>
            </g>
          </g>
        </g>
      </g>
    </g>
  </g>
</svg>