<?xml version="1.0" encoding="UTF-8"?>
<svg id="Layer_2" data-name="Layer 2" xmlns="http://www.w3.org/2000/svg" xmlns:xlink="http://www.w3.org/1999/xlink" viewBox="0 0 318.81 97.76">
  <defs>
    <style>
      .cls-1 {
        fill: #932120;
      }

      .cls-1, .cls-2, .cls-3, .cls-4, .cls-5, .cls-6, .cls-7, .cls-8, .cls-9, .cls-10, .cls-11, .cls-12, .cls-13, .cls-14, .cls-15, .cls-16, .cls-17, .cls-18, .cls-19, .cls-20, .cls-21, .cls-22, .cls-23, .cls-24, .cls-25, .cls-26, .cls-27, .cls-28, .cls-29, .cls-30, .cls-31, .cls-32, .cls-33, .cls-34, .cls-35, .cls-36, .cls-37, .cls-38, .cls-39, .cls-40, .cls-41, .cls-42, .cls-43, .cls-44, .cls-45, .cls-46, .cls-47, .cls-48, .cls-49, .cls-50, .cls-51, .cls-52, .cls-53, .cls-54, .cls-55, .cls-56, .cls-57, .cls-58, .cls-59, .cls-60, .cls-61, .cls-62, .cls-63, .cls-64, .cls-65, .cls-66, .cls-67, .cls-68, .cls-69, .cls-70, .cls-71, .cls-72, .cls-73, .cls-74, .cls-75, .cls-76, .cls-77, .cls-78, .cls-79, .cls-80, .cls-81, .cls-82, .cls-83, .cls-84, .cls-85, .cls-86, .cls-87, .cls-88, .cls-89, .cls-90, .cls-91, .cls-92, .cls-93, .cls-94, .cls-95, .cls-96, .cls-97, .cls-98, .cls-99, .cls-100, .cls-101, .cls-102, .cls-103, .cls-104, .cls-105, .cls-106, .cls-107, .cls-108, .cls-109, .cls-110, .cls-111, .cls-112, .cls-113, .cls-114, .cls-115, .cls-116, .cls-117, .cls-118, .cls-119, .cls-120, .cls-121, .cls-122, .cls-123, .cls-124, .cls-125, .cls-126, .cls-127, .cls-128, .cls-129, .cls-130, .cls-131, .cls-132, .cls-133, .cls-134, .cls-135, .cls-136, .cls-137, .cls-138, .cls-139, .cls-140, .cls-141, .cls-142, .cls-143, .cls-144, .cls-145, .cls-146, .cls-147, .cls-148, .cls-149, .cls-150, .cls-151, .cls-152, .cls-153, .cls-154, .cls-155, .cls-156, .cls-157, .cls-158, .cls-159, .cls-160, .cls-161, .cls-162, .cls-163, .cls-164, .cls-165 {
        stroke-width: 0px;
      }

      .cls-2 {
        fill: #431515;
      }

      .cls-3 {
        fill: #f9a320;
      }

      .cls-4 {
        fill: #601112;
      }

      .cls-5 {
        fill: #761716;
      }

      .cls-6 {
        fill: #651314;
      }

      .cls-7 {
        fill: #c32f27;
      }

      .cls-8 {
        fill: #328087;
      }

      .cls-9 {
        fill: #a32323;
      }

      .cls-10 {
        fill: #5e0f11;
      }

      .cls-11 {
        fill: #f79725;
      }

      .cls-12 {
        fill: #5c0e10;
      }

      .cls-13 {
        fill: #f59825;
      }

      .cls-14 {
        fill: #db3829;
      }

      .cls-15 {
        fill: #ef4a2b;
      }

      .cls-16 {
        fill: #f79526;
      }

      .cls-17 {
        fill: #511715;
      }

      .cls-18 {
        fill: #992421;
      }

      .cls-19 {
        fill: #ec492c;
      }

      .cls-20 {
        fill: #f89f24;
      }

      .cls-21 {
        fill: #f69027;
      }

      .cls-22 {
        fill: #681513;
      }

      .cls-23 {
        fill: #a52323;
      }

      .cls-24 {
        fill: #f5a620;
      }

      .cls-25 {
        fill: #6b1411;
      }

      .cls-26 {
        fill: #972421;
      }

      .cls-27 {
        fill: #df3c2b;
      }

      .cls-28 {
        fill: #eb4630;
      }

      .cls-29 {
        fill: #421514;
      }

      .cls-30 {
        fill: #4b1817;
      }

      .cls-166 {
        opacity: .6;
      }

      .cls-31 {
        fill: #f1612d;
      }

      .cls-32 {
        fill: #ec482a;
      }

      .cls-33 {
        fill: #4f1716;
      }

      .cls-34 {
        fill: #561412;
      }

      .cls-35 {
        fill: #a82224;
      }

      .cls-36 {
        fill: #f26f2c;
      }

      .cls-37 {
        fill: #641313;
      }

      .cls-38 {
        fill: #791617;
      }

      .cls-39 {
        fill: #491816;
      }

      .cls-40 {
        fill: #f05b2d;
      }

      .cls-41 {
        fill: #ef4f2a;
      }

      .cls-42 {
        fill: #711211;
      }

      .cls-167 {
        clip-path: url(#clippath-2);
      }

      .cls-43 {
        fill: #701311;
      }

      .cls-44 {
        fill: #ec572a;
      }

      .cls-45 {
        fill: #ad2526;
      }

      .cls-46 {
        fill: #f69227;
      }

      .cls-47 {
        fill: #ec472d;
      }

      .cls-48 {
        fill: #481816;
      }

      .cls-49 {
        fill: #d23b27;
      }

      .cls-50 {
        fill: #881c1c;
      }

      .cls-51 {
        fill: #f07e21;
      }

      .cls-52 {
        fill: #6c1311;
      }

      .cls-53 {
        fill: #eb462d;
      }

      .cls-54 {
        fill: #8e1f1d;
      }

      .cls-55 {
        fill: #411312;
      }

      .cls-56 {
        fill: #e53e2e;
      }

      .cls-57 {
        fill: #cd3729;
      }

      .cls-58 {
        fill: #91201f;
      }

      .cls-59 {
        fill: #a92225;
      }

      .cls-60 {
        fill: #861a1c;
      }

      .cls-61 {
        fill: #8e1e1e;
      }

      .cls-62 {
        fill: none;
      }

      .cls-63 {
        fill: #8d1d1d;
      }

      .cls-64 {
        fill: #ef672f;
      }

      .cls-65 {
        fill: #9a2621;
      }

      .cls-66 {
        fill: #f5ad1c;
      }

      .cls-67 {
        fill: #ef7428;
      }

      .cls-68 {
        fill: #b22f26;
      }

      .cls-69 {
        fill: #4c1817;
      }

      .cls-70 {
        fill: #741513;
      }

      .cls-71 {
        fill: #f37628;
      }

      .cls-168 {
        clip-path: url(#clippath-1);
      }

      .cls-72 {
        fill: #451616;
      }

      .cls-73 {
        fill: #f26b2e;
      }

      .cls-74 {
        fill: #ec642f;
      }

      .cls-75 {
        fill: #551615;
      }

      .cls-76 {
        fill: #8b1d1d;
      }

      .cls-77 {
        fill: #600f11;
      }

      .cls-78 {
        fill: #f58421;
      }

      .cls-79 {
        fill: #ee5f2d;
      }

      .cls-80 {
        fill: #5a0e11;
      }

      .cls-81 {
        fill: #c73228;
      }

      .cls-82 {
        fill: #f17f21;
      }

      .cls-83 {
        fill: #691413;
      }

      .cls-84 {
        fill: #f26c2e;
      }

      .cls-85 {
        fill: #501816;
      }

      .cls-86 {
        fill: #841c1b;
      }

      .cls-87 {
        fill: #7d1819;
      }

      .cls-88 {
        fill: #ef4b29;
      }

      .cls-89 {
        fill: #ab2426;
      }

      .cls-90 {
        fill: #411313;
      }

      .cls-91 {
        fill: #5a1211;
      }

      .cls-92 {
        fill: #571311;
      }

      .cls-93 {
        fill: #7f151b;
      }

      .cls-94 {
        fill: #721413;
      }

      .cls-95 {
        fill: #a22222;
      }

      .cls-96 {
        fill: #b83427;
      }

      .cls-97 {
        fill: #ee4031;
      }

      .cls-98 {
        fill: #f48321;
      }

      .cls-99 {
        fill: #f26f2e;
      }

      .cls-100 {
        fill: #f07a26;
      }

      .cls-101 {
        fill: #f08021;
      }

      .cls-102 {
        fill: #ef7c25;
      }

      .cls-103 {
        fill: #6a1512;
      }

      .cls-104 {
        fill: #9c2322;
      }

      .cls-105 {
        fill: #7b1518;
      }

      .cls-106 {
        fill: #bd3227;
      }

      .cls-107 {
        fill: #751614;
      }

      .cls-108 {
        fill: #ec552a;
      }

      .cls-109 {
        fill: #4e1817;
      }

      .cls-110 {
        fill: #ee3f31;
      }

      .cls-169 {
        clip-path: url(#clippath);
      }

      .cls-111 {
        fill: #b32f26;
      }

      .cls-112 {
        fill: #f9a123;
      }

      .cls-113 {
        fill: #bb3327;
      }

      .cls-114 {
        fill: #f58a26;
      }

      .cls-115 {
        fill: #af2925;
      }

      .cls-116 {
        fill: #b53027;
      }

      .cls-117 {
        fill: #c22e28;
      }

      .cls-118 {
        fill: #932321;
      }

      .cls-119 {
        fill: #e83f31;
      }

      .cls-120 {
        fill: #e63f30;
      }

      .cls-121 {
        fill: #ee4131;
      }

      .cls-122 {
        fill: #f58722;
      }

      .cls-123 {
        fill: #ec542c;
      }

      .cls-124 {
        fill: #671613;
      }

      .cls-125 {
        fill: #f0592d;
      }

      .cls-126 {
        fill: #4a1816;
      }

      .cls-127 {
        fill: #7a1718;
      }

      .cls-128 {
        fill: #81181a;
      }

      .cls-129 {
        fill: #f89c26;
      }

      .cls-130 {
        fill: #80181a;
      }

      .cls-131 {
        fill: #e13c2d;
      }

      .cls-132 {
        fill: #f07228;
      }

      .cls-133 {
        fill: #cc3728;
      }

      .cls-134 {
        fill: #d83a28;
      }

      .cls-135 {
        fill: #f07828;
      }

      .cls-136 {
        fill: #5a0f10;
      }

      .cls-137 {
        fill: #cb3628;
      }

      .cls-138 {
        fill: #ee522a;
      }

      .cls-139 {
        fill: #c73028;
      }

      .cls-140 {
        fill: #ef692f;
      }

      .cls-141 {
        fill: #f05a2d;
      }

      .cls-142 {
        fill: #f0592c;
      }

      .cls-143 {
        fill: #ed602e;
      }

      .cls-144 {
        fill: #d33a27;
      }

      .cls-145 {
        fill: #ec482d;
      }

      .cls-146 {
        fill: #621112;
      }

      .cls-147 {
        fill: #721512;
      }

      .cls-148 {
        fill: #f6a420;
      }

      .cls-149 {
        fill: #9f2422;
      }

      .cls-150 {
        fill: #441515;
      }

      .cls-151 {
        fill: #ef492b;
      }

      .cls-152 {
        fill: #f0592b;
      }

      .cls-153 {
        fill: #f05d2d;
      }

      .cls-154 {
        fill: #831a1b;
      }

      .cls-155 {
        fill: #f37528;
      }

      .cls-156 {
        fill: #ee512a;
      }

      .cls-157 {
        fill: #6e1210;
      }

      .cls-158 {
        fill: #f06a2f;
      }

      .cls-159 {
        fill: #ee432e;
      }

      .cls-160 {
        fill: #af2a25;
      }

      .cls-161 {
        fill: #461716;
      }

      .cls-162 {
        fill: #f7aa1f;
      }

      .cls-163 {
        fill: #811a1b;
      }

      .cls-164 {
        fill: #f05c2d;
      }

      .cls-165 {
        fill: #541715;
      }
    </style>
    <clipPath id="clippath">
      <path class="cls-62" d="M312.26,35.89c-3.8-25.75-64.47-30.56-159.07-18.08C93.94,25.62,32.68,38.44,5.32,48.61c24.61-6.07,59.85-11.49,109.63-15.87,96.19-8.47,172.76,2.17,167.12,24.55-.54,2.15-1.79,4.33-3.7,6.5,21.43-8.05,35.07-19.9,33.89-27.89Z"/>
    </clipPath>
    <clipPath id="clippath-1">
      <path class="cls-62" d="M310.82,37.14c-2.83-19.19-82.02-30.43-175.66-18.08C75.91,26.87,32.68,38.44,5.32,48.61c24.61-6.07,59.85-11.49,109.63-15.87,96.19-8.47,172.76,2.17,167.12,24.55-.54,2.15-1.79,4.33-3.7,6.5,21.43-8.05,33.63-18.64,32.45-26.64Z"/>
    </clipPath>
    <clipPath id="clippath-2">
      <path class="cls-62" d="M296.31,48.8c0-14.11-18.52-28.1-152.59-18.26-89.12,6.55-62.91,19.68-61.75,34.61,1.17,14.93,50.68,21.37,110.4,18.23,59.72-3.14,103.94-22.23,103.94-34.59Z"/>
    </clipPath>
  </defs>
  <g id="Layer_1-2" data-name="Layer 1">
    <g>
      <g>
        <g class="cls-169">
          <rect class="cls-66" x="5.32" y="5.33" width="308.12" height="58.45"/>
          <path class="cls-66" d="M314.12,64.47H4.64V14.72h-.08c4.03-2.22,8.29-4.35,12.76-6.38,4.47-2.03,9.16-3.97,14.04-5.8v2.11h251.59v-2.11c4.88,1.83,9.57,3.77,14.04,5.8,4.47,2.03,8.73,4.16,12.76,6.38,2.02,1.11,3.97,2.24,5.87,3.4h-1.51v46.35Z"/>
          <path class="cls-162" d="M314.12,64.47H4.64V18.6H.09c1.88-1.14,3.82-2.27,5.82-3.37,3.99-2.2,8.22-4.31,12.65-6.33,4.43-2.02,9.08-3.94,13.92-5.75v1.5h249.37v-1.5c4.84,1.82,9.49,3.74,13.92,5.75,4.43,2.02,8.66,4.13,12.65,6.33,2,1.1,3.94,2.22,5.82,3.37h-.11v45.87Z"/>
          <path class="cls-24" d="M314.12,64.47H4.64V19.07H1.49c1.86-1.13,3.79-2.25,5.77-3.34,3.96-2.18,8.14-4.27,12.54-6.27,4.39-2,9-3.9,13.8-5.7v.88h247.14v-.88c4.8,1.8,9.4,3.7,13.8,5.7,8.79,4,16.74,8.37,23.72,13.07h-4.12v41.93Z"/>
          <path class="cls-148" d="M314.12,64.47H4.64V19.55h-1.75c1.85-1.12,3.75-2.23,5.72-3.31,3.92-2.16,8.07-4.24,12.43-6.22,4.35-1.98,8.92-3.87,13.67-5.65v.27h244.91v-.27c4.75,1.78,9.32,3.67,13.67,5.65,8.71,3.96,16.59,8.3,23.51,12.95h-2.67v41.49Z"/>
          <path class="cls-3" d="M314.12,64.47H4.64V20.03h-.34c1.83-1.11,3.72-2.21,5.66-3.28,3.89-2.14,8-4.2,12.31-6.16C30.9,6.67,40.35,3.12,50.5,0v4.65h213.32V0c10.15,3.12,19.6,6.67,28.23,10.59,8.63,3.92,16.44,8.22,23.29,12.84h-1.22v41.04Z"/>
          <path class="cls-112" d="M314.12,64.47H4.64V23.87H.43c6.79-4.57,14.53-8.83,23.08-12.72,8.55-3.89,17.92-7.4,27.97-10.49v3.99h211.36V.66c10.06,3.09,19.42,6.61,27.97,10.49,8.55,3.89,16.29,8.15,23.08,12.72,1.7,1.14,3.34,2.31,4.92,3.49h-4.69v37.11Z"/>
          <path class="cls-20" d="M314.12,64.47H4.64V24.32H1.88c6.73-4.53,14.39-8.75,22.87-12.6,8.47-3.85,17.75-7.34,27.71-10.4v3.33h209.4V1.32c9.96,3.06,19.24,6.54,27.71,10.4,8.47,3.85,16.14,8.07,22.87,12.6,1.68,1.13,3.31,2.28,4.87,3.45h-3.19v36.7Z"/>
          <path class="cls-129" d="M314.12,64.47H4.64V24.76h-1.31c6.67-4.49,14.26-8.67,22.65-12.48,8.39-3.82,17.59-7.27,27.46-10.3v2.67h207.45V1.98c9.87,3.03,19.06,6.48,27.46,10.3,8.39,3.82,15.99,8,22.65,12.48,1.67,1.12,3.28,2.26,4.83,3.42h-1.69v36.28Z"/>
          <path class="cls-13" d="M314.12,64.47H4.64V28.59H0c1.53-1.15,3.13-2.28,4.78-3.39,6.6-4.44,14.13-8.58,22.44-12.36,8.31-3.78,17.42-7.2,27.2-10.2v2.01h205.49v-2.01c9.78,3,18.88,6.42,27.2,10.2,8.31,3.78,15.83,7.92,22.44,12.36,3.3,2.22,6.38,4.52,9.2,6.89h-4.62v32.37Z"/>
          <path class="cls-11" d="M314.12,64.47H4.64V29.01H1.5c1.52-1.14,3.1-2.26,4.73-3.36,6.54-4.4,13.99-8.5,22.23-12.25,8.23-3.74,17.25-7.13,26.94-10.1v1.35h203.53v-1.35c9.68,2.97,18.7,6.36,26.94,10.1,8.23,3.74,15.68,7.84,22.23,12.25,3.27,2.2,6.32,4.48,9.12,6.82h-3.08v31.99Z"/>
          <path class="cls-16" d="M314.12,64.47H4.64V29.42h-1.64c1.51-1.13,3.07-2.24,4.69-3.33,6.48-4.36,13.86-8.42,22.01-12.13,8.16-3.71,17.09-7.06,26.68-10.01v.69h201.57v-.69c9.59,2.95,18.52,6.3,26.68,10.01,8.16,3.71,15.53,7.77,22.01,12.13,3.24,2.18,6.25,4.43,9.03,6.76h-1.54v31.61Z"/>
          <path class="cls-46" d="M314.12,64.47H4.64v-31.24H.19c2.75-2.3,5.73-4.53,8.94-6.69,6.42-4.32,13.72-8.34,21.8-12.01,8.08-3.67,16.92-6.99,26.42-9.91v.03h199.62v-.03c9.5,2.92,18.34,6.24,26.42,9.91,8.08,3.67,15.38,7.69,21.8,12.01,3.21,2.16,6.19,4.39,8.94,6.69h0v31.24Z"/>
          <path class="cls-21" d="M314.12,64.47H4.64v-30.86H1.73c2.72-2.28,5.68-4.49,8.85-6.63,6.35-4.28,13.59-8.26,21.58-11.89,8-3.64,16.76-6.92,26.16-9.81,4.7-1.44,9.56-2.79,14.57-4.03v3.39h168.51V1.25c5.01,1.24,9.87,2.58,14.57,4.03,9.4,2.89,18.16,6.18,26.16,9.81,8,3.64,15.23,7.62,21.58,11.89,3.18,2.14,6.13,4.35,8.85,6.63,1.36,1.14,2.66,2.29,3.9,3.47h-2.37v27.39Z"/>
          <path class="cls-114" d="M314.12,64.47H4.64v-30.48h-1.37c2.69-2.25,5.62-4.44,8.77-6.56,6.29-4.23,13.45-8.18,21.37-11.78,7.92-3.6,16.59-6.86,25.9-9.72,4.66-1.43,9.47-2.76,14.43-3.99v2.7h166.84V1.95c4.96,1.22,9.77,2.56,14.43,3.99,9.31,2.86,17.98,6.12,25.9,9.72,15.84,7.2,28.65,15.77,37.51,25.29h-4.3v23.52Z"/>
          <path class="cls-122" d="M314.12,64.47H4.64v-26.7H.98c1.22-1.15,2.49-2.28,3.83-3.4,2.67-2.23,5.57-4.4,8.68-6.49,6.23-4.19,13.32-8.09,21.16-11.66,7.84-3.56,16.42-6.79,25.64-9.62,4.61-1.42,9.38-2.73,14.29-3.95v2h165.18v-2c4.91,1.21,9.68,2.53,14.29,3.95,9.22,2.83,17.8,6.05,25.64,9.62,15.68,7.13,28.36,15.61,37.13,25.04h-2.68v23.21Z"/>
          <path class="cls-78" d="M314.12,64.47H4.64v-26.36h-2.08c1.2-1.14,2.47-2.26,3.79-3.36,2.64-2.21,5.51-4.35,8.59-6.43,6.16-4.15,13.18-8.01,20.94-11.54C51.4,9.72,69.88,4.01,90.4.07v4.58h133.52V.07c20.52,3.95,39,9.66,54.52,16.71,15.52,7.06,28.08,15.46,36.76,24.79h-1.07v22.9Z"/>
          <path class="cls-98" d="M314.12,64.47H4.64v-22.59H.74c8.59-9.23,21.02-17.55,36.38-24.53C52.48,10.36,70.77,4.71,91.08.8v3.85h132.16V.8c20.31,3.91,38.6,9.56,53.96,16.54,15.36,6.98,27.79,15.3,36.38,24.53,1.07,1.15,2.09,2.32,3.04,3.5h-2.5v19.09Z"/>
          <path class="cls-101" d="M314.12,64.47H4.64v-22.28h-2.29c8.5-9.14,20.8-17.37,36.01-24.28,15.2-6.91,33.3-12.5,53.4-16.37v3.11h130.8V1.53c20.1,3.87,38.2,9.46,53.4,16.37,15.2,6.91,27.5,15.14,36.01,24.28,2.13,2.28,4.01,4.63,5.65,7.02h-3.5v15.27Z"/>
          <path class="cls-82" d="M314.12,64.47H4.64v-21.97h-.68c8.41-9.04,20.59-17.19,35.63-24.03,15.04-6.84,32.96-12.37,52.85-16.2v2.38h129.43v-2.38c19.89,3.82,37.8,9.36,52.85,16.2,15.04,6.84,27.22,14.98,35.63,24.03,2.1,2.26,3.97,4.58,5.59,6.94h-1.82v15.03Z"/>
          <path class="cls-82" d="M314.12,64.47H4.64v-14.79H.04c1.6-2.34,3.45-4.63,5.53-6.87,8.32-8.95,20.37-17.01,35.26-23.77,14.89-6.77,32.61-12.24,52.29-16.03v1.65h128.07v-1.65c19.68,3.78,37.41,9.26,52.29,16.03,14.89,6.77,26.93,14.83,35.26,23.77,4.16,4.47,7.39,9.17,9.59,14.04h-4.21v7.62Z"/>
          <path class="cls-51" d="M314.12,64.47H4.64v-14.56H1.71c1.59-2.32,3.41-4.59,5.47-6.8,8.24-8.85,20.15-16.83,34.88-23.52,14.73-6.7,32.26-12.11,51.74-15.86v.91h126.71v-.91c19.47,3.74,37.01,9.16,51.74,15.86,14.73,6.7,26.65,14.67,34.88,23.52,4.12,4.43,7.32,9.07,9.48,13.89h-2.49v7.46Z"/>
          <path class="cls-102" d="M314.12,64.47H4.64v-14.32h-1.25c1.57-2.29,3.38-4.54,5.41-6.73,8.15-8.76,19.94-16.64,34.51-23.27,14.57-6.62,31.92-11.98,51.18-15.69v.18h125.35v-.18c19.26,3.7,36.61,9.06,51.18,15.69,14.57,6.62,26.36,14.51,34.51,23.27,4.07,4.38,7.24,8.98,9.38,13.74h-.78v7.3Z"/>
          <path class="cls-100" d="M314.12,64.47H4.64v-7.14H1.13c2.12-4.71,5.25-9.26,9.28-13.59,8.06-8.66,19.72-16.46,34.13-23.01,14.41-6.55,31.57-11.85,50.62-15.52,9.53-1.83,19.53-3.25,29.9-4.22v3.67h64.19V.98c10.37.96,20.37,2.39,29.9,4.22,19.05,3.66,36.21,8.97,50.62,15.52,14.41,6.55,26.07,14.35,34.13,23.01,4.03,4.33,7.16,8.88,9.28,13.59,1.06,2.36,1.87,4.76,2.41,7.19l-1.48-.05Z"/>
          <path class="cls-135" d="M314.12,64.47H4.64v-6.98h-1.79c2.1-4.66,5.19-9.16,9.18-13.44,7.97-8.57,19.5-16.28,33.76-22.76C74.29,8.32,113.66.31,157.16.31s82.87,8.02,111.38,20.97c14.25,6.48,25.79,14.19,33.76,22.76,3.99,4.28,7.08,8.78,9.18,13.44,1.05,2.33,1.85,4.7,2.39,7.11v-.13h.26Z"/>
          <path class="cls-71" d="M312.92,64.47H4.64v-6.82h-.08c2.07-4.61,5.14-9.06,9.08-13.29,7.88-8.47,19.29-16.1,33.38-22.51C75.21,9.03,114.15,1.1,157.16,1.1s81.95,7.93,110.14,20.74c14.09,6.41,25.5,14.04,33.38,22.51,3.94,4.24,7,8.68,9.08,13.29,1.04,2.3,1.83,4.65,2.36,7.03v-.21h.8Z"/>
          <path class="cls-155" d="M311.17,64.47H4.64l-.69.29c.53-2.35,1.31-4.67,2.33-6.95,2.05-4.56,5.08-8.95,8.97-13.14,7.79-8.38,19.07-15.92,33.01-22.26C76.13,9.73,114.63,1.9,157.16,1.9s81.03,7.84,108.9,20.51c13.94,6.34,25.21,13.88,33.01,22.26,3.9,4.19,6.92,8.59,8.97,13.14,1.03,2.28,1.81,4.6,2.33,6.95v-.29h.8Z"/>
          <path class="cls-67" d="M309.42,64.47H5.68v.37c.52-2.33,1.29-4.62,2.31-6.87,2.03-4.51,5.02-8.85,8.87-12.99,7.7-8.28,18.85-15.74,32.63-22C77.05,10.44,115.11,2.69,157.16,2.69s80.11,7.75,107.67,20.27c13.78,6.26,24.93,13.72,32.63,22,3.85,4.14,6.84,8.49,8.87,12.99,1.01,2.25,1.79,4.55,2.31,6.87v-.37h.79Z"/>
          <path class="cls-132" d="M307.67,64.47H7.43v.45c.51-2.3,1.28-4.57,2.28-6.79,2-4.45,4.96-8.75,8.77-12.84,7.62-8.19,18.64-15.56,32.26-21.75C77.97,11.15,115.6,3.49,157.16,3.49s79.19,7.66,106.43,20.04c13.62,6.19,24.64,13.56,32.26,21.75,3.81,4.09,6.77,8.39,8.77,12.84,1,2.23,1.77,4.49,2.28,6.79v-.45h.78Z"/>
          <path class="cls-36" d="M305.92,64.47H9.17v.53c.51-2.27,1.26-4.51,2.25-6.72,1.98-4.4,4.9-8.65,8.67-12.7,7.53-8.09,18.42-15.38,31.88-21.5C78.89,11.85,116.08,4.28,157.16,4.28s78.27,7.57,105.19,19.81c13.46,6.12,24.35,13.41,31.88,21.5,3.76,4.05,6.69,8.29,8.67,12.7.99,2.2,1.75,4.44,2.25,6.72v-.53h.77Z"/>
          <path class="cls-99" d="M304.17,64.47H10.91v.62c.5-2.25,1.25-4.46,2.23-6.64,1.96-4.35,4.85-8.55,8.57-12.55,7.44-8,18.2-15.2,31.51-21.24,26.6-12.09,63.36-19.58,103.95-19.58s77.35,7.48,103.95,19.58c13.3,6.05,24.07,13.25,31.51,21.24,3.72,4,6.61,8.19,8.57,12.55.98,2.18,1.73,4.39,2.23,6.64v-.62h.76Z"/>
          <path class="cls-84" d="M302.42,64.47H12.65v.7c.5-2.22,1.23-4.41,2.2-6.56,1.94-4.3,4.79-8.45,8.46-12.4,7.35-7.9,17.99-15.02,31.13-20.99,26.29-11.95,62.6-19.34,102.72-19.34s76.43,7.39,102.72,19.34c13.14,5.98,23.78,13.09,31.13,20.99,3.68,3.95,6.53,8.1,8.46,12.4.97,2.15,1.71,4.34,2.2,6.56v-.7h.75Z"/>
          <path class="cls-73" d="M300.67,64.47H14.39v.78c.49-2.19,1.22-4.35,2.17-6.48,1.91-4.25,4.73-8.34,8.36-12.25,7.26-7.81,17.77-14.84,30.76-20.74,25.97-11.81,61.85-19.11,101.48-19.11s75.51,7.3,101.48,19.11c12.99,5.9,23.49,12.93,30.76,20.74,3.63,3.9,6.45,8,8.36,12.25.96,2.12,1.68,4.28,2.17,6.48v-.78h.74Z"/>
          <path class="cls-73" d="M298.92,64.47H16.13v.86c.48-2.17,1.2-4.3,2.15-6.4,1.89-4.2,4.67-8.24,8.26-12.1,7.17-7.71,17.55-14.65,30.38-20.49,25.65-11.66,61.09-18.88,100.24-18.88s74.59,7.21,100.24,18.88c12.83,5.83,23.21,12.78,30.38,20.49,3.59,3.86,6.37,7.9,8.26,12.1.94,2.1,1.66,4.23,2.15,6.4v-.86h.73Z"/>
          <path class="cls-158" d="M297.17,64.47H17.87v.94c.48-2.14,1.19-4.25,2.12-6.32,1.87-4.14,4.62-8.14,8.16-11.95,7.08-7.62,17.34-14.47,30.01-20.23,25.34-11.52,60.34-18.64,99-18.64s73.67,7.12,99,18.64c12.67,5.76,22.92,12.62,30.01,20.23,3.54,3.81,6.29,7.8,8.16,11.95.93,2.07,1.64,4.18,2.12,6.32v-.94h.72Z"/>
          <path class="cls-140" d="M295.42,64.47H19.61v1.02c.47-2.11,1.17-4.2,2.1-6.24,1.84-4.09,4.56-8.04,8.06-11.8,7-7.52,17.12-14.29,29.63-19.98,25.02-11.37,59.59-18.41,97.77-18.41s72.74,7.04,97.77,18.41c12.51,5.69,22.63,12.46,29.63,19.98,3.5,3.76,6.21,7.71,8.06,11.8.92,2.05,1.62,4.13,2.1,6.24v-1.02h.71Z"/>
          <path class="cls-64" d="M293.67,64.47H21.35v1.1c.47-2.09,1.16-4.14,2.07-6.16,1.82-4.04,4.5-7.94,7.95-11.65,6.91-7.42,16.9-14.11,29.26-19.73,24.7-11.23,58.83-18.18,96.53-18.18s71.82,6.95,96.53,18.18c12.35,5.62,22.35,12.3,29.26,19.73,3.45,3.71,6.14,7.61,7.95,11.65.91,2.02,1.6,4.08,2.07,6.16v-1.1h.7Z"/>
          <path class="cls-74" d="M291.92,64.47H23.1v1.18c.46-2.06,1.14-4.09,2.04-6.08,1.8-3.99,4.44-7.84,7.85-11.5,6.82-7.33,16.69-13.93,28.88-19.47,24.39-11.09,58.08-17.94,95.29-17.94s70.9,6.86,95.29,17.94c12.19,5.54,22.06,12.14,28.88,19.47,3.41,3.66,6.06,7.51,7.85,11.5.9,1.99,1.58,4.02,2.04,6.08v-1.18h.7Z"/>
          <path class="cls-31" d="M290.17,64.47H24.84v1.27c.45-2.03,1.13-4.04,2.02-6,1.77-3.94,4.38-7.73,7.75-11.35,6.73-7.23,16.47-13.75,28.51-19.22,24.07-10.94,57.32-17.71,94.05-17.71s69.98,6.77,94.05,17.71c12.04,5.47,21.77,11.99,28.51,19.22,3.37,3.62,5.98,7.41,7.75,11.35.89,1.97,1.56,3.97,2.02,6v-1.27h.69Z"/>
          <path class="cls-143" d="M288.42,64.47H26.58v1.35c.45-2.01,1.11-3.98,1.99-5.93,1.75-3.88,4.33-7.63,7.65-11.2,6.64-7.14,16.25-13.57,28.13-18.97,23.75-10.8,56.57-17.48,92.82-17.48s69.06,6.68,92.82,17.48c11.88,5.4,21.49,11.83,28.13,18.97,3.32,3.57,5.9,7.32,7.65,11.2.87,1.94,1.54,3.92,1.99,5.93v-1.35h.68Z"/>
          <path class="cls-79" d="M286.67,64.47H28.32v1.43c.44-1.98,1.1-3.93,1.96-5.85,1.73-3.83,4.27-7.53,7.55-11.05,6.55-7.04,16.04-13.39,27.76-18.72,23.44-10.65,55.81-17.25,91.58-17.25s68.14,6.59,91.58,17.25c11.72,5.33,21.2,11.67,27.76,18.72,3.28,3.52,5.82,7.22,7.55,11.05.86,1.92,1.52,3.87,1.96,5.85v-1.43h.67Z"/>
          <path class="cls-153" d="M284.92,64.47H30.06v1.51c.44-1.95,1.09-3.88,1.94-5.77,1.7-3.78,4.21-7.43,7.44-10.9,6.47-6.95,15.82-13.21,27.38-18.46,23.12-10.51,55.06-17.01,90.34-17.01s67.22,6.5,90.34,17.01c11.56,5.26,20.92,11.51,27.38,18.46,3.23,3.47,5.74,7.12,7.44,10.9.85,1.89,1.5,3.81,1.94,5.77v-1.51h.66Z"/>
          <path class="cls-164" d="M283.17,64.47H31.8v1.59c.43-1.93,1.07-3.82,1.91-5.69,1.68-3.73,4.15-7.33,7.34-10.75,6.38-6.85,15.6-13.03,27-18.21,22.8-10.37,54.31-16.78,89.1-16.78s66.3,6.41,89.1,16.78c11.4,5.18,20.63,11.36,27,18.21,3.19,3.43,5.66,7.02,7.34,10.75.84,1.86,1.48,3.76,1.91,5.69v-1.59h.65Z"/>
          <path class="cls-40" d="M281.42,64.47H33.54v1.67c.42-1.9,1.06-3.77,1.88-5.61,1.66-3.68,4.1-7.22,7.24-10.6,6.29-6.76,15.39-12.85,26.63-17.96,22.49-10.22,53.55-16.55,87.86-16.55s65.38,6.32,87.86,16.55c11.24,5.11,20.34,11.2,26.63,17.96,3.14,3.38,5.59,6.93,7.24,10.6.83,1.84,1.46,3.71,1.88,5.61v-1.67h.64Z"/>
          <path class="cls-141" d="M279.67,64.47H35.28v1.75c.42-1.87,1.04-3.72,1.86-5.53,1.63-3.63,4.04-7.12,7.14-10.45,6.2-6.66,15.17-12.66,26.25-17.7,22.17-10.08,52.8-16.31,86.63-16.31s64.46,6.23,86.63,16.31c11.08,5.04,20.06,11.04,26.25,17.7,3.1,3.33,5.51,6.83,7.14,10.45.82,1.81,1.44,3.66,1.86,5.53v-1.75h.63Z"/>
          <path class="cls-141" d="M277.92,64.47H37.02v1.84c.41-1.85,1.03-3.66,1.83-5.45,1.61-3.57,3.98-7.02,7.04-10.31,6.11-6.57,14.95-12.48,25.88-17.45,21.85-9.94,52.04-16.08,85.39-16.08s63.54,6.14,85.39,16.08c10.93,4.97,19.77,10.88,25.88,17.45,3.06,3.28,5.43,6.73,7.04,10.31.8,1.79,1.42,3.61,1.83,5.45v-1.84h.62Z"/>
          <path class="cls-125" d="M276.17,64.47H38.77v1.92c.41-1.82,1.01-3.61,1.8-5.37,1.59-3.52,3.92-6.92,6.93-10.16,6.02-6.47,14.74-12.3,25.5-17.2,21.54-9.79,51.29-15.85,84.15-15.85s62.62,6.06,84.15,15.85c10.77,4.9,19.48,10.72,25.5,17.2,3.01,3.24,5.35,6.63,6.93,10.16.79,1.76,1.4,3.55,1.8,5.37v-1.92h.61Z"/>
          <path class="cls-125" d="M274.42,64.47H40.51v2c.4-1.79,1-3.56,1.78-5.29,1.56-3.47,3.87-6.82,6.83-10.01,5.93-6.38,14.52-12.12,25.13-16.94,21.22-9.65,50.53-15.61,82.91-15.61s61.7,5.97,82.91,15.61c10.61,4.82,19.2,10.57,25.13,16.94,2.97,3.19,5.27,6.54,6.83,10.01.78,1.74,1.38,3.5,1.78,5.29v-2h.61Z"/>
          <path class="cls-142" d="M272.67,64.47H42.25v2.08c.39-1.77.98-3.5,1.75-5.21,1.54-3.42,3.81-6.72,6.73-9.86,5.85-6.28,14.3-11.94,24.75-16.69,20.9-9.5,49.78-15.38,81.68-15.38s60.77,5.88,81.68,15.38c10.45,4.75,18.91,10.41,24.75,16.69,2.92,3.14,5.19,6.44,6.73,9.86.77,1.71,1.36,3.45,1.75,5.21v-2.08h.6Z"/>
          <path class="cls-142" d="M270.92,64.47H43.99v2.16c.39-1.74.97-3.45,1.72-5.14,1.52-3.37,3.75-6.61,6.63-9.71,5.76-6.19,14.09-11.76,24.38-16.44,20.59-9.36,49.03-15.15,80.44-15.15s59.85,5.79,80.44,15.15c10.29,4.68,18.62,10.25,24.38,16.44,2.88,3.09,5.11,6.34,6.63,9.71.76,1.68,1.34,3.4,1.72,5.14v-2.16h.59Z"/>
          <path class="cls-142" d="M269.17,64.47H45.73v2.24c.38-1.71.95-3.4,1.7-5.06,1.49-3.31,3.69-6.51,6.53-9.56,5.67-6.09,13.87-11.58,24-16.19,20.27-9.22,48.27-14.91,79.2-14.91s58.93,5.7,79.2,14.91c10.13,4.61,18.34,10.09,24,16.19,2.83,3.05,5.03,6.24,6.53,9.56.75,1.66,1.31,3.34,1.7,5.06v-2.24h.58Z"/>
          <path class="cls-152" d="M267.42,64.47H47.47v2.32c.38-1.69.94-3.35,1.67-4.98,1.47-3.26,3.63-6.41,6.42-9.41,5.58-6,13.65-11.4,23.63-15.93,19.95-9.07,47.52-14.68,77.96-14.68s58.01,5.61,77.96,14.68c9.98,4.54,18.05,9.94,23.63,15.93,2.79,3,4.96,6.15,6.42,9.41.73,1.63,1.29,3.29,1.67,4.98v-2.32h.57Z"/>
          <path class="cls-44" d="M265.67,64.47H49.21v2.4c.37-1.66.92-3.29,1.64-4.9,1.45-3.21,3.58-6.31,6.32-9.26,5.49-5.9,13.44-11.22,23.25-15.68,19.64-8.93,46.76-14.45,76.73-14.45s57.09,5.52,76.73,14.45c9.82,4.46,17.76,9.78,23.25,15.68,2.75,2.95,4.88,6.05,6.32,9.26.72,1.61,1.27,3.24,1.64,4.9v-2.4h.56Z"/>
          <path class="cls-108" d="M263.92,64.47H50.95v2.49c.36-1.63.91-3.24,1.62-4.82,1.42-3.16,3.52-6.21,6.22-9.11,5.4-5.81,13.22-11.04,22.88-15.43,19.32-8.78,46.01-14.22,75.49-14.22s56.17,5.43,75.49,14.22c9.66,4.39,17.48,9.62,22.88,15.43,2.7,2.9,4.8,5.95,6.22,9.11.71,1.58,1.25,3.19,1.62,4.82v-2.49h.55Z"/>
          <path class="cls-123" d="M262.17,64.47H52.69v2.57c.36-1.6.89-3.19,1.59-4.74,1.4-3.11,3.46-6.11,6.12-8.96,5.31-5.71,13-10.86,22.5-15.17,19-8.64,45.25-13.98,74.25-13.98s55.25,5.34,74.25,13.98c9.5,4.32,17.19,9.46,22.5,15.17,2.66,2.86,4.72,5.85,6.12,8.96.7,1.55,1.23,3.14,1.59,4.74v-2.57h.54Z"/>
          <path class="cls-138" d="M260.42,64.47H54.44v2.65c.35-1.58.88-3.13,1.56-4.66,1.38-3.06,3.4-6,6.02-8.81,5.23-5.62,12.79-10.67,22.13-14.92,18.69-8.5,44.5-13.75,73.01-13.75s54.33,5.25,73.01,13.75c9.34,4.25,16.9,9.31,22.13,14.92,2.61,2.81,4.64,5.76,6.02,8.81.69,1.53,1.21,3.08,1.56,4.66v-2.65h.53Z"/>
          <path class="cls-156" d="M258.67,64.47H56.18v2.73c.35-1.55.86-3.08,1.54-4.58,1.35-3,3.35-5.9,5.91-8.66,5.14-5.52,12.57-10.49,21.75-14.67,18.37-8.35,43.75-13.52,71.78-13.52s53.41,5.17,71.78,13.52c9.18,4.18,16.62,9.15,21.75,14.67,2.57,2.76,4.56,5.66,5.91,8.66.68,1.5,1.19,3.03,1.54,4.58v-2.73h.52Z"/>
          <path class="cls-41" d="M256.92,64.47H57.92v2.81c.34-1.52.85-3.03,1.51-4.5,1.33-2.95,3.29-5.8,5.81-8.51,5.05-5.43,12.35-10.31,21.38-14.42,18.05-8.21,42.99-13.28,70.54-13.28s52.49,5.08,70.54,13.28c9.03,4.1,16.33,8.99,21.38,14.42,2.52,2.71,4.48,5.56,5.81,8.51.66,1.48,1.17,2.98,1.51,4.5v-2.81h.52Z"/>
          <path class="cls-41" d="M255.17,64.47H59.66v2.89c.33-1.5.83-2.97,1.49-4.42,1.31-2.9,3.23-5.7,5.71-8.36,4.96-5.33,12.14-10.13,21-14.16,17.74-8.06,42.24-13.05,69.3-13.05s51.57,4.99,69.3,13.05c8.87,4.03,16.04,8.83,21,14.16,2.48,2.67,4.41,5.46,5.71,8.36.65,1.45,1.15,2.93,1.49,4.42v-2.89h.51Z"/>
          <path class="cls-41" d="M253.42,64.47H61.4v2.97c.33-1.47.82-2.92,1.46-4.35,1.28-2.85,3.17-5.6,5.61-8.21,4.87-5.24,11.92-9.95,20.63-13.91,17.42-7.92,41.48-12.82,68.06-12.82s50.65,4.9,68.06,12.82c8.71,3.96,15.76,8.67,20.63,13.91,2.44,2.62,4.33,5.37,5.61,8.21.64,1.42,1.13,2.87,1.46,4.35v-2.97h.5Z"/>
          <path class="cls-88" d="M251.67,64.47H63.14v3.06c.32-1.44.8-2.87,1.43-4.27,1.26-2.8,3.12-5.49,5.51-8.07,4.78-5.14,11.7-9.77,20.25-13.66,17.1-7.78,40.73-12.58,66.83-12.58s49.72,4.81,66.83,12.58c8.55,3.89,15.47,8.52,20.25,13.66,2.39,2.57,4.25,5.27,5.51,8.07.63,1.4,1.11,2.82,1.43,4.27v-3.06h.49Z"/>
          <path class="cls-88" d="M249.92,64.47H64.88v3.14c.32-1.42.79-2.81,1.41-4.19,1.24-2.75,3.06-5.39,5.4-7.92,4.69-5.05,11.49-9.59,19.88-13.4,16.79-7.63,39.98-12.35,65.59-12.35s48.8,4.72,65.59,12.35c8.39,3.82,15.18,8.36,19.88,13.4,2.35,2.52,4.17,5.17,5.4,7.92.62,1.37,1.09,2.77,1.41,4.19v-3.14h.48Z"/>
          <path class="cls-15" d="M248.17,64.47H66.62v3.22c.31-1.39.77-2.76,1.38-4.11,1.21-2.69,3-5.29,5.3-7.77,4.61-4.95,11.27-9.41,19.5-13.15,16.47-7.49,39.22-12.12,64.35-12.12s47.88,4.63,64.35,12.12c8.23,3.74,14.9,8.2,19.5,13.15,2.3,2.47,4.09,5.07,5.3,7.77.61,1.35,1.07,2.72,1.38,4.11v-3.22h.47Z"/>
          <path class="cls-151" d="M246.42,64.47H68.36v3.3c.3-1.36.76-2.71,1.35-4.03,1.19-2.64,2.94-5.19,5.2-7.62,4.52-4.85,11.05-9.23,19.13-12.9,16.15-7.34,38.47-11.89,63.11-11.89s46.96,4.54,63.11,11.89c8.08,3.67,14.61,8.04,19.13,12.9,2.26,2.43,4.01,4.98,5.2,7.62.59,1.32,1.05,2.66,1.35,4.03v-3.3h.46Z"/>
          <path class="cls-151" d="M244.67,64.47H70.11v3.38c.3-1.34.74-2.66,1.33-3.95,1.17-2.59,2.88-5.09,5.1-7.47,4.43-4.76,10.84-9.05,18.75-12.65,15.84-7.2,37.71-11.65,61.88-11.65s46.04,4.45,61.88,11.65c7.92,3.6,14.33,7.89,18.75,12.65,2.21,2.38,3.93,4.88,5.1,7.47.58,1.29,1.03,2.61,1.33,3.95v-3.38h.45Z"/>
          <path class="cls-151" d="M242.92,64.47H71.85v3.46c.29-1.31.73-2.6,1.3-3.87,1.14-2.54,2.83-4.99,5-7.32,4.34-4.66,10.62-8.86,18.38-12.39,15.52-7.06,36.96-11.42,60.64-11.42s45.12,4.36,60.64,11.42c7.76,3.53,14.04,7.73,18.38,12.39,2.17,2.33,3.85,4.78,5,7.32.57,1.27,1.01,2.56,1.3,3.87v-3.46h.44Z"/>
          <path class="cls-151" d="M241.17,64.47H73.59v3.54c.29-1.28.71-2.55,1.27-3.79,1.12-2.49,2.77-4.88,4.89-7.17,4.25-4.57,10.4-8.68,18-12.14,15.2-6.91,36.2-11.19,59.4-11.19s44.2,4.27,59.4,11.19c7.6,3.46,13.75,7.57,18,12.14,2.13,2.28,3.78,4.68,4.89,7.17.56,1.24.99,2.51,1.27,3.79v-3.54h.43Z"/>
          <path class="cls-19" d="M239.42,64.47H75.33v3.63c.28-1.26.7-2.5,1.25-3.71,1.1-2.43,2.71-4.78,4.79-7.02,4.16-4.47,10.19-8.5,17.63-11.89,14.89-6.77,35.45-10.95,58.16-10.95s43.28,4.19,58.16,10.95c7.44,3.38,13.47,7.41,17.63,11.89,2.08,2.24,3.7,4.59,4.79,7.02.55,1.22.97,2.46,1.25,3.71v-3.63h.42Z"/>
          <path class="cls-19" d="M237.67,64.47H78.29v.07c1.07-2.38,2.65-4.68,4.69-6.87,4.07-4.38,9.97-8.32,17.25-11.63,14.57-6.62,34.7-10.72,56.93-10.72s42.36,4.1,56.93,10.72c7.28,3.31,13.18,7.26,17.25,11.63,2.04,2.19,3.62,4.49,4.69,6.87v-.07h1.64Z"/>
          <path class="cls-32" d="M235.92,64.47H80v.23c1.05-2.33,2.6-4.58,4.59-6.72,3.99-4.28,9.75-8.14,16.88-11.38,14.25-6.48,33.94-10.49,55.69-10.49s41.44,4.01,55.69,10.49c7.13,3.24,12.89,7.1,16.88,11.38,1.99,2.14,3.54,4.39,4.59,6.72v-.23h1.6Z"/>
          <path class="cls-32" d="M234.17,64.47H81.72v.39c1.03-2.28,2.54-4.48,4.49-6.57,3.9-4.19,9.54-7.96,16.5-11.13,13.94-6.34,33.19-10.25,54.45-10.25s40.52,3.92,54.45,10.25c6.97,3.17,12.61,6.94,16.5,11.13,1.95,2.09,3.46,4.29,4.49,6.57v-.39h1.56Z"/>
          <path class="cls-145" d="M232.42,64.47H83.43v.55c1-2.23,2.48-4.38,4.39-6.42,3.81-4.09,9.32-7.78,16.13-10.88,13.62-6.19,32.43-10.02,53.21-10.02s39.6,3.83,53.21,10.02c6.81,3.1,12.32,6.78,16.13,10.88,1.9,2.05,3.38,4.19,4.39,6.42v-.55h1.53Z"/>
          <path class="cls-145" d="M230.67,64.47H85.15v.71c.98-2.18,2.42-4.27,4.28-6.27,3.72-4,9.1-7.6,15.75-10.62,13.3-6.05,31.68-9.79,51.98-9.79s38.67,3.74,51.98,9.79c6.65,3.02,12.03,6.62,15.75,10.62,1.86,2,3.3,4.1,4.28,6.27v-.71h1.49Z"/>
          <path class="cls-47" d="M228.92,64.47H86.86v.87c.96-2.12,2.37-4.17,4.18-6.12,3.63-3.9,8.89-7.42,15.38-10.37,12.99-5.9,30.92-9.55,50.74-9.55s37.75,3.65,50.74,9.55c6.49,2.95,11.75,6.47,15.38,10.37,1.82,1.95,3.23,4,4.18,6.12v-.87h1.46Z"/>
          <path class="cls-47" d="M227.17,64.47H88.58v1.03c.93-2.07,2.31-4.07,4.08-5.97,3.54-3.81,8.67-7.24,15-10.12,12.67-5.76,30.17-9.32,49.5-9.32s36.83,3.56,49.5,9.32c6.33,2.88,11.46,6.31,15,10.12,1.77,1.9,3.15,3.9,4.08,5.97v-1.03h1.42Z"/>
          <path class="cls-47" d="M225.42,64.47H90.29v1.19c.91-2.02,2.25-3.97,3.98-5.82,3.45-3.71,8.45-7.06,14.63-9.86,12.35-5.62,29.42-9.09,48.26-9.09s35.91,3.47,48.26,9.09c6.18,2.81,11.17,6.15,14.63,9.86,1.73,1.86,3.07,3.8,3.98,5.82v-1.19h1.39Z"/>
          <path class="cls-53" d="M223.67,64.47H92.01v1.36c.89-1.97,2.19-3.87,3.88-5.68,3.37-3.62,8.24-6.87,14.25-9.61,12.04-5.47,28.66-8.86,47.03-8.86s34.99,3.38,47.03,8.86c6.02,2.74,10.89,5.99,14.25,9.61,1.68,1.81,2.99,3.71,3.88,5.68v-1.36h1.35Z"/>
          <path class="cls-53" d="M221.92,64.47H93.72v1.52c.86-1.92,2.13-3.77,3.77-5.53,3.28-3.52,8.02-6.69,13.88-9.36,11.72-5.33,27.91-8.62,45.79-8.62s34.07,3.3,45.79,8.62c5.86,2.66,10.6,5.84,13.88,9.36,1.64,1.76,2.91,3.61,3.77,5.53v-1.52h1.32Z"/>
          <path class="cls-28" d="M220.17,64.47h-124.73v1.68c.84-1.86,2.08-3.66,3.67-5.38,3.19-3.43,7.8-6.51,13.5-9.1,11.4-5.18,27.15-8.39,44.55-8.39s33.15,3.21,44.55,8.39c5.7,2.59,10.31,5.68,13.5,9.1,1.59,1.71,2.83,3.51,3.67,5.38v-1.68h1.28Z"/>
          <path class="cls-159" d="M218.41,64.47h-121.27v1.84c.82-1.81,2.02-3.56,3.57-5.23,3.1-3.33,7.58-6.33,13.13-8.85,11.08-5.04,26.4-8.16,43.31-8.16s32.23,3.12,43.31,8.16c5.54,2.52,10.03,5.52,13.13,8.85,1.55,1.67,2.75,3.41,3.57,5.23v-1.84h1.24Z"/>
          <path class="cls-159" d="M216.66,64.47h-117.8v2c.79-1.76,1.96-3.46,3.47-5.08,3.01-3.24,7.37-6.15,12.75-8.6,10.77-4.9,25.64-7.92,42.08-7.92s31.31,3.03,42.08,7.92c5.38,2.45,9.74,5.36,12.75,8.6,1.51,1.62,2.67,3.32,3.47,5.08v-2h1.21Z"/>
          <path class="cls-159" d="M214.91,64.47h-114.34v2.16c.77-1.71,1.9-3.36,3.37-4.93,2.92-3.14,7.15-5.97,12.38-8.35,10.45-4.75,24.89-7.69,40.84-7.69s30.39,2.94,40.84,7.69c5.23,2.38,9.45,5.2,12.38,8.35,1.46,1.57,2.6,3.22,3.37,4.93v-2.16h1.17Z"/>
          <path class="cls-159" d="M213.16,64.47h-110.87v2.32c.75-1.66,1.85-3.26,3.26-4.78,2.83-3.05,6.93-5.79,12-8.09,10.13-4.61,24.14-7.46,39.6-7.46s29.47,2.85,39.6,7.46c5.07,2.3,9.17,5.05,12,8.09,1.42,1.52,2.52,3.12,3.26,4.78v-2.32h1.14Z"/>
          <path class="cls-121" d="M211.41,64.47h-107.41v2.48c.72-1.61,1.79-3.15,3.16-4.63,2.75-2.95,6.72-5.61,11.63-7.84,9.82-4.46,23.38-7.22,38.36-7.22s28.55,2.76,38.36,7.22c4.91,2.23,8.88,4.89,11.63,7.84,1.37,1.48,2.44,3.02,3.16,4.63v-2.48h1.1Z"/>
          <path class="cls-121" d="M209.66,64.47h-103.94v2.64c.7-1.55,1.73-3.05,3.06-4.48,2.66-2.86,6.5-5.43,11.25-7.59,9.5-4.32,22.63-6.99,37.13-6.99s27.62,2.67,37.13,6.99c4.75,2.16,8.6,4.73,11.25,7.59,1.33,1.43,2.36,2.93,3.06,4.48v-2.64h1.07Z"/>
          <path class="cls-121" d="M207.91,64.47h-100.48v2.8c.68-1.5,1.67-2.95,2.96-4.33,2.57-2.76,6.28-5.25,10.88-7.33,9.18-4.18,21.87-6.76,35.89-6.76s26.7,2.58,35.89,6.76c4.59,2.09,8.31,4.57,10.88,7.33,1.28,1.38,2.28,2.83,2.96,4.33v-2.8h1.03Z"/>
          <path class="cls-121" d="M206.16,64.47h-97.01v2.96c.65-1.45,1.62-2.85,2.86-4.18,2.48-2.67,6.07-5.07,10.5-7.08,8.87-4.03,21.12-6.53,34.65-6.53s25.78,2.49,34.65,6.53c4.43,2.02,8.02,4.42,10.5,7.08,1.24,1.33,2.2,2.73,2.86,4.18v-2.96h1Z"/>
          <path class="cls-97" d="M204.41,64.47h-93.55v3.12c.63-1.4,1.56-2.75,2.75-4.03,2.39-2.57,5.85-4.88,10.13-6.83,8.55-3.89,20.36-6.29,33.41-6.29s24.86,2.4,33.41,6.29c4.28,1.94,7.74,4.26,10.13,6.83,1.2,1.29,2.12,2.63,2.75,4.03v-3.12h.96Z"/>
          <path class="cls-97" d="M202.66,64.47h-90.08v3.28c.61-1.35,1.5-2.65,2.65-3.88,2.3-2.47,5.63-4.7,9.75-6.58,8.23-3.74,19.61-6.06,32.18-6.06s23.94,2.32,32.18,6.06c4.12,1.87,7.45,4.1,9.75,6.58,1.15,1.24,2.05,2.54,2.65,3.88v-3.28h.92Z"/>
          <path class="cls-97" d="M200.91,64.47h-86.62v3.44c.58-1.29,1.44-2.54,2.55-3.73,2.21-2.38,5.42-4.52,9.38-6.32,7.92-3.6,18.86-5.83,30.94-5.83s23.02,2.23,30.94,5.83c3.96,1.8,7.16,3.94,9.38,6.32,1.11,1.19,1.97,2.44,2.55,3.73v-3.44h.89Z"/>
          <path class="cls-97" d="M199.16,64.47h-80.71v.02c2.13-2.28,5.2-4.34,9-6.07,7.6-3.46,18.1-5.59,29.7-5.59s22.1,2.14,29.7,5.59c3.8,1.73,6.88,3.79,9,6.07v-.02h3.3Z"/>
          <path class="cls-97" d="M197.41,64.47h-77.34v.33c2.04-2.19,4.98-4.16,8.63-5.82,7.28-3.31,17.35-5.36,28.46-5.36s21.18,2.05,28.46,5.36c3.64,1.66,6.59,3.63,8.63,5.82v-.33h3.16Z"/>
          <path class="cls-97" d="M195.66,64.47h-73.98v.64c1.95-2.09,4.77-3.98,8.25-5.56,6.97-3.17,16.59-5.13,27.23-5.13s20.26,1.96,27.23,5.13c3.48,1.58,6.3,3.47,8.25,5.56v-.64h3.03Z"/>
          <path class="cls-97" d="M193.91,64.47h-70.62v.94c1.86-2,4.55-3.8,7.88-5.31,6.65-3.02,15.84-4.89,25.99-4.89s19.34,1.87,25.99,4.89c3.33,1.51,6.02,3.31,7.88,5.31v-.94h2.89Z"/>
          <path class="cls-97" d="M192.16,64.47h-67.25v1.25c1.77-1.9,4.33-3.62,7.5-5.06,6.33-2.88,15.08-4.66,24.75-4.66s18.42,1.78,24.75,4.66c3.17,1.44,5.73,3.15,7.5,5.06v-1.25h2.75Z"/>
          <path class="cls-110" d="M190.41,64.47h-63.89v1.56c1.68-1.81,4.12-3.44,7.13-4.81,6.02-2.74,14.33-4.43,23.51-4.43s17.5,1.69,23.51,4.43c3.01,1.37,5.44,3,7.13,4.81v-1.56h2.61Z"/>
          <path class="cls-110" d="M188.66,64.47h-60.53v1.87c1.59-1.71,3.9-3.26,6.75-4.55,5.7-2.59,13.58-4.19,22.28-4.19s16.57,1.6,22.28,4.19c2.85,1.3,5.16,2.84,6.75,4.55v-1.87h2.48Z"/>
          <path class="cls-110" d="M186.91,64.47h-57.17v2.18c1.51-1.62,3.68-3.08,6.38-4.3,5.38-2.45,12.82-3.96,21.04-3.96s15.65,1.51,21.04,3.96c2.69,1.22,4.87,2.68,6.38,4.3v-2.18h2.34Z"/>
          <path class="cls-110" d="M185.16,64.47h-53.8v2.49c1.42-1.52,3.47-2.89,6-4.05,5.07-2.3,12.07-3.73,19.8-3.73s14.73,1.42,19.8,3.73c2.53,1.15,4.58,2.52,6,4.05v-2.49h2.2Z"/>
          <path class="cls-110" d="M183.41,64.47h-50.44v2.8c1.33-1.43,3.25-2.71,5.63-3.79,4.75-2.16,11.31-3.5,18.56-3.5s13.81,1.34,18.56,3.5c2.38,1.08,4.3,2.37,5.63,3.79v-2.8h2.06Z"/>
          <path class="cls-110" d="M181.66,64.47h-47.08v3.11c1.24-1.33,3.03-2.53,5.25-3.54,4.43-2.02,10.56-3.26,17.33-3.26s12.89,1.25,17.33,3.26c2.22,1.01,4.01,2.21,5.25,3.54v-3.11h1.93Z"/>
          <path class="cls-110" d="M179.91,64.47h-38.84v.13c4.12-1.87,9.81-3.03,16.09-3.03s11.97,1.16,16.09,3.03v-.13h6.66Z"/>
          <path class="cls-110" d="M178.16,64.47h-35.85v.7c3.8-1.73,9.05-2.8,14.85-2.8s11.05,1.07,14.85,2.8v-.7h6.15Z"/>
          <path class="cls-110" d="M176.41,64.47h-32.86v1.26c3.48-1.58,8.3-2.56,13.61-2.56s10.13.98,13.61,2.56v-1.26h5.64Z"/>
          <path class="cls-110" d="M174.66,64.47h-29.88v1.82c3.17-1.44,7.54-2.33,12.38-2.33s9.21.89,12.38,2.33v-1.82h5.13Z"/>
        </g>
        <g class="cls-168">
          <g class="cls-166">
            <g class="cls-167">
              <rect class="cls-110" x="54.6" y="20.7" width="241.71" height="65.83"/>
              <path class="cls-110" d="M296.25,48.82c.58,12.2-11.69,23.84-32,32.82-5.08,2.24-10.66,4.32-16.66,6.2v-.62H102.58v2.11c-21.07-7.01-34.39-17.44-34.97-29.64-.58-12.2,11.69-23.84,32-32.82,10.15-4.49,22.32-8.31,35.89-11.19v4.34h125.78v-.83c21.07,7.01,34.39,17.44,34.97,29.64Z"/>
              <path class="cls-119" d="M295.56,48.85c.58,12.12-11.62,23.7-31.81,32.62-5.05,2.23-10.59,4.29-16.56,6.16v-.42H103.06v1.9c-20.94-6.97-34.18-17.34-34.76-29.46-.58-12.12,11.62-23.7,31.81-32.62,10.09-4.46,22.18-8.26,35.67-11.13v4.11h125.03v-.62c20.94,6.97,34.18,17.34,34.76,29.46Z"/>
              <path class="cls-120" d="M294.87,48.88c.57,12.05-11.55,23.56-31.61,32.42-5.02,2.22-10.53,4.27-16.46,6.12v-.22H103.54v1.69c-20.81-6.92-33.97-17.23-34.55-29.28-.57-12.05,11.55-23.56,31.61-32.42,10.03-4.43,22.05-8.21,35.45-11.06v3.87h124.27v-.41c20.81,6.92,33.97,17.23,34.55,29.28Z"/>
              <path class="cls-56" d="M294.18,48.91c.57,11.97-11.48,23.41-31.42,32.23-4.99,2.2-10.46,4.24-16.36,6.09h0s-142.39-.01-142.39-.01v1.48c-20.69-6.88-33.77-17.13-34.34-29.1-.57-11.97,11.48-23.41,31.42-32.23,9.97-4.41,21.91-8.16,35.24-10.99v3.64h123.51v-.2c20.69,6.88,33.77,17.13,34.34,29.1Z"/>
              <path class="cls-131" d="M293.49,48.95c.57,11.9-11.41,23.27-31.23,32.03-9.91,4.38-21.78,8.11-35.02,10.92v-4.69h-122.75v1.27c-20.56-6.84-33.56-17.02-34.12-28.92-.57-11.9,11.41-23.27,31.23-32.03,9.91-4.38,21.78-8.11,35.02-10.92v3.41h105.99v-4.47c6.01,1.27,11.62,2.77,16.76,4.48,20.56,6.84,33.56,17.02,34.12,28.92Z"/>
              <path class="cls-27" d="M292.8,48.98c.56,11.83-11.34,23.13-31.03,31.83-9.85,4.35-21.64,8.06-34.81,10.86v-4.45h-121.99v1.06c-20.43-6.8-33.35-16.91-33.91-28.74-.56-11.83,11.34-23.13,31.03-31.83,9.85-4.35,21.64-8.06,34.81-10.86v3.18h105.33v-4.23c5.97,1.26,11.55,2.75,16.66,4.45,20.43,6.8,33.35,16.91,33.91,28.74Z"/>
              <path class="cls-14" d="M292.11,49.01c.56,11.75-11.27,22.98-30.84,31.63-9.79,4.33-21.51,8.01-34.59,10.79v-4.22h-121.23v.84c-20.31-6.75-33.14-16.81-33.7-28.56-.56-11.75,11.27-22.98,30.84-31.63,9.79-4.33,21.51-8.01,34.59-10.79v2.94h104.68v-3.99c5.93,1.25,11.48,2.73,16.55,4.42,20.31,6.75,33.14,16.81,33.7,28.56Z"/>
              <path class="cls-134" d="M291.42,49.04c.56,11.68-11.2,22.84-30.65,31.43-9.73,4.3-21.37,7.96-34.37,10.72v-3.99h-120.47v.63c-20.18-6.71-32.94-16.7-33.49-28.38-.56-11.68,11.2-22.84,30.65-31.43,9.73-4.3,21.37-7.96,34.37-10.72v2.71h104.02v-3.75c5.9,1.24,11.41,2.72,16.45,4.39,20.18,6.71,32.94,16.7,33.49,28.38Z"/>
              <path class="cls-144" d="M290.73,49.08c.55,11.61-11.13,22.69-30.45,31.24-9.66,4.27-21.24,7.91-34.16,10.65v-3.76h-119.71v.42c-20.05-6.67-32.73-16.6-33.28-28.21-.55-11.61,11.13-22.69,30.45-31.24,9.66-4.27,21.24-7.91,34.16-10.65v2.48h103.37v-3.51c5.86,1.24,11.33,2.7,16.35,4.37,20.05,6.67,32.73,16.6,33.28,28.21Z"/>
              <path class="cls-49" d="M290.04,49.11c.55,11.53-11.06,22.55-30.26,31.04-9.6,4.24-21.11,7.86-33.94,10.59v-3.52h-118.96v.21c-19.92-6.63-32.52-16.49-33.07-28.03-.55-11.53,11.06-22.55,30.26-31.04,9.6-4.24,21.11-7.86,33.94-10.59v2.24h102.71v-3.27c5.82,1.23,11.26,2.68,16.24,4.34,19.92,6.63,32.52,16.49,33.07,28.03Z"/>
              <path class="cls-57" d="M289.35,49.14c.54,11.46-10.99,22.41-30.07,30.84-9.54,4.22-20.97,7.81-33.72,10.52v-3.29h-102.06v4.31c-5.79-1.22-11.19-2.67-16.14-4.31-19.8-6.59-32.31-16.39-32.86-27.85-.54-11.46,10.99-22.41,30.07-30.84,9.54-4.22,20.97-7.81,33.72-10.52v2.01h102.06v-3.03c5.79,1.22,11.19,2.67,16.14,4.31,19.8,6.59,32.31,16.39,32.86,27.85Z"/>
              <path class="cls-133" d="M288.67,49.18c.54,11.39-10.91,22.26-29.88,30.64-9.48,4.19-20.84,7.76-33.51,10.45v-3.06h-101.4v4.07c-5.75-1.21-11.12-2.65-16.04-4.28-19.67-6.54-32.11-16.28-32.65-27.67-.54-11.39,10.91-22.26,29.88-30.64,9.48-4.19,20.84-7.76,33.51-10.45v1.78h101.4v-2.79c5.75,1.21,11.12,2.65,16.04,4.28,19.67,6.54,32.11,16.28,32.65,27.67Z"/>
              <path class="cls-137" d="M287.98,49.21c.54,11.31-10.84,22.12-29.68,30.44-9.42,4.16-20.7,7.71-33.29,10.38v-2.83h-100.75v3.83c-5.71-1.2-11.05-2.63-15.93-4.26-19.54-6.5-31.9-16.18-32.44-27.49-.54-11.31,10.84-22.12,29.68-30.44,9.42-4.16,20.7-7.71,33.29-10.38v1.55h100.75v-2.55c5.71,1.2,11.05,2.63,15.93,4.26,19.54,6.5,31.9,16.18,32.44,27.49Z"/>
              <path class="cls-81" d="M287.29,49.24c.53,11.24-10.77,21.98-29.49,30.25-9.36,4.14-20.57,7.66-33.07,10.31v-2.59h-100.09v3.59c-5.67-1.2-10.97-2.61-15.83-4.23-19.42-6.46-31.69-16.07-32.23-27.31-.53-11.24,10.77-21.98,29.49-30.25,9.36-4.14,20.57-7.66,33.07-10.31v1.31h100.09v-2.31c5.67,1.2,10.97,2.61,15.83,4.23,19.42,6.46,31.69,16.07,32.23,27.31Z"/>
              <path class="cls-139" d="M286.6,49.27c.53,11.17-10.7,21.83-29.3,30.05-9.3,4.11-20.43,7.61-32.86,10.25v-2.36h-99.44v3.35c-5.64-1.19-10.9-2.6-15.72-4.2-19.29-6.42-31.48-15.97-32.02-27.13-.53-11.17,10.7-21.83,29.3-30.05,9.3-4.11,20.43-7.61,32.86-10.25v1.08h99.44v-2.07c5.64,1.19,10.9,2.6,15.72,4.2,19.29,6.42,31.48,15.97,32.02,27.13Z"/>
              <path class="cls-7" d="M285.91,49.31c.53,11.09-10.63,21.69-29.1,29.85-9.24,4.08-20.3,7.56-32.64,10.18v-2.13h-98.78v3.11c-5.6-1.18-10.83-2.58-15.62-4.17-19.16-6.37-31.28-15.86-31.8-26.95-.53-11.09,10.63-21.69,29.1-29.85,9.24-4.08,20.3-7.56,32.64-10.18v.85h80.94v-4.7c12.54,1.44,23.88,3.85,33.46,7.04,19.16,6.37,31.28,15.86,31.8,26.95Z"/>
              <path class="cls-117" d="M285.22,49.34c.52,11.02-10.56,21.54-28.91,29.65-9.17,4.05-20.16,7.51-32.42,10.11v-1.89h-98.13v2.87c-5.56-1.17-10.76-2.56-15.52-4.15-19.03-6.33-31.07-15.76-31.59-26.78-.52-11.02,10.56-21.54,28.91-29.65,9.17-4.05,20.16-7.51,32.42-10.11v.62h80.41v-4.44c12.45,1.43,23.72,3.82,33.24,6.99,19.03,6.33,31.07,15.76,31.59,26.78Z"/>
              <path class="cls-106" d="M284.53,49.37c.52,10.94-10.49,21.4-28.72,29.46-9.11,4.03-20.03,7.46-32.21,10.04v-1.66h-97.47v2.63c-5.53-1.16-10.69-2.55-15.41-4.12-18.91-6.29-30.86-15.65-31.38-26.6-.52-10.94,10.49-21.4,28.72-29.46,9.11-4.03,20.03-7.46,32.21-10.04v.38h79.87v-4.18c12.37,1.42,23.56,3.8,33.02,6.94,18.91,6.29,30.86,15.65,31.38,26.6Z"/>
              <path class="cls-113" d="M283.84,49.41c.52,10.87-10.42,21.26-28.52,29.26-9.05,4-19.89,7.41-31.99,9.98v-1.43h-96.82v2.4c-5.49-1.16-10.62-2.53-15.31-4.09-18.78-6.25-30.65-15.55-31.17-26.42-.52-10.87,10.42-21.26,28.52-29.26,9.05-4,19.89-7.41,31.99-9.98v.15h79.33v-3.92c12.29,1.41,23.4,3.77,32.79,6.9,18.78,6.25,30.65,15.55,31.17,26.42Z"/>
              <path class="cls-96" d="M283.15,49.44c.51,10.8-10.35,21.11-28.33,29.06-8.99,3.97-19.76,7.36-31.77,9.91v-1.2h-96.16v2.16c-5.45-1.15-10.54-2.51-15.21-4.06-18.65-6.21-30.45-15.44-30.96-26.24-.51-10.8,10.35-21.11,28.33-29.06,8.99-3.97,19.76-7.36,31.77-9.91,6.01-1.28,12.33-2.35,18.89-3.18v3.1h59.91v-3.66c12.2,1.4,23.25,3.75,32.57,6.85,18.65,6.21,30.45,15.44,30.96,26.24Z"/>
              <path class="cls-116" d="M282.46,49.47c.51,10.72-10.28,20.97-28.14,28.86-8.93,3.95-19.62,7.31-31.56,9.84v-.96h-78.26v4.69c-12.12-1.39-23.09-3.72-32.35-6.8-18.53-6.16-30.24-15.34-30.75-26.06-1.02-21.45,43.16-40.98,98.68-43.62v4.6h39.28v-3.41c12.12,1.39,23.09,3.72,32.35,6.8,18.53,6.16,30.24,15.34,30.75,26.06Z"/>
              <path class="cls-111" d="M281.77,49.5c.51,10.65-10.21,20.82-27.95,28.66-8.87,3.92-19.49,7.26-31.34,9.77v-.73h-77.72v4.43c-12.04-1.38-22.93-3.7-32.13-6.76-18.4-6.12-30.03-15.23-30.54-25.88-1.01-21.3,42.86-40.69,98-43.32v4.33h39.01v-3.15c12.04,1.38,22.93,3.7,32.13,6.76,18.4,6.12,30.03,15.23,30.54,25.88Z"/>
              <path class="cls-68" d="M281.08,49.54c.5,10.58-10.14,20.68-27.75,28.47-8.81,3.89-19.36,7.21-31.13,9.71v-.5h-77.19v4.17c-11.95-1.37-22.77-3.67-31.91-6.71-18.27-6.08-29.82-15.13-30.33-25.7-1.01-21.15,42.57-40.41,97.33-43.02v4.06h38.74v-2.89c11.95,1.37,22.77,3.67,31.91,6.71,18.27,6.08,29.82,15.13,30.33,25.7Z"/>
              <path class="cls-160" d="M280.39,49.57c.5,10.5-10.07,20.54-27.56,28.27-8.75,3.87-19.22,7.15-30.91,9.64v-.27h-76.65v3.91c-11.87-1.36-22.61-3.65-31.68-6.66-18.14-6.04-29.62-15.02-30.12-25.52-1-21.01,42.27-40.13,96.65-42.72v3.8h38.47v-2.63c11.87,1.36,22.61,3.65,31.68,6.66,18.14,6.04,29.62,15.02,30.12,25.52Z"/>
              <path class="cls-115" d="M279.7,49.6c.5,10.43-10,20.39-27.37,28.07-8.68,3.84-19.09,7.1-30.69,9.57v-.03h-76.11v3.65c-11.79-1.36-22.45-3.62-31.46-6.62-18.02-5.99-29.41-14.92-29.91-25.35-.99-20.86,41.98-39.85,95.97-42.42v3.53h38.2v-2.37c11.79,1.36,22.45,3.62,31.46,6.62,18.02,5.99,29.41,14.92,29.91,25.35Z"/>
              <path class="cls-45" d="M279.01,49.64c.98,20.71-41.68,39.57-95.3,42.12v-4.54h-37.93v3.39c-11.7-1.35-22.29-3.59-31.24-6.57-17.89-5.95-29.2-14.81-29.7-25.17-.98-20.71,41.68-39.57,95.3-42.12,26.81-1.27,51.28,1.77,69.17,7.72,17.89,5.95,29.2,14.81,29.7,25.17Z"/>
              <path class="cls-89" d="M278.32,49.67c.98,20.57-41.38,39.29-94.62,41.82v-4.28h-37.66v3.14c-11.62-1.34-22.14-3.57-31.02-6.52-17.76-5.91-29-14.71-29.48-24.99-.98-20.57,41.38-39.29,94.62-41.82,26.62-1.27,50.91,1.76,68.68,7.67,17.76,5.91,29,14.71,29.48,24.99Z"/>
              <path class="cls-59" d="M277.63,49.7c.97,20.42-41.09,39.01-93.94,41.52v-4.01h-37.39v2.88c-11.54-1.33-21.98-3.54-30.8-6.48-17.64-5.87-28.79-14.6-29.27-24.81-.97-20.42,41.09-39.01,93.94-41.52,26.43-1.26,50.55,1.74,68.19,7.61,17.64,5.87,28.79,14.6,29.27,24.81Z"/>
              <path class="cls-35" d="M276.94,49.73c.96,20.27-40.79,38.73-93.27,41.22v-3.75h-37.12v2.62c-11.46-1.32-21.82-3.52-30.57-6.43-17.51-5.82-28.58-14.5-29.06-24.63-.96-20.27,40.79-38.73,93.27-41.22,26.24-1.25,50.18,1.73,67.69,7.56,17.51,5.82,28.58,14.5,29.06,24.63Z"/>
              <path class="cls-23" d="M276.25,49.77c.96,20.12-40.5,38.45-92.59,40.92-26.05,1.24-49.82-1.72-67.2-7.5-17.38-5.78-28.37-14.39-28.85-24.45-.96-20.12,40.5-38.45,92.59-40.92,52.09-2.48,95.1,11.83,96.05,31.95Z"/>
              <path class="cls-9" d="M275.56,49.8c.95,19.98-40.2,38.17-91.91,40.62-25.86,1.23-49.46-1.71-66.71-7.45-17.26-5.74-28.17-14.28-28.64-24.27-.95-19.98,40.2-38.17,91.91-40.62,51.71-2.46,94.4,11.74,95.35,31.72Z"/>
              <path class="cls-95" d="M274.87,49.83c.94,19.83-39.9,37.88-91.23,40.33-25.67,1.22-49.09-1.69-66.22-7.39-17.13-5.7-27.96-14.18-28.43-24.09-.94-19.83,39.9-37.88,91.23-40.33,51.33-2.44,93.71,11.66,94.65,31.49Z"/>
              <path class="cls-149" d="M274.18,49.86c.94,19.68-39.61,37.6-90.56,40.03-25.47,1.21-48.73-1.68-65.73-7.34-17-5.66-27.75-14.07-28.22-23.92-.94-19.68,39.61-37.6,90.56-40.03,50.95-2.42,93.01,11.57,93.95,31.25Z"/>
              <path class="cls-104" d="M273.49,49.9c.93,19.54-39.31,37.32-89.88,39.73-25.28,1.2-48.36-1.67-65.24-7.28-16.87-5.61-27.54-13.97-28.01-23.74-.93-19.54,39.31-37.32,89.88-39.73,50.57-2.4,92.32,11.48,93.25,31.02Z"/>
              <ellipse class="cls-65" cx="181.93" cy="54.25" rx="90.98" ry="35.15" transform="translate(-2.37 8.7) rotate(-2.72)"/>
              <ellipse class="cls-18" cx="181.93" cy="54.25" rx="90.29" ry="34.88" transform="translate(-2.37 8.7) rotate(-2.72)"/>
              <ellipse class="cls-26" cx="181.93" cy="54.25" rx="89.6" ry="34.61" transform="translate(-2.37 8.7) rotate(-2.72)"/>
              <ellipse class="cls-118" cx="181.93" cy="54.25" rx="88.91" ry="34.35" transform="translate(-2.37 8.7) rotate(-2.72)"/>
              <ellipse class="cls-1" cx="181.93" cy="54.25" rx="88.21" ry="34.08" transform="translate(-2.37 8.7) rotate(-2.72)"/>
              <ellipse class="cls-58" cx="181.93" cy="54.25" rx="87.52" ry="33.81" transform="translate(-2.37 8.7) rotate(-2.72)"/>
              <ellipse class="cls-61" cx="181.93" cy="54.25" rx="86.83" ry="33.55" transform="translate(-2.37 8.7) rotate(-2.72)"/>
              <ellipse class="cls-54" cx="181.93" cy="54.25" rx="86.14" ry="33.28" transform="translate(-2.37 8.7) rotate(-2.72)"/>
              <ellipse class="cls-63" cx="181.93" cy="54.25" rx="85.45" ry="33.01" transform="translate(-2.37 8.7) rotate(-2.72)"/>
              <ellipse class="cls-76" cx="181.93" cy="54.25" rx="84.76" ry="32.75" transform="translate(-2.37 8.7) rotate(-2.72)"/>
              <ellipse class="cls-50" cx="181.93" cy="54.25" rx="84.07" ry="32.48" transform="translate(-2.37 8.7) rotate(-2.72)"/>
              <ellipse class="cls-60" cx="181.93" cy="54.25" rx="83.38" ry="32.21" transform="translate(-2.37 8.7) rotate(-2.72)"/>
              <ellipse class="cls-86" cx="181.93" cy="54.25" rx="82.69" ry="31.95" transform="translate(-2.37 8.7) rotate(-2.72)"/>
              <ellipse class="cls-154" cx="181.93" cy="54.25" rx="82" ry="31.68" transform="translate(-2.37 8.7) rotate(-2.72)"/>
              <ellipse class="cls-163" cx="181.93" cy="54.25" rx="81.31" ry="31.41" transform="translate(-2.37 8.7) rotate(-2.72)"/>
              <ellipse class="cls-128" cx="181.93" cy="54.25" rx="80.62" ry="31.15" transform="translate(-2.37 8.7) rotate(-2.72)"/>
              <ellipse class="cls-130" cx="181.93" cy="54.25" rx="79.93" ry="30.88" transform="translate(-2.37 8.7) rotate(-2.72)"/>
              <ellipse class="cls-130" cx="181.93" cy="54.25" rx="79.24" ry="30.61" transform="translate(-2.37 8.7) rotate(-2.72)"/>
              <ellipse class="cls-93" cx="181.93" cy="54.25" rx="78.55" ry="30.35" transform="translate(-2.37 8.7) rotate(-2.72)"/>
              <ellipse class="cls-87" cx="181.93" cy="54.25" rx="77.86" ry="30.08" transform="translate(-2.37 8.7) rotate(-2.72)"/>
              <ellipse class="cls-105" cx="181.93" cy="54.25" rx="77.17" ry="29.81" transform="translate(-2.37 8.7) rotate(-2.72)"/>
              <ellipse class="cls-127" cx="181.93" cy="54.25" rx="76.48" ry="29.55" transform="translate(-2.37 8.7) rotate(-2.72)"/>
              <ellipse class="cls-38" cx="181.93" cy="54.25" rx="75.79" ry="29.28" transform="translate(-2.37 8.7) rotate(-2.72)"/>
              <ellipse class="cls-5" cx="181.93" cy="54.25" rx="75.1" ry="29.01" transform="translate(-2.37 8.7) rotate(-2.72)"/>
              <ellipse class="cls-107" cx="181.93" cy="54.25" rx="74.41" ry="28.75" transform="translate(-2.37 8.7) rotate(-2.72)"/>
              <ellipse class="cls-70" cx="181.93" cy="54.25" rx="73.72" ry="28.48" transform="translate(-2.37 8.7) rotate(-2.72)"/>
              <ellipse class="cls-94" cx="181.93" cy="54.25" rx="73.03" ry="28.21" transform="translate(-2.37 8.7) rotate(-2.72)"/>
              <ellipse class="cls-147" cx="181.93" cy="54.25" rx="72.34" ry="27.94" transform="translate(-2.37 8.7) rotate(-2.72)"/>
              <ellipse class="cls-42" cx="181.93" cy="54.25" rx="71.65" ry="27.68" transform="translate(-2.37 8.7) rotate(-2.72)"/>
              <ellipse class="cls-43" cx="181.93" cy="54.25" rx="70.96" ry="27.41" transform="translate(-2.37 8.7) rotate(-2.72)"/>
              <ellipse class="cls-157" cx="181.93" cy="54.25" rx="70.27" ry="27.14" transform="translate(-2.37 8.7) rotate(-2.72)"/>
              <ellipse class="cls-157" cx="181.93" cy="54.25" rx="69.58" ry="26.88" transform="translate(-2.37 8.7) rotate(-2.72)"/>
              <ellipse class="cls-52" cx="181.93" cy="54.25" rx="68.88" ry="26.61" transform="translate(-2.37 8.7) rotate(-2.72)"/>
              <ellipse class="cls-25" cx="181.93" cy="54.25" rx="68.19" ry="26.34" transform="translate(-2.37 8.7) rotate(-2.72)"/>
              <ellipse class="cls-103" cx="181.93" cy="54.25" rx="67.5" ry="26.08" transform="translate(-2.37 8.7) rotate(-2.72)"/>
              <ellipse class="cls-83" cx="181.93" cy="54.25" rx="66.81" ry="25.81" transform="translate(-2.37 8.7) rotate(-2.72)"/>
              <ellipse class="cls-22" cx="181.93" cy="54.25" rx="66.12" ry="25.54" transform="translate(-2.37 8.7) rotate(-2.72)"/>
              <ellipse class="cls-124" cx="181.93" cy="54.25" rx="65.43" ry="25.28" transform="translate(-2.37 8.7) rotate(-2.72)"/>
              <ellipse class="cls-6" cx="181.93" cy="54.25" rx="64.74" ry="25.01" transform="translate(-2.37 8.7) rotate(-2.72)"/>
              <ellipse class="cls-6" cx="181.93" cy="54.25" rx="64.05" ry="24.74" transform="translate(-2.37 8.7) rotate(-2.72)"/>
              <ellipse class="cls-37" cx="181.93" cy="54.25" rx="63.36" ry="24.48" transform="translate(-2.37 8.7) rotate(-2.72)"/>
              <ellipse class="cls-146" cx="181.93" cy="54.25" rx="62.67" ry="24.21" transform="translate(-2.37 8.7) rotate(-2.72)"/>
              <ellipse class="cls-146" cx="181.93" cy="54.25" rx="61.98" ry="23.94" transform="translate(-2.37 8.7) rotate(-2.72)"/>
              <ellipse class="cls-4" cx="181.93" cy="54.25" rx="61.29" ry="23.68" transform="translate(-2.37 8.7) rotate(-2.72)"/>
              <ellipse class="cls-77" cx="181.93" cy="54.25" rx="60.6" ry="23.41" transform="translate(-2.37 8.7) rotate(-2.72)"/>
              <ellipse class="cls-10" cx="181.93" cy="54.25" rx="59.91" ry="23.14" transform="translate(-2.37 8.7) rotate(-2.72)"/>
              <ellipse class="cls-10" cx="181.93" cy="54.25" rx="59.22" ry="22.88" transform="translate(-2.37 8.7) rotate(-2.72)"/>
              <ellipse class="cls-10" cx="181.93" cy="54.25" rx="58.53" ry="22.61" transform="translate(-2.37 8.7) rotate(-2.72)"/>
              <ellipse class="cls-12" cx="181.93" cy="54.25" rx="57.84" ry="22.34" transform="translate(-2.37 8.7) rotate(-2.72)"/>
              <ellipse class="cls-136" cx="181.93" cy="54.25" rx="57.15" ry="22.08" transform="translate(-2.37 8.7) rotate(-2.72)"/>
              <ellipse class="cls-80" cx="181.93" cy="54.25" rx="56.46" ry="21.81" transform="translate(-2.37 8.7) rotate(-2.72)"/>
              <ellipse class="cls-91" cx="181.93" cy="54.25" rx="55.77" ry="21.54" transform="translate(-2.37 8.7) rotate(-2.72)"/>
              <ellipse class="cls-92" cx="181.93" cy="54.25" rx="55.08" ry="21.28" transform="translate(-2.37 8.7) rotate(-2.72)"/>
              <ellipse class="cls-92" cx="181.93" cy="54.25" rx="54.39" ry="21.01" transform="translate(-2.37 8.7) rotate(-2.72)"/>
              <ellipse class="cls-34" cx="181.93" cy="54.25" rx="53.7" ry="20.74" transform="translate(-2.37 8.7) rotate(-2.72)"/>
              <ellipse class="cls-75" cx="181.93" cy="54.25" rx="53.01" ry="20.48" transform="translate(-2.37 8.7) rotate(-2.72)"/>
              <ellipse class="cls-75" cx="181.93" cy="54.25" rx="52.32" ry="20.21" transform="translate(-2.37 8.7) rotate(-2.72)"/>
              <ellipse class="cls-165" cx="181.93" cy="54.25" rx="51.63" ry="19.94" transform="translate(-2.37 8.7) rotate(-2.72)"/>
              <ellipse class="cls-17" cx="181.93" cy="54.25" rx="50.94" ry="19.68" transform="translate(-2.37 8.7) rotate(-2.72)"/>
              <ellipse class="cls-17" cx="181.93" cy="54.25" rx="50.25" ry="19.41" transform="translate(-2.37 8.7) rotate(-2.72)"/>
              <ellipse class="cls-85" cx="181.93" cy="54.25" rx="49.55" ry="19.14" transform="translate(-2.37 8.7) rotate(-2.72)"/>
              <ellipse class="cls-85" cx="181.93" cy="54.25" rx="48.86" ry="18.88" transform="translate(-2.37 8.7) rotate(-2.72)"/>
              <ellipse class="cls-33" cx="181.93" cy="54.25" rx="48.17" ry="18.61" transform="translate(-2.37 8.7) rotate(-2.72)"/>
              <ellipse class="cls-33" cx="181.93" cy="54.25" rx="47.48" ry="18.34" transform="translate(-2.37 8.7) rotate(-2.72)"/>
              <ellipse class="cls-109" cx="181.93" cy="54.25" rx="46.79" ry="18.08" transform="translate(-2.37 8.7) rotate(-2.72)"/>
              <ellipse class="cls-109" cx="181.93" cy="54.25" rx="46.1" ry="17.81" transform="translate(-2.37 8.7) rotate(-2.72)"/>
              <ellipse class="cls-69" cx="181.93" cy="54.25" rx="45.41" ry="17.54" transform="translate(-2.37 8.7) rotate(-2.72)"/>
              <ellipse class="cls-69" cx="181.93" cy="54.25" rx="44.72" ry="17.28" transform="translate(-2.37 8.7) rotate(-2.72)"/>
              <ellipse class="cls-30" cx="181.93" cy="54.25" rx="44.03" ry="17.01" transform="translate(-2.37 8.7) rotate(-2.72)"/>
              <ellipse class="cls-126" cx="181.93" cy="54.25" rx="43.34" ry="16.74" transform="translate(-2.37 8.7) rotate(-2.72)"/>
              <ellipse class="cls-39" cx="181.93" cy="54.25" rx="42.65" ry="16.48" transform="translate(-2.37 8.7) rotate(-2.72)"/>
              <ellipse class="cls-39" cx="181.93" cy="54.25" rx="41.96" ry="16.21" transform="translate(-2.37 8.7) rotate(-2.72)"/>
              <ellipse class="cls-39" cx="181.93" cy="54.25" rx="41.27" ry="15.94" transform="translate(-2.37 8.7) rotate(-2.72)"/>
              <ellipse class="cls-48" cx="181.93" cy="54.25" rx="40.58" ry="15.68" transform="translate(-2.37 8.7) rotate(-2.72)"/>
              <ellipse class="cls-48" cx="181.93" cy="54.25" rx="39.89" ry="15.41" transform="translate(-2.37 8.7) rotate(-2.72)"/>
              <ellipse class="cls-161" cx="181.93" cy="54.25" rx="39.2" ry="15.14" transform="translate(-2.37 8.7) rotate(-2.72)"/>
              <ellipse class="cls-161" cx="181.93" cy="54.25" rx="38.51" ry="14.88" transform="translate(-2.37 8.7) rotate(-2.72)"/>
              <ellipse class="cls-161" cx="181.93" cy="54.25" rx="37.82" ry="14.61" transform="translate(-2.37 8.7) rotate(-2.72)"/>
              <ellipse class="cls-161" cx="181.93" cy="54.25" rx="37.13" ry="14.34" transform="translate(-2.37 8.7) rotate(-2.72)"/>
              <ellipse class="cls-161" cx="181.93" cy="54.25" rx="36.44" ry="14.08" transform="translate(-2.37 8.7) rotate(-2.72)"/>
              <ellipse class="cls-161" cx="181.93" cy="54.25" rx="35.75" ry="13.81" transform="translate(-2.37 8.7) rotate(-2.72)"/>
              <ellipse class="cls-161" cx="181.93" cy="54.25" rx="35.06" ry="13.54" transform="translate(-2.37 8.7) rotate(-2.72)"/>
              <ellipse class="cls-72" cx="181.93" cy="54.25" rx="34.37" ry="13.28" transform="translate(-2.37 8.7) rotate(-2.72)"/>
              <ellipse class="cls-72" cx="181.93" cy="54.25" rx="33.68" ry="13.01" transform="translate(-2.37 8.7) rotate(-2.72)"/>
              <ellipse class="cls-72" cx="181.93" cy="54.25" rx="32.99" ry="12.74" transform="translate(-2.37 8.7) rotate(-2.72)"/>
              <ellipse class="cls-72" cx="181.93" cy="54.25" rx="32.3" ry="12.48" transform="translate(-2.37 8.7) rotate(-2.72)"/>
              <ellipse class="cls-150" cx="181.93" cy="54.25" rx="31.61" ry="12.21" transform="translate(-2.37 8.7) rotate(-2.72)"/>
              <ellipse class="cls-150" cx="181.93" cy="54.25" rx="30.92" ry="11.94" transform="translate(-2.37 8.7) rotate(-2.72)"/>
              <ellipse class="cls-150" cx="181.93" cy="54.25" rx="30.22" ry="11.68" transform="translate(-2.37 8.7) rotate(-2.72)"/>
              <ellipse class="cls-150" cx="181.93" cy="54.25" rx="29.53" ry="11.41" transform="translate(-2.37 8.7) rotate(-2.72)"/>
              <ellipse class="cls-150" cx="181.93" cy="54.25" rx="28.84" ry="11.14" transform="translate(-2.37 8.7) rotate(-2.72)"/>
              <ellipse class="cls-2" cx="181.93" cy="54.25" rx="28.15" ry="10.88" transform="translate(-2.37 8.7) rotate(-2.72)"/>
              <ellipse class="cls-2" cx="181.93" cy="54.25" rx="27.46" ry="10.61" transform="translate(-2.37 8.7) rotate(-2.72)"/>
              <ellipse class="cls-2" cx="181.93" cy="54.25" rx="26.77" ry="10.34" transform="translate(-2.37 8.7) rotate(-2.72)"/>
              <ellipse class="cls-2" cx="181.93" cy="54.25" rx="26.08" ry="10.08" transform="translate(-2.37 8.7) rotate(-2.72)"/>
              <ellipse class="cls-2" cx="181.93" cy="54.25" rx="25.39" ry="9.81" transform="translate(-2.37 8.7) rotate(-2.72)"/>
              <ellipse class="cls-2" cx="181.93" cy="54.25" rx="24.7" ry="9.54" transform="translate(-2.37 8.7) rotate(-2.72)"/>
              <ellipse class="cls-29" cx="181.93" cy="54.25" rx="24.01" ry="9.28" transform="translate(-2.37 8.7) rotate(-2.72)"/>
              <ellipse class="cls-90" cx="181.93" cy="54.25" rx="23.32" ry="9.01" transform="translate(-2.37 8.7) rotate(-2.72)"/>
              <ellipse class="cls-90" cx="181.93" cy="54.25" rx="22.63" ry="8.74" transform="translate(-2.37 8.7) rotate(-2.72)"/>
              <ellipse class="cls-90" cx="181.93" cy="54.25" rx="21.94" ry="8.48" transform="translate(-2.37 8.7) rotate(-2.72)"/>
              <ellipse class="cls-90" cx="181.93" cy="54.25" rx="21.25" ry="8.21" transform="translate(-2.37 8.7) rotate(-2.72)"/>
              <ellipse class="cls-90" cx="181.93" cy="54.25" rx="20.56" ry="7.94" transform="translate(-2.37 8.7) rotate(-2.72)"/>
              <ellipse class="cls-90" cx="181.93" cy="54.25" rx="19.87" ry="7.68" transform="translate(-2.37 8.7) rotate(-2.72)"/>
              <ellipse class="cls-90" cx="181.93" cy="54.25" rx="19.18" ry="7.41" transform="translate(-2.37 8.7) rotate(-2.72)"/>
              <ellipse class="cls-90" cx="181.93" cy="54.25" rx="18.49" ry="7.14" transform="translate(-2.37 8.7) rotate(-2.72)"/>
              <ellipse class="cls-90" cx="181.93" cy="54.25" rx="17.8" ry="6.88" transform="translate(-2.37 8.7) rotate(-2.72)"/>
              <ellipse class="cls-55" cx="181.93" cy="54.25" rx="17.11" ry="6.61" transform="translate(-2.37 8.7) rotate(-2.72)"/>
              <ellipse class="cls-55" cx="181.93" cy="54.25" rx="16.42" ry="6.34" transform="translate(-2.37 8.7) rotate(-2.72)"/>
              <ellipse class="cls-55" cx="181.93" cy="54.25" rx="15.73" ry="6.08" transform="translate(-2.37 8.7) rotate(-2.72)"/>
              <ellipse class="cls-55" cx="181.93" cy="54.25" rx="15.04" ry="5.81" transform="translate(-2.37 8.7) rotate(-2.72)"/>
              <ellipse class="cls-55" cx="181.93" cy="54.25" rx="14.35" ry="5.54" transform="translate(-2.37 8.7) rotate(-2.72)"/>
              <ellipse class="cls-55" cx="181.93" cy="54.25" rx="13.66" ry="5.28" transform="translate(-2.37 8.7) rotate(-2.72)"/>
              <ellipse class="cls-55" cx="181.93" cy="54.25" rx="12.97" ry="5.01" transform="translate(-2.37 8.7) rotate(-2.72)"/>
              <ellipse class="cls-55" cx="181.93" cy="54.25" rx="12.28" ry="4.74" transform="translate(-2.37 8.7) rotate(-2.72)"/>
              <ellipse class="cls-55" cx="181.93" cy="54.25" rx="11.59" ry="4.48" transform="translate(-2.37 8.7) rotate(-2.72)"/>
              <ellipse class="cls-55" cx="181.93" cy="54.25" rx="10.89" ry="4.21" transform="translate(-2.37 8.7) rotate(-2.72)"/>
              <ellipse class="cls-55" cx="181.93" cy="54.25" rx="10.2" ry="3.94" transform="translate(-2.37 8.7) rotate(-2.72)"/>
              <ellipse class="cls-55" cx="181.93" cy="54.25" rx="9.51" ry="3.68" transform="translate(-2.37 8.7) rotate(-2.72)"/>
              <ellipse class="cls-55" cx="181.93" cy="54.25" rx="8.82" ry="3.41" transform="translate(-2.37 8.7) rotate(-2.72)"/>
              <ellipse class="cls-55" cx="181.93" cy="54.25" rx="8.13" ry="3.14" transform="translate(-2.37 8.7) rotate(-2.72)"/>
              <ellipse class="cls-55" cx="181.93" cy="54.25" rx="7.44" ry="2.88" transform="translate(-2.37 8.7) rotate(-2.72)"/>
              <ellipse class="cls-55" cx="181.93" cy="54.25" rx="6.75" ry="2.61" transform="translate(-2.37 8.7) rotate(-2.72)"/>
              <ellipse class="cls-55" cx="181.93" cy="54.25" rx="6.06" ry="2.34" transform="translate(-2.37 8.7) rotate(-2.72)"/>
              <ellipse class="cls-55" cx="181.93" cy="54.25" rx="5.37" ry="2.08" transform="translate(-2.37 8.7) rotate(-2.72)"/>
              <ellipse class="cls-55" cx="181.93" cy="54.25" rx="4.68" ry="1.81" transform="translate(-2.37 8.7) rotate(-2.72)"/>
              <ellipse class="cls-55" cx="181.93" cy="54.25" rx="3.99" ry="1.54" transform="translate(-2.37 8.7) rotate(-2.72)"/>
              <ellipse class="cls-55" cx="181.93" cy="54.25" rx="3.3" ry="1.28" transform="translate(-2.37 8.7) rotate(-2.72)"/>
              <ellipse class="cls-55" cx="181.93" cy="54.25" rx="2.61" ry="1.01" transform="translate(-2.37 8.7) rotate(-2.72)"/>
              <ellipse class="cls-55" cx="181.93" cy="54.25" rx="1.92" ry=".74" transform="translate(-2.37 8.7) rotate(-2.72)"/>
              <ellipse class="cls-55" cx="181.93" cy="54.25" rx="1.23" ry=".48" transform="translate(-2.37 8.7) rotate(-2.72)"/>
            </g>
          </g>
        </g>
      </g>
      <g>
        <path class="cls-8" d="M232.42,85.99l-8.41,11.77h-8.34l30.07-41.33-1.3-2.46h19.77l7.25,43.79h-17.95l-1.86-11.77h-19.22ZM250.58,78.74l-2.54-14.77-10.39,14.77h12.93Z"/>
        <polygon class="cls-8" points="102.03 90.51 96.78 90.51 82.27 90.51 85.21 78.74 97.11 78.74 100.18 78.74 102 71.49 98.92 71.49 87.01 71.49 89.57 61.22 103.18 61.22 109.38 61.22 111.21 53.97 74.84 53.97 63.84 97.76 100.2 97.76 102.03 90.51"/>
        <path class="cls-8" d="M145.63,90.51h-16.52c-2.19,0-3.12-.69-2.59-2.81l5.9-23.67c.52-2.12,1.79-2.8,3.98-2.8h16.58l1.82-7.25h-25.49c-7.12,0-11.94,3.42-14.29,12.86l-4.51,18.07c-2.35,9.44.76,12.86,7.88,12.86h25.4l1.82-7.25Z"/>
        <polygon class="cls-8" points="200.42 53.97 185.33 78.81 185.2 78.81 183.04 53.97 161.89 53.97 150.9 97.76 158.04 97.76 166.63 63.27 166.76 63.27 169.94 97.76 181.5 97.76 202.2 63.27 202.34 63.27 193.72 97.76 210.27 97.76 221.28 53.97 200.42 53.97"/>
        <polygon class="cls-8" points="67.97 53.97 25.7 53.97 23.87 61.22 35.93 61.22 26.82 97.76 43.44 97.76 52.63 61.18 66.14 61.22 67.97 53.97"/>
      </g>
    </g>
  </g>
</svg>