<?xml version="1.0" encoding="UTF-8"?>
<svg id="Layer_2" data-name="Layer 2" xmlns="http://www.w3.org/2000/svg" xmlns:xlink="http://www.w3.org/1999/xlink" viewBox="0 0 1166.41 451.02">
  <defs>
    <style>
      .cls-1 {
        fill: url(#radial-gradient-2);
        opacity: .6;
      }

      .cls-2 {
        fill: #fff;
      }

      .cls-3 {
        fill: none;
      }

      .cls-4 {
        fill: url(#radial-gradient);
      }

      .cls-5 {
        fill: #db6b27;
      }

      .cls-6 {
        fill: #7f7f7f;
      }

      .cls-7 {
        clip-path: url(#clippath);
      }

      .cls-8 {
        fill: #338084;
      }
    </style>
    <radialGradient id="radial-gradient" cx="1558.29" cy="113.59" fx="1558.29" fy="113.59" r="751.48" gradientTransform="translate(-981.17 186.31) rotate(-.22) scale(1 .45)" gradientUnits="userSpaceOnUse">
      <stop offset="0" stop-color="#e64133"/>
      <stop offset=".29" stop-color="#e64332"/>
      <stop offset=".47" stop-color="#e74c31"/>
      <stop offset=".62" stop-color="#e85a2e"/>
      <stop offset=".76" stop-color="#ea6f2a"/>
      <stop offset=".89" stop-color="#ed8a26"/>
      <stop offset="1" stop-color="#f1aa21"/>
    </radialGradient>
    <clipPath id="clippath">
      <path id="SVGID" class="cls-3" d="M1160.67,97.45c-11.04-72.87-312.13-114.41-667.74-66.1C267.91,61.92,103.82,106.51,0,145.56c93.43-23.45,227.25-44.55,416.34-61.95,365.39-33.62,656.48,5.66,635.39,90.82-2.02,8.19-6.73,16.46-13.96,24.74,81.32-30.92,127.5-71.33,122.9-101.71Z"/>
    </clipPath>
    <radialGradient id="radial-gradient-2" cx="1652.42" cy="36.34" fx="1652.42" fy="36.34" r="434.89" gradientTransform="translate(-979.4 235.27) rotate(-2.95) scale(1 .39) skewX(.34)" gradientUnits="userSpaceOnUse">
      <stop offset="0" stop-color="#3f1312"/>
      <stop offset=".25" stop-color="#411312"/>
      <stop offset=".41" stop-color="#4a1614"/>
      <stop offset=".54" stop-color="#581a17"/>
      <stop offset=".65" stop-color="#6d1f1b"/>
      <stop offset=".76" stop-color="#882720"/>
      <stop offset=".86" stop-color="#a93027"/>
      <stop offset=".95" stop-color="#d03b2e"/>
      <stop offset="1" stop-color="#e64133"/>
    </radialGradient>
  </defs>
  <g id="Layer_1-2" data-name="Layer 1">
    <g>
      <path class="cls-8" d="M863.5,284.22l-31.77,44.85-31.7.12,113.64-157.48-4.96-9.33,75.12-.29,28.19,166.28-68.21.27-7.26-44.7-73.05.29ZM932.39,256.4l-9.88-56.1-39.27,56.29,49.14-.19Z"/>
      <polygon class="cls-8" points="368.08 303.33 348.13 303.41 293.02 303.62 303.99 258.85 349.22 258.68 360.89 258.63 367.71 231.05 355.99 231.1 310.76 231.28 320.33 192.25 372.05 192.04 395.61 191.95 402.43 164.36 264.24 164.9 223.09 331.45 361.27 330.91 368.08 303.33"/>
      <path class="cls-4" d="M1166.13,92.67c-14.82-97.78-245.44-115.16-604.71-66.36C336.4,56.89,103.82,106.51,0,145.56c93.43-23.45,227.25-44.55,416.34-61.95,365.39-33.62,656.48,5.66,635.39,90.82-2.02,8.19-6.73,16.46-13.96,24.74,81.32-30.92,132.96-76.12,128.36-106.49Z"/>
      <g class="cls-7">
        <path class="cls-1" d="M1105.72,141.97c-.21-53.63-70.79-106.52-580.09-67.1-338.55,26.2-238.75,75.71-234.11,132.45,4.67,56.73,192.89,80.44,419.76,67.62,226.88-12.81,394.62-86.01,394.44-132.97Z"/>
      </g>
      <path class="cls-8" d="M533.77,302.68l-26.92.11-35.86.14c-8.33.03-11.85-2.57-9.87-10.64l22.08-90.04c1.96-8.05,6.76-10.67,15.08-10.71l45.49-.18,17.51-.07,6.82-27.59-96.85.38c-27.05.11-45.31,13.17-54.11,49.07l-16.86,68.72c-8.79,35.9,3.09,48.86,30.13,48.75l96.53-.38,6.82-27.58Z"/>
      <polygon class="cls-8" points="741.41 163.04 684.47 257.63 683.95 257.64 675.39 163.3 595.03 163.61 553.89 330.16 581.05 330.05 613.15 198.88 613.67 198.88 626.24 329.87 670.18 329.7 748.34 198.35 748.86 198.35 716.6 329.52 779.52 329.27 820.68 162.73 741.41 163.04"/>
      <polygon class="cls-8" points="238.12 165 77.5 165.63 70.68 193.22 116.51 193.04 82.43 332 145.58 331.75 179.97 192.63 231.3 192.58 238.12 165"/>
      <rect id="_Rectanglegris" data-name="&amp;lt;Rectanglegris" class="cls-6" x="159.98" y="363.42" width="796.29" height="67.09" rx="33.54" ry="33.54"/>
      <circle class="cls-5" cx="206.38" cy="398.8" r="52.21"/>
      <path class="cls-2" d="M241.12,381.52c-.94-2.23-2.93-3.85-5.91-4.83-2.58-.85-5.84-1.18-9.7-1-7.69.36-17.06,2.73-26.4,6.69-3.34,1.41-6.53,2.97-9.51,4.62-1.04-4.16-1.67-8.11-1.84-11.66-.3-6.44,1.02-10.92,3.55-11.99,2.76-1.17,7.23,1.43,11.94,6.76l-6.27,3.08,13.55,4.62,4.62-13.55-8.42,4.14c-6.24-7.36-12.28-10.44-16.88-8.5-2.23.94-3.85,2.93-4.83,5.91-.85,2.58-1.18,5.84-1,9.7.19,4.09.95,8.66,2.22,13.44-3.97,2.44-7.47,5.05-10.31,7.71-2.82,2.65-4.85,5.22-6.04,7.66-1.37,2.82-1.59,5.38-.65,7.6,1.63,3.85,6.47,5.88,13.66,5.88,2.42,0,5.11-.23,8.03-.7l-.59-3.7c-9.33,1.49-16.26.33-17.65-2.94-1.07-2.52,1.1-6.66,5.8-11.07,2.44-2.3,5.43-4.56,8.82-6.7.95,3.03,2.08,6.13,3.39,9.22,3.95,9.34,9.03,17.57,14.3,23.18,2.65,2.82,5.22,4.85,7.66,6.04,1.67.82,3.26,1.22,4.73,1.22,1.01,0,1.97-.19,2.87-.57,5.15-2.18,7.04-10.08,5.18-21.69l-3.7.59c1.49,9.33.33,16.26-2.94,17.65-.42.18-.89.27-1.4.27-2.52,0-6-2.16-9.67-6.07-4.97-5.3-9.79-13.14-13.58-22.08-1.39-3.28-2.57-6.55-3.53-9.74,3.09-1.75,6.43-3.4,9.95-4.89,8.94-3.78,17.86-6.05,25.12-6.39,6.44-.3,10.92,1.02,11.99,3.55,1.02,2.41-.95,6.36-5.27,10.57-4.34,4.22-10.63,8.41-17.91,11.95l-3.67-7.47-4.62,13.55,13.55,4.62-3.61-7.34c7.63-3.71,14.26-8.14,18.87-12.63,2.62-2.55,4.5-5.04,5.59-7.39,1.25-2.71,1.43-5.18.52-7.33Z"/>
      <g>
        <polygon class="cls-2" points="360.73 403.58 352.03 382.32 341.05 382.32 333.04 422.35 345.34 422.35 348.92 404.36 355.11 418.74 361.06 418.74 372.33 404.08 368.78 422.35 381.08 422.35 388.97 382.32 377.47 382.32 360.73 403.58"/>
        <polygon class="cls-2" points="432.26 369.91 419.62 369.91 411.04 379.06 419.96 379.06 432.26 369.91"/>
        <path class="cls-2" d="M425.82,383.69c-3.03-1.52-6.62-2.29-10.78-2.29-3.66,0-7.03.58-10.12,1.74s-5.76,2.81-8.01,4.95c-2.25,2.14-3.99,4.66-5.23,7.58-1.24,2.92-1.86,6.15-1.86,9.69s.83,6.61,2.49,9.29,4,4.79,7.03,6.32c3.03,1.52,6.62,2.29,10.78,2.29,3.66,0,7.03-.58,10.12-1.74,3.09-1.16,5.76-2.81,8.01-4.95,2.25-2.13,3.99-4.66,5.23-7.58,1.24-2.92,1.86-6.15,1.86-9.69s-.83-6.6-2.49-9.29c-1.66-2.69-4-4.79-7.03-6.32ZM421.05,404.76c-.46,1.47-1.14,2.77-2.06,3.92s-2.01,2.04-3.29,2.69c-1.28.65-2.75.97-4.43.97s-3.04-.32-4.2-.97c-1.16-.65-2.06-1.56-2.69-2.75-.63-1.18-.94-2.54-.94-4.06,0-1.64.23-3.19.69-4.66.46-1.47,1.14-2.77,2.06-3.92s2.02-2.04,3.32-2.69c1.29-.65,2.76-.97,4.4-.97s3.04.32,4.2.97c1.16.65,2.06,1.55,2.69,2.72.63,1.16.94,2.53.94,4.09,0,1.64-.23,3.19-.69,4.66Z"/>
        <polygon class="cls-2" points="471.6 382.32 457.12 405.66 452.16 382.32 438.32 382.32 447.24 422.35 460.51 422.35 485.44 382.32 471.6 382.32"/>
        <polygon class="cls-2" points="486.75 382.32 478.75 422.35 492.24 422.35 500.25 382.32 486.75 382.32"/>
        <polygon class="cls-2" points="520.26 382.32 506.77 382.32 498.76 422.35 530.33 422.35 532.45 411.88 514.37 411.88 520.26 382.32"/>
        <path class="cls-2" d="M579.88,411.25c-1.51.72-3.04,1.09-4.6,1.09-1.64,0-3.08-.32-4.32-.97-1.24-.65-2.2-1.56-2.89-2.75-.69-1.18-1.03-2.55-1.03-4.12,0-1.79.27-3.43.8-4.92.53-1.49,1.28-2.77,2.23-3.86.95-1.09,2.09-1.92,3.4-2.52,1.32-.59,2.77-.89,4.38-.89,1.83,0,3.41.41,4.75,1.23,1.33.82,2.42,1.97,3.26,3.46l9.72-7.61c-1.45-2.59-3.66-4.58-6.63-5.95-2.97-1.37-6.39-2.06-10.24-2.06s-7.09.58-10.18,1.74-5.76,2.81-8.01,4.95c-2.25,2.14-3.99,4.67-5.23,7.61-1.24,2.94-1.86,6.16-1.86,9.66s.85,6.66,2.54,9.35c1.7,2.69,4.09,4.78,7.18,6.29s6.69,2.26,10.81,2.26c3.7,0,7.04-.58,10.04-1.74,2.99-1.16,5.71-3.23,8.15-6.21l-7.95-7.61c-1.37,1.64-2.81,2.82-4.32,3.55Z"/>
        <path class="cls-2" d="M631.12,383.69c-3.03-1.52-6.62-2.29-10.78-2.29-3.66,0-7.03.58-10.12,1.74s-5.76,2.81-8.01,4.95c-2.25,2.14-3.99,4.66-5.23,7.58-1.24,2.92-1.86,6.15-1.86,9.69s.83,6.61,2.49,9.29,4,4.79,7.03,6.32c3.03,1.52,6.62,2.29,10.78,2.29,3.66,0,7.03-.58,10.12-1.74,3.09-1.16,5.76-2.81,8.01-4.95,2.25-2.13,3.99-4.66,5.23-7.58,1.24-2.92,1.86-6.15,1.86-9.69s-.83-6.6-2.49-9.29c-1.66-2.69-4-4.79-7.03-6.32ZM626.34,404.76c-.46,1.47-1.14,2.77-2.06,3.92s-2.01,2.04-3.29,2.69c-1.28.65-2.75.97-4.43.97s-3.04-.32-4.2-.97c-1.16-.65-2.06-1.56-2.69-2.75-.63-1.18-.94-2.54-.94-4.06,0-1.64.23-3.19.69-4.66.46-1.47,1.14-2.77,2.06-3.92s2.02-2.04,3.32-2.69c1.29-.65,2.76-.97,4.4-.97s3.04.32,4.2.97c1.16.65,2.06,1.55,2.69,2.72.63,1.16.94,2.53.94,4.09,0,1.64-.23,3.19-.69,4.66Z"/>
        <polygon class="cls-2" points="675.69 382.32 671.98 400.94 660.48 382.32 649.39 382.32 641.38 422.35 654.53 422.35 658.25 403.73 669.74 422.35 680.84 422.35 688.84 382.32 675.69 382.32"/>
        <polygon class="cls-2" points="721.67 382.32 717.95 400.94 706.46 382.32 695.36 382.32 687.36 422.35 700.51 422.35 704.22 403.73 715.72 422.35 726.81 422.35 734.82 382.32 721.67 382.32"/>
        <polygon class="cls-2" points="733.33 422.35 766.61 422.35 768.67 412.17 748.6 412.17 749.66 406.91 766.61 406.91 768.56 397.19 751.61 397.19 752.55 392.5 771.82 392.5 773.88 382.32 741.34 382.32 733.33 422.35"/>
        <path class="cls-2" d="M790.69,395.73c.95-1.09,2.09-1.92,3.4-2.52,1.32-.59,2.77-.89,4.38-.89,1.83,0,3.41.41,4.75,1.23,1.33.82,2.42,1.97,3.26,3.46l9.72-7.61c-1.45-2.59-3.66-4.58-6.63-5.95-2.97-1.37-6.39-2.06-10.24-2.06s-7.09.58-10.18,1.74-5.76,2.81-8.01,4.95c-2.25,2.14-3.99,4.67-5.23,7.61-1.24,2.94-1.86,6.16-1.86,9.66s.85,6.66,2.54,9.35c1.7,2.69,4.09,4.78,7.18,6.29s6.69,2.26,10.81,2.26c3.7,0,7.04-.58,10.04-1.74,2.99-1.16,5.71-3.23,8.15-6.21l-7.95-7.61c-1.37,1.64-2.81,2.82-4.32,3.55-1.51.72-3.04,1.09-4.6,1.09-1.64,0-3.08-.32-4.32-.97-1.24-.65-2.2-1.56-2.89-2.75-.69-1.18-1.03-2.55-1.03-4.12,0-1.79.27-3.43.8-4.92.53-1.49,1.28-2.77,2.23-3.86Z"/>
        <polygon class="cls-2" points="819.05 382.32 816.94 392.78 828.66 392.78 822.77 422.35 836.26 422.35 842.16 392.78 853.88 392.78 855.99 382.32 819.05 382.32"/>
      </g>
    </g>
  </g>
</svg>