<?xml version="1.0" encoding="UTF-8"?>
<svg id="Layer_2" data-name="Layer 2" xmlns="http://www.w3.org/2000/svg" viewBox="0 0 86.67 128.81">
  <defs>
    <style>
      .cls-1 {
        fill: #f2f2f2;
        stroke-width: 0px;
      }
    </style>
  </defs>
  <g id="Layer_1-2" data-name="Layer 1">
    <g>
      <path class="cls-1" d="M57.12,128.81h-27.57c-16.29,0-29.55-13.26-29.55-29.55v-27.57c0-16.29,13.26-29.55,29.55-29.55h27.57c16.29,0,29.55,13.26,29.55,29.55v27.57c0,16.29-13.26,29.55-29.55,29.55ZM29.55,52.8c-10.42,0-18.89,8.47-18.89,18.89v27.57c0,10.41,8.47,18.89,18.89,18.89h27.57c10.41,0,18.89-8.47,18.89-18.89v-27.57c0-10.42-8.47-18.89-18.89-18.89h-27.57Z"/>
      <circle class="cls-1" cx="43.33" cy="78.42" r="9.96"/>
      <path class="cls-1" d="M43.33,102.39c-2.94,0-5.33-2.39-5.33-5.33v-22.8c0-2.94,2.39-5.33,5.33-5.33s5.33,2.39,5.33,5.33v22.8c0,2.94-2.39,5.33-5.33,5.33Z"/>
      <path class="cls-1" d="M19.15,53.98c-2.94,0-5.33-2.39-5.33-5.33v-27.57C13.82,9.46,23.28,0,34.9,0h18.35c11.63,0,21.08,9.46,21.08,21.08v9.85c0,2.94-2.39,5.33-5.33,5.33s-5.33-2.39-5.33-5.33v-9.85c0-5.75-4.68-10.42-10.42-10.42h-18.35c-5.75,0-10.42,4.68-10.42,10.42v27.57c0,2.94-2.39,5.33-5.33,5.33Z"/>
    </g>
  </g>
</svg>