<?xml version="1.0" encoding="UTF-8"?>
<svg id="Layer_2" data-name="Layer 2" xmlns="http://www.w3.org/2000/svg" viewBox="0 0 111.98 111.98">
  <defs>
    <style>
      .cls-1 {
        fill: #f2f2f2;
        stroke-width: 0px;
      }
    </style>
  </defs>
  <g id="Layer_1-2" data-name="Layer 1">
    <g>
      <path class="cls-1" d="M55.99,111.88c-2.94,0-5.33-2.39-5.33-5.33V5.33c0-2.94,2.39-5.33,5.33-5.33s5.33,2.39,5.33,5.33v101.22c0,2.94-2.39,5.33-5.33,5.33Z"/>
      <path class="cls-1" d="M40.71,109.7c-23.6-32.13-23.62-75.31-.05-107.46l8.71,6.15-.05.07c-20.86,28.46-20.84,66.57-.02,94.93l-8.59,6.31Z"/>
      <path class="cls-1" d="M55.99,111.98C25.12,111.98,0,86.86,0,55.99S25.12,0,55.99,0s55.99,25.12,55.99,55.99-25.12,55.99-55.99,55.99ZM55.99,10.66c-24.99,0-45.33,20.33-45.33,45.33s20.33,45.33,45.33,45.33,45.33-20.33,45.33-45.33S80.98,10.66,55.99,10.66Z"/>
      <path class="cls-1" d="M71.26,109.7l-8.59-6.31c20.83-28.36,20.84-66.47.05-94.85l8.53-6.39.05.07c23.58,32.17,23.56,75.36-.04,107.48Z"/>
      <path class="cls-1" d="M106.6,61.27H5.38C2.44,61.27.05,58.88.05,55.94s2.39-5.33,5.33-5.33h101.22c2.94,0,5.33,2.39,5.33,5.33s-2.39,5.33-5.33,5.33Z"/>
    </g>
  </g>
</svg>