<?xml version="1.0" encoding="UTF-8"?>
<svg id="Layer_2" data-name="Layer 2" xmlns="http://www.w3.org/2000/svg" viewBox="0 0 119.18 105.23">
  <defs>
    <style>
      .cls-1 {
        fill: #f2f2f2;
        stroke-width: 0px;
      }
    </style>
  </defs>
  <g id="Layer_1-2" data-name="Layer 1">
    <g>
      <path class="cls-1" d="M58,0c-7.97,0-14.85,4.72-18.01,11.52-1.16,2.49-1.83,5.25-1.85,8.17-.1,10.97,8.72,19.94,19.69,20.04.05,0,.09,0,.14,0,.44,0,.88-.02,1.32-.05,10.3-.66,18.49-9.16,18.58-19.64.08-9.23-6.14-17.03-14.65-19.34-1.27-.34-2.58-.57-3.94-.66-.37-.02-.74-.04-1.11-.04-.06,0-.12,0-.18,0Z"/>
      <path class="cls-1" d="M118.5,101.59c-5.19-28.18-29.77-48.81-58.46-49.07-.07,0-.13,0-.2,0-.19,0-.38,0-.57,0-28.36.11-52.91,20.19-58.55,48.03l-.73,3.63,23.63.21.67-2.18c4.71-15.26,19.04-25.87,34.98-25.97.17,0,.33,0,.5,0,.02,0,.04,0,.06,0,16.16.14,30.59,11.08,35.08,26.59l.63,2.19,23.63.21-.67-3.64Z"/>
    </g>
  </g>
</svg>