<?xml version="1.0" encoding="UTF-8"?>
<svg id="Layer_2" data-name="Layer 2" xmlns="http://www.w3.org/2000/svg" viewBox="0 0 182.65 86.9">
  <defs>
    <style>
      .cls-1 {
        fill: #e6e7e8;
        stroke-width: 0px;
      }
    </style>
  </defs>
  <g id="Layer_1-2" data-name="Layer 1">
    <g>
      <g>
        <path class="cls-1" d="M33.92,73.2c-.82,0-1.61-.48-1.95-1.28-.46-1.08.03-2.33,1.11-2.79l4.68-2.02c1.08-.46,2.33.03,2.79,1.11.46,1.08-.03,2.33-1.11,2.79l-4.68,2.02c-.27.12-.56.17-.84.17Z"/>
        <path class="cls-1" d="M15.85,80.98c-.82,0-1.61-.48-1.95-1.29-.46-1.08.03-2.33,1.11-2.79l9.04-3.89c1.08-.46,2.33.03,2.79,1.11.46,1.08-.03,2.33-1.11,2.79l-9.04,3.89c-.27.12-.56.17-.84.17Z"/>
        <path class="cls-1" d="M2.13,86.9c-.82,0-1.61-.48-1.95-1.28-.46-1.08.03-2.33,1.11-2.79l4.68-2.02c1.08-.46,2.33.03,2.79,1.11.46,1.08-.03,2.33-1.11,2.79l-4.68,2.02c-.27.12-.56.17-.84.17Z"/>
      </g>
      <g>
        <path class="cls-1" d="M28.82,52.83c-.84,0-1.64-.51-1.97-1.34-.43-1.09.1-2.33,1.19-2.76l4.74-1.89c1.09-.43,2.32.1,2.76,1.19.43,1.09-.1,2.33-1.19,2.76l-4.74,1.89c-.26.1-.52.15-.79.15Z"/>
        <path class="cls-1" d="M17.05,57.52c-.84,0-1.64-.51-1.97-1.34-.43-1.09.1-2.33,1.19-2.76l5.89-2.35c1.09-.43,2.33.1,2.76,1.19.43,1.09-.1,2.33-1.19,2.76l-5.89,2.35c-.26.1-.52.15-.79.15Z"/>
        <path class="cls-1" d="M6.42,61.76c-.84,0-1.64-.51-1.97-1.34-.43-1.09.1-2.33,1.19-2.76l4.74-1.89c1.09-.44,2.33.1,2.76,1.19s-.1,2.33-1.19,2.76l-4.74,1.89c-.26.1-.52.15-.79.15Z"/>
      </g>
      <g>
        <path class="cls-1" d="M31.28,62.54c-.82,0-1.61-.48-1.95-1.29-.46-1.08.03-2.33,1.11-2.79l4.68-2.02c1.08-.46,2.33.03,2.79,1.11.46,1.08-.03,2.33-1.11,2.79l-4.68,2.02c-.27.12-.56.17-.84.17Z"/>
        <path class="cls-1" d="M15.32,69.42c-.82,0-1.61-.48-1.95-1.29-.46-1.08.03-2.33,1.11-2.79l4.68-2.02c1.08-.46,2.33.03,2.79,1.11.46,1.08-.03,2.33-1.11,2.79l-4.68,2.02c-.27.12-.56.17-.84.17Z"/>
      </g>
      <path class="cls-1" d="M182.61,4.27c-.29-2.78-2.39-4.56-5-4.22l-33.57,4.33-28.67,3.7-7.87,1.02c-.12.05-.24.11-.38.15-.76.24-1.41.29-1.95.15l-8.22,1.06-24.85,3.21-6.96.9-8.4.78c-.66.07-1.33.18-1.99.33-4.1.92-8.03,3.15-11.43,6.17l-22.06,19.6c-1.41,2.63-1.05,5.19.49,4.78l27.28-7.25-1.14,19.03c-.19,3.23.95,6.04,3.06,7.52,1.39.98,3.09,1.31,4.84,1,.65-.12,1.3-.32,1.96-.61L178.44,11.62c2.69-1.21,4.48-4.37,4.17-7.35ZM82.14,45.43l-25.61,11.52,1.22-20.32,12.06-3.21,73.06-19.42c-.04.13-.07.25-.11.38-.51,1.64-1.17,3.19-1.96,4.67l-58.65,26.37Z"/>
    </g>
  </g>
</svg>